<?xml version="1.0" standalone="no"?>
<!DOCTYPE svg PUBLIC "-//W3C//DTD SVG 1.1//EN" "http://www.w3.org/Graphics/SVG/1.1/DTD/svg11.dtd" >
<svg xmlns="http://www.w3.org/2000/svg">
<metadata></metadata>
<defs>
<font id="mikadoblack" horiz-adv-x="1153" >
<font-face units-per-em="2048" ascent="1536" descent="-512" />
<missing-glyph horiz-adv-x="356" />
<glyph unicode="&#xfb01;" horiz-adv-x="1337" d="M10 993q4 5 50 12.5t89.5 12.5t43.5 6l-1 6q0 6 -1 18t-2.5 27.5t-2 38t-0.5 47.5q0 50 15.5 102t48.5 102.5t79 90t113 64t144 24.5q258 0 413 -125q-6 -43 -57.5 -154.5t-64.5 -113.5q-11 -2 -33 7.5t-58.5 19.5t-78.5 10q-125 0 -125 -111q0 -9 1 -28t1 -21 q37 -3 342.5 -4t328.5 -8q7 -3 -5.5 -502t-18.5 -510q-7 -9 -190 -8.5t-187 6.5q-2 2 -5 116t-5 285.5t-2 313.5q-250 -4 -252 -2q-1 1 5.5 -175.5t11.5 -356t1 -183.5q-9 -9 -202.5 -14.5t-208.5 6.5q-3 3 -5.5 35t-4 81.5t-2 113t-0.5 127.5v128.5v112.5t0.5 82t0.5 35 q-6 1 -43.5 1t-73 0.5t-38.5 2.5q-6 3 -17 138t-4 144z" />
<glyph unicode="&#xfb02;" horiz-adv-x="1353" d="M10 993q4 5 50 12.5t89.5 12.5t43.5 6l-1 6q0 6 -1 18t-2.5 27.5t-2 38t-0.5 47.5q0 50 18 102t56 102.5t91 90t130 64t166 24.5q191 0 311 -78l48 54q243 0 270 -9q7 -3 -6 -749.5t-19 -757.5q-7 -9 -190 -8.5t-187 6.5q-3 3 -7.5 429.5t-4.5 684.5q-58 72 -147 72 q-56 0 -94.5 -29t-38.5 -82q0 -9 1 -28t1 -21q21 -2 157 -2q17 -177 -10 -311q-137 -4 -141 0q-1 1 5.5 -175.5t11.5 -356t1 -183.5q-9 -9 -202.5 -14.5t-208.5 6.5q-3 3 -5.5 35t-4 81.5t-2 113t-0.5 127.5v128.5v112.5t0.5 82t0.5 35q-6 1 -43.5 1t-73 0.5t-38.5 2.5 q-6 3 -17 138t-4 144z" />
<glyph horiz-adv-x="0" />
<glyph horiz-adv-x="0" />
<glyph horiz-adv-x="682" />
<glyph unicode="&#xd;" horiz-adv-x="0" />
<glyph unicode=" "  horiz-adv-x="356" />
<glyph unicode="&#x09;" horiz-adv-x="356" />
<glyph unicode="&#xa0;" horiz-adv-x="356" />
<glyph unicode="!" horiz-adv-x="630" d="M57 1425q39 18 250 28t254 -5q-2 -137 -18 -272t-37.5 -229.5t-45.5 -174t-39 -117.5t-22 -49q-13 -15 -83 -11.5t-78 11.5q-4 4 -22 49.5t-45 130t-52.5 183t-43.5 222.5t-18 234zM76 256q0 90 70.5 151.5t179.5 61.5q110 0 174.5 -59.5t64.5 -169.5q0 -47 -5.5 -82.5 t-21.5 -68.5t-42 -54.5t-69 -34t-101 -12.5q-112 0 -181 71.5t-69 196.5z" />
<glyph unicode="&#x22;" horiz-adv-x="847" d="M53 1479q3 3 154.5 8.5t152.5 -2.5q0 -32 -20 -315t-29 -283q-5 0 -57.5 -2t-101 -3.5t-48.5 -0.5l-6 61q-6 62 -14.5 148.5t-16.5 173.5t-12.5 149.5t-1.5 65.5zM487 1479q3 3 155 8.5t153 -2.5q0 -32 -20.5 -315t-29.5 -283q-5 0 -57.5 -2t-100.5 -3.5t-48 -0.5l-7 61 q-6 62 -14.5 148.5t-16.5 173.5t-12.5 149.5t-1.5 65.5z" />
<glyph unicode="#" horiz-adv-x="1241" d="M51 362q-6 12 2 92t15 83q4 2 50 5.5t89 6.5t43 4q0 3 27 115t30 112l-146 -4q-43 0 -48 4q-7 7 4.5 95t17.5 88q15 0 112 7t101 11q3 3 26 115.5t44 223.5l22 112q5 5 64 9.5t108.5 4.5t57.5 -4q0 -6 -55.5 -230.5t-55.5 -226.5q0 -4 123.5 0t134.5 6q7 1 48.5 216 t41.5 227q0 8 209 8q4 0 -23 -112.5t-53 -224.5t-20 -110q10 4 90 3.5t80 -7.5q0 -15 -8.5 -113t-12.5 -98q-3 0 -99 2t-97 2l-53 -221q186 -2 186 -14q0 -23 -2.5 -107t-5.5 -84q-196 0 -201 -6q-3 -4 -26.5 -95.5t-45.5 -180.5l-22 -90q-195 2 -201 6q-2 1 4.5 36.5t17 87 t21 101t19 88t8.5 39.5q0 2 -13.5 3t-36.5 1t-50 -0.5t-55 -1.5t-50.5 -2t-37.5 -2h-15q-1 0 -20 -86t-38 -172.5t-20 -87.5l-191 12l72 348q-158 -10 -166 6zM463 565q8 1 121.5 1.5t122.5 2.5q5 1 15.5 55t17.5 108l8 54h-240q-4 -14 -9.5 -37t-17 -72t-17 -81t-1.5 -31z " />
<glyph unicode="$" horiz-adv-x="1232" d="M57 119q-5 20 21.5 101t60 153.5t45.5 68.5q3 -1 68 -28.5t145.5 -54t155.5 -37.5l-4 237l-51 16q-89 25 -149.5 48t-118 58t-91 77.5t-53.5 104t-20 141.5q0 174 125.5 299t351.5 149q0 148 2 150q6 10 41 13t66.5 1t31.5 -4v-158q146 -4 270 -36.5t183 -76.5 q14 -11 -13.5 -86t-66 -145.5t-49.5 -71.5q-4 -1 -50 17.5t-124 41.5t-150 29v-233q2 -2 10 -2q66 -17 113 -31t102 -35.5t92 -44.5t74.5 -55.5t59.5 -71t35.5 -90t13.5 -112.5q0 -58 -16.5 -115.5t-55 -115t-94.5 -103t-142.5 -78.5t-191.5 -43v-164l-76 -13q-44 -4 -47 5 q-1 1 -4 166q-151 4 -290.5 44.5t-209.5 84.5zM446 1030q0 -31 19.5 -52t79.5 -44v188q-99 -17 -99 -92zM684 317q54 5 80.5 26.5t26.5 66.5q0 28 -24 52.5t-83 51.5v-197z" />
<glyph unicode="%" horiz-adv-x="1755" d="M45 1055q0 97 28 169.5t78.5 114.5t113 62t138.5 20q153 0 247.5 -96.5t94.5 -269.5q0 -75 -20.5 -141.5t-60 -120.5t-106.5 -85.5t-152 -31.5q-167 0 -264 93t-97 286zM293 1047q0 -57 28.5 -86t69.5 -29q45 0 75 28.5t30 86.5q0 57 -24.5 96t-72.5 39q-106 0 -106 -135 zM346 -10q-4 4 376.5 737.5t391.5 736.5q9 2 67 -1t114 -12.5t55 -20.5q-2 -27 -365 -749.5t-389 -729.5q-33 -8 -135.5 9.5t-114.5 29.5zM997 369q0 100 29 174.5t80.5 117.5t115.5 63.5t142 20.5q156 0 252 -99.5t96 -276.5q0 -77 -21 -145.5t-61.5 -124t-108.5 -87.5 t-155 -32q-171 0 -270 95t-99 294zM1237 360q0 -63 33.5 -95t79.5 -32q52 0 86 31.5t34 95.5q0 62 -28 105t-82 43q-63 0 -93 -41t-30 -107z" />
<glyph unicode="&#x26;" horiz-adv-x="1441" d="M72 360q0 51 11 97.5t26.5 82t43.5 71t49.5 58t57 50t53.5 40t52 34.5q-67 57 -114.5 137.5t-47.5 159.5q0 157 119.5 264.5t326.5 107.5q117 0 214 -44t155.5 -129t58.5 -195q0 -60 -23.5 -115.5t-57.5 -93t-67.5 -66t-56.5 -41.5l-24 -14l145 -129q119 92 172 153 q29 3 140.5 -86t126.5 -120q-40 -47 -88.5 -101.5t-76.5 -84.5l-28 -31l191 -170q-39 -77 -134.5 -164.5t-130.5 -87.5l-194 198q-55 -48 -84 -68q-148 -98 -355 -98q-212 0 -336 109.5t-124 275.5zM475 418q0 -36 33.5 -61t71.5 -25q40 0 80 16t60 32l21 17l-159 185 q0 -1 -11.5 -10t-27 -24t-31 -34t-26.5 -44.5t-11 -51.5zM543 1069q0 -25 28 -63t54 -50q2 -3 25 11.5t46 42.5t23 55q0 82 -90 82q-37 0 -61.5 -23.5t-24.5 -54.5z" />
<glyph unicode="'" horiz-adv-x="415" d="M53 1479q3 3 155.5 8.5t153.5 -2.5q0 -31 -21 -314.5t-30 -283.5q-5 0 -57.5 -2t-101 -3.5t-48.5 -0.5l-6 61q-6 62 -14.5 148.5t-16.5 173.5t-12.5 149.5t-1.5 65.5z" />
<glyph unicode="(" horiz-adv-x="770" d="M39 631q0 162 36.5 297t95 222t130 153t142 101.5t129.5 56t95.5 26.5t37.5 4q11 -19 22.5 -120.5t11.5 -127.5q0 -3 -22 -8t-58 -18t-78.5 -35.5t-85.5 -67.5t-79 -106.5t-58 -161t-22 -221.5q0 -96 15 -179t40 -142.5t57 -108.5t68 -81t72 -56t68 -37t57 -20.5 t40 -10.5t15 -4q-4 -36 -23 -97.5t-38 -107t-23 -45.5q-7 0 -38 7t-92 31t-126.5 62t-136 108t-126 159.5t-91 227t-35.5 300.5z" />
<glyph unicode=")" horiz-adv-x="768" d="M6 -12q0 3 23.5 8t61 18t82.5 35.5t90 67.5t82.5 106.5t61 161t23.5 221.5q0 96 -14 179t-38 142.5t-55 108.5t-65 81t-68 56t-65 37t-55 20.5t-38 10.5t-14 4q4 36 18 97.5t28 107t18 45.5q7 0 38 -7t92 -31t126.5 -62t136 -108t126 -159.5t91 -227t35.5 -300.5 q0 -162 -36.5 -297t-95 -222t-130 -153t-142 -101.5t-129.5 -56t-95.5 -26.5t-37.5 -4q-12 19 -33.5 125.5t-21.5 122.5z" />
<glyph unicode="*" horiz-adv-x="847" d="M55 1102q0 6 97.5 65t97.5 62q0 4 -96.5 68t-96.5 69q0 7 53.5 67.5t61.5 63.5q6 2 89 -61l83 -64q3 -1 10 46.5t13 95.5l6 47q154 0 157 -7q2 -4 -1.5 -60.5t-6.5 -110.5t0 -54q2 0 51.5 25t98.5 48t53 19t22.5 -52.5t35.5 -95t16 -46.5t-54 -12.5t-105.5 -25.5 t-51.5 -15q7 -3 93.5 -51.5t86.5 -49.5q0 -2 -57 -82t-64 -84q-4 -3 -40 30.5t-72 69.5l-37 37q-2 2 2 -41.5t9 -92t5 -54.5q0 -11 -85.5 -19t-96.5 -3q-4 1 -3 38t4.5 77.5t7 77.5t3.5 38q0 2 -45.5 -30t-92.5 -64.5t-50 -32.5q-5 0 -53 78.5t-48 85.5z" />
<glyph unicode="+" horiz-adv-x="1101" d="M43 705l397 6v393q99 15 226 -2v-373h389q2 -195 -8 -205q-6 -6 -183.5 -19.5t-181.5 -15.5q-6 -3 -8 -205t-4 -204q-7 -7 -107.5 -11t-107.5 11q-2 9 -7 114.5t-9 205.5t-7 102q-2 1 -180 -5.5t-184 -0.5q-5 5 -12 57t-11 102t-2 50z" />
<glyph unicode="," horiz-adv-x="589" d="M43 213q0 123 73 190t206 60q44 -2 81 -16t69.5 -41t51.5 -75t19 -112q0 -214 -246 -633q-3 -5 -50 7.5t-101 36.5t-70 48q-3 6 157 293q-78 13 -134 79t-56 163z" />
<glyph unicode="-" horiz-adv-x="833" d="M76.5 649.5q0.5 59.5 3.5 71.5q9 5 337 15.5t331 0.5q5 -36 3 -103t-7.5 -132.5t-8.5 -65.5l-66 -2q-66 -2 -152.5 -4t-181.5 -4t-153.5 -2t-68.5 2q-17 13 -27 88.5t-9.5 135z" />
<glyph unicode="." horiz-adv-x="585" d="M43 213q0 123 73 190t206 60q44 -2 81 -16t69.5 -41t51.5 -75t19 -112q0 -121 -74 -187.5t-209 -62.5q-83 3 -150 72t-67 172z" />
<glyph unicode="/" horiz-adv-x="1009" d="M35 -86q0 4 344.5 833t347.5 832q248 -37 248 -47q0 -17 -340 -857t-361 -835q-4 1 -36.5 8t-63 14t-64 16.5t-54.5 18.5t-21 17z" />
<glyph unicode="0" horiz-adv-x="1247" d="M59 702q0 382 146 566t411 184q129 0 231.5 -42t180.5 -130t120 -236t42 -348q0 -363 -142 -546t-419 -183q-290 0 -430 174.5t-140 560.5zM467 694q0 -188 31.5 -266t109.5 -78q82 0 115 72.5t33 249.5q0 197 -31.5 289t-110.5 92t-113 -88t-34 -271z" />
<glyph unicode="1" horiz-adv-x="901" d="M-6 1206q24 27 261 126t302 120q49 -4 134 -21.5t104 -33.5q-1 -1307 -13 -1389q-19 -6 -215.5 -10.5t-212.5 8.5q-3 105 -1.5 208.5t9 378t9.5 380.5q-5 -2 -14.5 -6t-37 -15l-52.5 -21t-57 -22t-56 -20.5t-43 -14t-25 -4.5q-11 1 -54 165t-38 171z" />
<glyph unicode="2" horiz-adv-x="1077" d="M41 1231q0 11 17 35.5t57 57.5t94 63t139.5 50.5t183.5 20.5q138 0 245.5 -49.5t171 -149.5t63.5 -237q0 -80 -25 -156.5t-78.5 -154.5t-118 -150t-161.5 -164l4 -8l358 12q11 -13 13 -112.5t-4 -193.5t-15 -93q-33 -5 -455 -7t-436 5q-10 6 -29.5 145.5t-13.5 178.5 q61 70 164.5 173t169.5 169.5t118 142.5t52 129q0 46 -27.5 78.5t-83.5 32.5q-40 0 -73 -10.5t-57.5 -31t-32 -28.5t-21.5 -27q-34 26 -126.5 141t-92.5 138z" />
<glyph unicode="3" horiz-adv-x="1089" d="M16 160q-5 24 77.5 145.5t125.5 138.5q36 -36 97.5 -63t140.5 -27q73 0 106 33t33 74q0 50 -45 76t-123 26q-13 0 -76 -1t-78 -1q-21 27 -22 178t22 164q20 0 89.5 -2t87.5 -2q133 0 133 90q0 47 -35.5 70.5t-93.5 23.5q-49 0 -102.5 -23t-80.5 -50q-8 1 -30.5 22.5 t-54 58.5t-56 67t-55 68t-33.5 42q173 190 477 190q213 0 347 -107.5t134 -289.5q0 -66 -18 -123.5t-47 -97t-56.5 -65t-54.5 -40.5v-12q20 -3 45.5 -16t55.5 -38.5t54.5 -59.5t41 -84t16.5 -107q0 -108 -43 -194t-116 -139.5t-166.5 -81.5t-198.5 -28q-94 0 -179 18 t-146 48t-102.5 59t-70.5 60z" />
<glyph unicode="4" horiz-adv-x="1212" d="M14 580q56 130 259.5 456t287.5 424q107 -4 250.5 -18t206.5 -33l-2 -821q121 -2 160 -6q4 -12 4 -93.5t-2 -156.5l-2 -76q0 -6 -175 -6q-1 0 0.5 -61t2.5 -125l2 -64q-82 -13 -197.5 -11t-200.5 21l2 236q-77 -4 -264.5 -5.5t-298.5 3.5q-13 61 -25.5 175.5t-7.5 160.5z M408 582l208 2l21 366l-12 2q-33 -44 -108.5 -173t-108.5 -197z" />
<glyph unicode="5" horiz-adv-x="1107" d="M10 160q6 38 78 180.5t84 142.5q4 0 34 -19.5t69 -43t97.5 -43t112.5 -19.5q61 0 95 31.5t34 93.5q0 108 -116 117q-66 4 -162 -45l-213 123q0 145 20.5 404.5t46.5 349.5q27 8 386.5 16.5t420.5 -4.5q4 -353 -6 -357q-4 -2 -125.5 -6t-240.5 -7l-119 -3l-8 -162 q78 23 164 23q183 0 294 -117t111 -326q0 -166 -72.5 -283.5t-196.5 -174t-288 -56.5q-165 0 -317.5 68.5t-182.5 116.5z" />
<glyph unicode="6" horiz-adv-x="1157" d="M51 584q0 104 24 205.5t63 183.5t89.5 157.5t103.5 131.5t105.5 100.5t94.5 71t71 36.5q30 0 156 -100.5t145 -150.5q-109 -57 -212 -143t-134 -154l6 -9q65 23 158 23q80 0 152.5 -27t133 -80t96.5 -143.5t36 -206.5q0 -125 -42 -222t-117 -157.5t-172 -91.5t-212 -31 q-79 0 -154.5 21.5t-147 69t-125 116.5t-86 172.5t-32.5 227.5zM467 485q0 -71 35.5 -116t105.5 -45q72 0 112 42.5t40 108.5q0 69 -36.5 116.5t-107.5 47.5q-74 0 -111.5 -46t-37.5 -108z" />
<glyph unicode="7" horiz-adv-x="1005" d="M36 1237.5q-8 163.5 1 181.5q100 15 921 15q3 0 12.5 -83.5t17.5 -166.5l9 -84q-442 -1129 -446 -1129q-15 0 -101 9.5t-202 34t-152 53.5l451 974l-490 -8q-13 40 -21 203.5z" />
<glyph unicode="8" horiz-adv-x="1208" d="M49 408q0 81 36.5 152.5t87.5 116.5t112 75q-80 41 -137.5 121.5t-57.5 181.5q0 80 25.5 146.5t71.5 113t109.5 79t138 47.5t159.5 15q111 0 203 -25t161.5 -74t108.5 -127.5t39 -178.5q0 -99 -48 -176.5t-122 -116.5q93 -46 159 -139.5t66 -217.5q0 -137 -74 -236 t-195.5 -146.5t-273.5 -47.5q-128 0 -230.5 25.5t-179 77.5t-118 136.5t-41.5 197.5zM471 446q0 -133 135 -133q71 0 108.5 32t37.5 91q0 63 -35.5 102.5t-104.5 39.5q-71 0 -106 -37.5t-35 -94.5zM477 1026q0 -98 119 -98t119 92q0 48 -29 78t-86 30q-61 0 -92 -29t-31 -73 z" />
<glyph unicode="9" horiz-adv-x="1157" d="M18 969q0 125 42 222t117 157t172 91t212 31q79 0 154.5 -21t147 -69t125 -116.5t86 -172t32.5 -227.5q0 -143 -45 -281t-111.5 -237.5t-145 -181.5t-142.5 -127t-107 -60q-30 0 -156 101t-145 151q109 56 212 143.5t134 155.5l-6 9q-61 -25 -178 -25q-72 0 -140.5 27 t-127 80t-94.5 143.5t-36 206.5zM397 973q0 -69 36.5 -116.5t107.5 -47.5q74 0 111.5 46t37.5 108q0 71 -35.5 116t-105.5 45q-72 0 -112 -42.5t-40 -108.5z" />
<glyph unicode=":" horiz-adv-x="600" d="M57 817q0 119 70 183t199 57q41 -2 76.5 -15.5t67 -39.5t49.5 -72t18 -107q0 -117 -71 -180t-200 -59q-80 3 -144.5 68.5t-64.5 164.5zM66 201q0 116 68.5 179t195.5 56q41 -2 76 -15t66 -38.5t49 -71t18 -106.5q0 -115 -70.5 -177.5t-198.5 -58.5q-79 3 -141.5 68 t-62.5 164z" />
<glyph unicode=";" horiz-adv-x="608" d="M61 817q0 119 70 183t199 57q41 -2 76.5 -15.5t67 -39.5t49.5 -72t18 -107q0 -117 -71 -180t-200 -59q-80 3 -144.5 68.5t-64.5 164.5zM66 184q0 119 69.5 183t196.5 57q90 -5 150.5 -61t60.5 -173q0 -210 -236 -604q-2 -5 -47 6.5t-96.5 35t-67.5 46.5q-1 2 9 23 t30 56.5t37.5 67.5t42 74.5t33.5 59.5q-75 11 -128.5 73.5t-53.5 155.5z" />
<glyph unicode="&#x3c;" horiz-adv-x="970" d="M45 705q0 9 393 161.5t402 145.5q9 -8 41 -93t28 -92q-4 -6 -256.5 -118t-253.5 -113q-2 -2 119 -62.5t244 -120t127 -59.5t-12 -48t-35 -97.5t-23 -54.5q-3 -4 -187 85t-370.5 181t-193.5 92q-11 0 -17 77.5t-6 115.5z" />
<glyph unicode="=" horiz-adv-x="1056" d="M88 850q0 46 2 43q850 4 873 -35q10 -23 5.5 -63t-14 -77t-12.5 -38t-418 8.5t-424 11.5q-12 2 -12 150zM118.5 374.5q-11.5 84.5 0.5 96.5q4 4 410.5 19t406.5 8q0 -9 -10 -123.5t-11 -114.5q-60 0 -415 7.5t-361 13.5q-9 9 -20.5 93.5z" />
<glyph unicode="&#x3e;" horiz-adv-x="991" d="M55 827q-4 7 28.5 92t41.5 93q9 7 412 -143.5t403 -159.5q0 -2 1.5 -24.5t3 -49t2 -54.5t-1.5 -46.5t-7 -18.5q-7 0 -200.5 -113t-384 -223t-193.5 -106q-4 5 -23 54.5t-35 97.5t-12 48t144 75.5t277.5 152t135.5 78.5q-1 1 -294.5 121t-297.5 126z" />
<glyph unicode="?" horiz-adv-x="956" d="M49 1360q43 45 146.5 76.5t250.5 31.5q126 0 230 -44t169.5 -135.5t65.5 -215.5q0 -89 -28 -160.5t-78.5 -118.5t-114.5 -75.5t-141 -38.5l-10 -98q-143 -17 -293 -4q-10 9 -16.5 98t-7.5 174l-1 84q281 0 281 92q0 30 -31.5 55t-95.5 25q-52 0 -103.5 -12t-77.5 -24 l-26 -13q-5 10 -13.5 27.5t-30 64t-37.5 84.5t-28 75.5t-10 51.5zM135 256q0 90 70.5 151.5t179.5 61.5q110 0 175 -59.5t65 -169.5q0 -59 -10 -101.5t-35 -78.5t-74 -54t-121 -18q-112 0 -181 71.5t-69 196.5z" />
<glyph unicode="@" horiz-adv-x="2041" d="M47 436q0 156 41 306.5t129.5 288.5t214.5 242t308.5 166t398.5 62q179 0 333 -55t266 -154t176 -246t64 -323q0 -145 -33.5 -268t-88.5 -207t-126.5 -143t-147 -86t-150.5 -27q-101 0 -176 53t-101 129h-14q-52 -63 -110.5 -96t-149.5 -33q-155 0 -242.5 109t-87.5 284 q0 100 26.5 185.5t69 143.5t97.5 99t111 59.5t110 18.5q36 0 66.5 -9t50 -20t38 -30t26 -30.5t19.5 -29.5q2 12 25 105q68 0 157.5 -18.5t108.5 -43.5l-63 -354q-15 -114 -15 -143q0 -54 16 -77.5t52 -23.5q96 0 168 119t72 334q0 61 -15.5 123.5t-56 130t-102.5 119 t-164.5 85t-231.5 33.5q-116 0 -218.5 -26.5t-178.5 -71.5t-139 -107t-104.5 -130.5t-70 -144t-41 -146t-12.5 -137.5q0 -309 167 -487.5t435 -178.5q87 0 181 22.5t159 57.5q28 -16 62.5 -92.5t34.5 -112.5q0 -26 -60.5 -59.5t-181 -60.5t-258.5 -27q-231 0 -425.5 124.5 t-306.5 337t-112 461.5zM850 459q0 -70 29.5 -107t76.5 -37q57 0 98.5 54.5t41.5 150.5q0 69 -28 112.5t-71 43.5q-51 0 -86 -35.5t-48 -82t-13 -99.5z" />
<glyph unicode="A" horiz-adv-x="1480" d="M6 23q35 133 228.5 766t205.5 641q14 10 278 16q119 3 191 2q90 0 111 -4q4 -1 107 -297t216 -650t134 -474q-25 -11 -141 -22q-118 -11 -222 -17q-88 -5 -104 -4h-4q-4 1 -43 114.5t-50 155.5h-20q-39 0 -145 2q-149 2 -187 4q-11 -49 -41.5 -158t-38.5 -114 q-3 -2 -23 -2q-50 0 -208 12q-221 18 -244 29zM623 596q28 2 112 2t135 -2q-14 41 -60 216.5t-58 215.5q-2 0 -6.5 -1t-6.5 -1q-12 -41 -58.5 -218.5t-57.5 -211.5z" />
<glyph unicode="B" horiz-adv-x="1316" d="M104 1409q4 10 183 17.5t252 7.5q653 0 653 -390q0 -116 -39.5 -180t-118.5 -112v-13q108 -22 183 -114.5t75 -239.5q0 -202 -152.5 -299.5t-437.5 -97.5q-148 0 -358.5 9t-218.5 15q-7 6 -17 695q-6 451 -6 613q0 85 2 89zM539 887q14 -2 41 -2q170 0 170 112 q0 51 -50.5 75t-111.5 24q-23 0 -47 -4zM559 344q47 -6 84 -6q174 0 174 119q0 116 -184 116q-22 0 -72 -4z" />
<glyph unicode="C" horiz-adv-x="1341" d="M43 727q0 157 56 291t158 231t251 152t328 55q175 0 306.5 -41t182.5 -96q-2 -44 -63.5 -193.5t-104.5 -185.5q-170 94 -313 94q-136 0 -230 -91t-94 -234q0 -77 20 -137t51.5 -95.5t73 -58.5t80 -31t78.5 -8q29 0 57.5 4t50 9t45.5 15t39 17t35 19t28 18l24 18t18 13 q36 -24 100.5 -132t108.5 -198q-75 -90 -226 -149.5t-329 -59.5q-147 0 -268.5 39.5t-206.5 109.5t-143 167.5t-85.5 212.5t-27.5 245z" />
<glyph unicode="D" horiz-adv-x="1439" d="M106 692q4 603 19 733q67 17 489 17q179 0 326.5 -54.5t247.5 -151.5t154.5 -230.5t54.5 -290.5q0 -131 -28.5 -241.5t-90.5 -203t-154.5 -157t-226.5 -100.5t-301 -36q-134 0 -293 9.5t-192 19.5q-6 55 -6 342q-1 143 1 344zM547 393q41 -6 98 -6q285 0 285 309 q0 145 -85.5 235.5t-219.5 90.5q-56 0 -76 -2q1 -73 0 -167q1 -189 -2 -460z" />
<glyph unicode="E" horiz-adv-x="1202" d="M104 -2q-3 51 -3 205q-1 165 3 449q8 549 19 778q171 10 593 12q60 0 113 -1q311 0 312 -7q11 -36 11 -176q0 -7 1 -14q0 -130 -10 -193q-62 -6 -231 -6q-14 1 -30 1q-194 0 -335 5l4 -138q50 1 97 1q106 0 198 -4q132 -4 141 -13q6 -7 9 -45q3 -33 3 -75q-1 -7 -1 -15 q0 -52 -1.5 -101t-3.5 -87l-2 -39q1 -9 -139 -11h-66q-111 0 -237 4v-155q138 5 329.5 5t245.5 -5q10 -63 10 -191v-14q0 -138 -12 -174q1 0 1 -1q0 -6 -198 -7q-83 -1 -174 -1q-136 0 -289 2q-255 3 -358 11z" />
<glyph unicode="F" horiz-adv-x="1183" d="M106 1430q70 10 552 12h174q309 0 313 -8q11 -36 11 -178q0 -7 1 -13q0 -131 -10 -194q-62 -6 -231 -6q-14 1 -30 1q-194 0 -335 5l8 -271q51 1 101 1q111 1 214 -3q149 -4 158 -14q5 -5 8.5 -32.5t3.5 -63.5v-38v-41q0 -43 -1 -77.5t-2 -60.5t-1 -27q0 -8 -155 -10h-72 q-121 0 -246 4q5 -244 5 -346q0 -44 -1 -62q-3 -12 -221 -18q-73 -2 -121 -2q-98 0 -102 8q-7 15 -18 677q-6 383 -6 576q0 141 3 181z" />
<glyph unicode="G" horiz-adv-x="1427" d="M43 727q0 157 53 291t150.5 231t244 152t324.5 55q172 0 304.5 -46t185.5 -103q-1 -36 -77.5 -179.5t-111.5 -179.5q-148 82 -293 82q-135 0 -222 -88.5t-87 -232.5q0 -97 25 -168.5t69.5 -111.5t97.5 -58.5t117 -18.5q51 0 131 23l-4 117q-153 -5 -184 -7q-9 12 -12 155 v52q0 95 8 109q47 11 317 19q116 3 184 3q92 0 99 -6q10 -10 10 -275v-76q-2 -341 -8 -345q-78 -65 -247 -116.5t-343 -51.5q-147 0 -268.5 39.5t-206.5 109.5t-143 167.5t-85.5 212.5t-27.5 245z" />
<glyph unicode="H" horiz-adv-x="1554" d="M106 700q-3 236 -3 398q0 277 8 334q3 20 115 24q44 2 88 2q68 0 136 -4q112 -7 117 -14q10 -19 17 -545q95 2 190.5 1.5t192.5 -1.5q4 433 14 526q61 13 253 13q9 0 18 1q175 0 184 -10q11 -7 11 -544q-1 -67 -1 -143q-2 -678 -14 -736q-5 -20 -118 -24q-46 -2 -92 -2 q-66 0 -132 4q-112 6 -113 14q-7 77 -10 485q-137 0 -379 4q0 -347 -6 -491q-66 -14 -261 -16q-28 0 -52 -1q-144 0 -146 13q-10 71 -17 712z" />
<glyph unicode="I" horiz-adv-x="690" d="M108 684q0 20 -1 40q0 548 14 697q61 13 252 13q9 0 18 1q174 0 182 -10q11 -7 10 -544q1 -67 1 -143q-2 -678 -15 -736q-5 -20 -117 -24q-46 -2 -92 -2q-66 0 -132 4q-110 6 -111 14q-9 108 -9 690z" />
<glyph unicode="J" horiz-adv-x="1009" d="M-8 100q-5 25 60.5 180.5t94.5 182.5q5 -3 22 -14.5t26 -16.5t27 -14.5t32 -14t33.5 -8.5t38.5 -4q131 0 131 168q0 113 -9 435q-8 265 -8 382v43q64 13 252 23q97 4 148 4q47 0 53 -4q10 -8 16 -319.5t6 -604.5q0 -268 -128.5 -407.5t-376.5 -139.5q-289 0 -418 129z " />
<glyph unicode="K" horiz-adv-x="1372" d="M106 698q-5 274 -6 445q0 265 13 280q29 19 206 19h27q202 -2 221 -10q4 -16 4 -82q-1 -27 -1 -63q-2 -122 -8 -263l-5 -141q394 555 414 555q24 0 203 -55q180 -55 180 -74q0 -13 -86 -145q-87 -132 -174 -260l-88 -126q44 -64 136 -232t164 -310q70 -138 70 -149 q0 -15 -186 -75q-158 -51 -221 -50q-10 0 -17 1q-16 2 -272 506l-113 -141l4 -334q-34 -8 -229 -12q-55 -1 -95 0q-104 0 -114 6q-13 10 -27 710z" />
<glyph unicode="L" horiz-adv-x="1118" d="M106 762q0 652 13 668q8 10 225 16q68 2 115 2q102 0 104 -8q4 -46 4 -315q0 -81 -1 -181q-2 -436 -7 -545q198 6 329 6.5t195 -6.5q11 -70 15 -213q1 -41 1 -73q0 -81 -7 -109q-5 -8 -293 -8h-163q-450 2 -521 12q-9 97 -9 686v68z" />
<glyph unicode="M" horiz-adv-x="1810" d="M27 44q0 66 101 679q102 619 126 704q4 19 100 25q64 4 128 4q32 0 65 -1q97 -3 127 -9q29 -52 102 -321.5t131 -522.5h13q141 598 190 744q24 72 37 84q17 16 212 18q42 1 77 1q124 0 147 -7q13 -7 107 -682q90 -641 90 -717v-6q-13 -19 -122 -37q-109 -20 -197 -24 q-42 -2 -67 -2q-29 0 -38 3q-4 23 -14.5 146.5t-26.5 307.5t-29 308h-8q-18 -70 -64.5 -265t-77 -310t-51.5 -168q-24 -7 -141 -7q-22 1 -47 1q-159 2 -170 12q-16 23 -182 746q-1 0 -4 1t-4 1q-14 -110 -43.5 -405t-42.5 -357q-12 -1 -28 -1q-71 1 -217 19q-178 22 -179 38 z" />
<glyph unicode="N" horiz-adv-x="1525" d="M104 704q0 64 -1 122q0 507 12 587q3 19 106 29q89 8 178 9q15 -1 29 -1q104 -2 107 -8q30 -47 91 -146t168 -283t179 -323v86q0 94 -1 218q-2 186 -3 264v26q0 66 4 135q59 12 210 12q17 -1 37 -1q180 -2 193 -11q7 -5 7 -258q0 -158 -3 -414q-8 -664 -20 -722 q-5 -19 -107 -31q-87 -10 -166 -10h-28q-92 2 -119 8q-18 22 -82.5 128t-165.5 272.5t-180 289.5q0 -119 6 -361q4 -157 3 -239q0 -45 -1 -68q-67 -14 -253 -14q-6 0 -11 -1q-175 0 -178 15q-9 70 -11 690z" />
<glyph unicode="O" horiz-adv-x="1544" d="M41 733q0 112 29 217.5t89 198t145 162t204.5 109.5t259.5 40q333 0 534 -208t201 -564q0 -111 -27.5 -215.5t-86.5 -198t-143.5 -163t-206 -110t-265.5 -40.5q-335 0 -534 207.5t-199 564.5zM510 709q0 -146 71 -239t183 -93q125 0 190.5 89t65.5 253q0 171 -68.5 251.5 t-179.5 80.5q-122 0 -192 -90.5t-70 -251.5z" />
<glyph unicode="P" horiz-adv-x="1300" d="M108 684q0 20 -1 40q0 548 14 697q240 21 528 21q306 0 469.5 -138.5t163.5 -381.5q0 -288 -151.5 -416.5t-477.5 -128.5h-51q0 -39 -0.5 -107t-1 -102t-1.5 -76t-3.5 -62.5t-5.5 -27.5q-6 -12 -238 -16q-58 -1 -102 -1q-131 0 -133 9q-9 108 -9 690zM590 768 q46 -4 92 -4q75 0 120.5 31.5t45.5 95.5q0 70 -51 102.5t-131 32.5q-56 0 -74 -4q1 -29 0 -67q1 -76 -2 -187z" />
<glyph unicode="Q" horiz-adv-x="1548" d="M43 733q0 111 27.5 215.5t86.5 198t143.5 163t206 110t265.5 40.5q335 0 534 -207.5t199 -564.5q0 -192 -84.5 -358.5t-242.5 -263.5q32 -46 82.5 -87.5t91 -65.5t98.5 -54q-26 -69 -135.5 -177t-159.5 -133q-133 41 -254 160t-182 254q-105 6 -193 33 q-226 70 -354.5 262t-128.5 475zM526 713q0 -171 68.5 -251.5t179.5 -80.5q122 0 192 90.5t70 251.5q0 146 -71 239t-183 93q-125 0 -190.5 -89t-65.5 -253z" />
<glyph unicode="R" horiz-adv-x="1359" d="M108 684q7 606 21 737q240 21 512 21q316 0 483.5 -125.5t167.5 -380.5q0 -150 -58.5 -246.5t-174.5 -150.5q68 -86 138 -189q71 -102 109 -168q36 -61 35 -68q-1 -19 -181 -92q-151 -61 -207 -61h-5t-49.5 76t-131 203t-153.5 223h-61q-4 -410 -12 -461q-21 -7 -224 -13 q-72 -2 -119 -2q-86 0 -89 7q-4 45 -4 238q0 169 3 452zM582 807q50 -4 96 -4q164 0 164 121q0 63 -39 95t-141 32q-58 0 -78 -4q1 -28 1 -64q0 -71 -3 -176z" />
<glyph unicode="S" horiz-adv-x="1198" d="M43 119q-1 4 -1 10q0 43 52 191q56 163 75 163h1q6 -2 73.5 -37t149 -62.5t156.5 -27.5q137 0 137 68q0 36 -41.5 61.5t-169.5 49.5q-210 39 -317 147.5t-107 321.5q0 92 37.5 173.5t107 144t178.5 98.5t244 36q161 0 301 -33.5t203 -81.5q5 -4 5 -15q0 -24 -20 -83 q-29 -87 -69 -170t-51 -84q-3 -1 -54.5 18.5t-138.5 40.5t-167 21q-127 0 -127 -59q0 -37 36 -53.5t171 -45.5q79 -17 141 -38t124.5 -57.5t103.5 -84t67 -119t26 -161.5q0 -64 -19.5 -126.5t-65.5 -123.5t-113.5 -107.5t-172 -75t-231.5 -28.5q-156 0 -302.5 41t-221.5 88z " />
<glyph unicode="T" horiz-adv-x="1191" d="M22 1258q-1 46 -1 78q0 75 6 81q9 12 539 24q255 6 398 6q156 0 183 -7q16 -2 22 -98q4 -60 4 -121q1 -35 -1 -70q-4 -95 -11 -96q-53 -9 -340 -19q2 -361 1 -595q0 -421 -5 -429q-8 -10 -225 -16q-68 -2 -115 -2q-102 0 -104 8q-7 62 -9 402q-1 155 -1 300q0 175 2 336 q-56 -1 -103 -1q-158 0 -225 8q-11 59 -15 211z" />
<glyph unicode="U" horiz-adv-x="1464" d="M88 604q0 158 10.5 443.5t22.5 361.5q3 21 113 25q43 2 87 1q67 0 135 -4q111 -7 115 -14q3 -27 3 -73q0 -36 -2 -84q-4 -108 -12.5 -307.5t-8.5 -288.5q0 -142 40 -199t132 -57q98 0 134 63.5t36 183.5q0 133 -9.5 451.5t-9.5 325.5q20 14 250 22q83 3 137 4 q94 0 97 -10q6 -25 11 -330t5 -495q0 -96 -12 -176.5t-40 -157t-77 -135t-118.5 -103t-169.5 -67.5t-226 -23q-154 0 -270.5 35.5t-201 111t-128 200t-43.5 296.5z" />
<glyph unicode="V" horiz-adv-x="1392" d="M0 1407q8 16 128 30t220 16q29 1 51 1q56 0 72 -4q14 -25 101 -396.5t112 -506.5q2 0 6 1t6 1q23 123 102.5 451t114.5 446q5 3 39 3q58 -1 202 -9q228 -14 235 -33q-24 -124 -215 -761t-205 -646q-13 -10 -253 -16q-108 -3 -175 -2q-82 0 -103 4q-4 1 -102 297 t-206.5 650t-129.5 474z" />
<glyph unicode="W" horiz-adv-x="1945" d="M37 1393q9 12 56 23.5t106.5 19.5t122 14t100.5 6t43 -4q11 -52 51 -347.5t57 -477.5h9q44 203 113.5 462.5t103.5 344.5q24 6 135 6h60q166 -2 177 -13q12 -17 85.5 -325.5t107.5 -483.5q1 0 4 -1t4 -1q14 152 59.5 438.5t67.5 387.5q12 1 28 1q72 0 221 -19 q181 -23 181 -39q1 -61 -123 -671q-124 -615 -153 -712q-5 -19 -109 -25q-66 -4 -132 -4q-40 -1 -78 1q-106 4 -136 10q-30 68 -98 308t-121 466h-12q-62 -254 -126 -486t-87 -272q-22 -18 -198 -18h-29q-203 2 -244 12q-15 7 -133 679t-113 720z" />
<glyph unicode="X" horiz-adv-x="1316" d="M2 85q0 17 128 275q132 264 196 375l-202 382q-99 194 -99 210q1 21 199 80q170 50 209 50q7 0 9 -1q5 -3 40 -69.5t83.5 -169.5t81.5 -187h12q23 44 57.5 112t60 117t50.5 97.5t40.5 74t19.5 25.5q25 0 216.5 -55t192.5 -74q0 -15 -76 -161q-77 -148 -154 -290l-77 -141 q67 -115 200 -367q130 -247 130 -263v-1q-4 -15 -200 -73q-170 -50 -234 -50q-10 0 -17 1q-14 2 -213 419h-12q-194 -417 -203 -419q-9 -1 -21 -1q-65 0 -224 40q-193 49 -193 64z" />
<glyph unicode="Y" horiz-adv-x="1296" d="M204 1407q170 50 209 50q6 0 9 -1q5 -3 45 -85t93.5 -199.5t86.5 -202.5h12q36 69 99 199t103 209t46 79q25 0 217 -55t193 -74v0q0 -31 -443 -784q4 -183 4 -305q0 -195 -10 -236q-5 -20 -120 -22q-26 -1 -52 -1q-89 0 -176 7q-113 8 -114 16q-2 21 -2 78q0 133 10 463 q-11 22 -63 117t-107 198t-111.5 209.5t-92.5 178.5q-36 71 -36 81q0 21 200 80z" />
<glyph unicode="Z" horiz-adv-x="1189" d="M61 288q0 38 -0.5 58t0.5 23q3 6 218 304.5t260 358.5l2 10h-461q-8 2 -18 192q-4 75 -4 123q0 71 10 75q18 8 517 10q277 1 404 1q101 0 105 -1q6 -2 23 -182q13 -133 13 -179q0 -16 -2 -22q-1 -4 -106.5 -153t-223 -312t-145.5 -195v-8q29 2 129 2q50 -1 118 -1 q204 -2 224 -9q6 -2 6 -109v-78q-2 -184 -12 -190q-12 -9 -522 -12q-128 -1 -224 -1q-288 0 -290 7q-9 31 -14.5 121.5t-6.5 166.5z" />
<glyph unicode="[" horiz-adv-x="745" d="M92 1456l625 10q1 0 2.5 -64t2 -120t-2.5 -68q-4 -4 -136 -9t-159 -5q-13 0 0 -1234v-5l289 -8q2 -258 -6 -262q-2 -1 -47.5 0t-112 2.5t-144.5 4t-143.5 4.5t-110.5 4l-45 1z" />
<glyph unicode="\" horiz-adv-x="915" d="M35 1436q0 4 58.5 28.5t116.5 47.5l58 22q3 -3 308 -737t305 -738q0 -5 -98 -62t-121 -63q-21 -5 -324 740t-303 762z" />
<glyph unicode="]" horiz-adv-x="729" d="M26.5 1278q0.5 56 2 120t2.5 64l624 -6q-51 -1749 -53 -1749q-553 0 -561 4q-2 1 -3.5 28.5t-2 66t-0.5 76.5v64v27q18 -1 48 -2.5t93.5 -4.5t105.5 -4.5t42 -0.5v5q13 1234 0 1234q-39 0 -165 3t-130 7q-3 12 -2.5 68z" />
<glyph unicode="^" horiz-adv-x="970" d="M47 930q-9 6 150.5 268.5t181.5 280.5q9 8 118.5 13t125.5 3q12 0 161 -276t140 -285q-11 -10 -99.5 -40t-97.5 -26q-7 3 -118 190.5t-113 188.5q-4 3 -120 -190.5t-116 -200.5q0 -4 -51 13t-104 37t-58 24z" />
<glyph unicode="_" horiz-adv-x="837" d="M82.5 -177q6.5 116 11.5 120q662 -9 662 -15q0 -209 -2 -215q-1 -4 -330.5 -8.5t-339.5 -1.5q-8 4 -1.5 120z" />
<glyph unicode="`" horiz-adv-x="819" d="M119 1309q-3 1 23.5 53t58.5 104.5t41 53.5q4 2 118.5 -57.5t227.5 -120.5l112 -60q-3 -7 -8 -18.5t-19.5 -41.5t-27.5 -53.5t-28 -44.5t-25 -24q-4 -1 -120.5 50.5t-234 105t-118.5 53.5z" />
<glyph unicode="a" horiz-adv-x="1024" d="M35 295q0 132 103.5 212.5t258.5 80.5q84 0 160 -39q0 1 1.5 13t1.5 20v22.5t-4 25t-9.5 24.5t-17 23.5t-27 18t-38.5 13t-52 4.5q-45 0 -87.5 -19.5t-68.5 -39t-31 -19.5q-15 0 -98.5 78t-83.5 98q0 11 16.5 37t53 61t85 66t122.5 52.5t155 21.5q95 0 179 -28t151 -82 t106 -141t39 -196q0 -171 -5.5 -377t-10.5 -215q-3 -5 -83.5 -5t-159.5 3l-79 2l-22 88q-3 -5 -10 -12.5t-30.5 -27t-51 -34.5t-72 -27.5t-92.5 -12.5q-152 0 -225.5 82t-73.5 229zM367 301q0 -35 24.5 -59.5t59.5 -24.5q41 0 63.5 23.5t22.5 60.5q0 35 -25.5 59.5 t-60.5 24.5q-38 0 -61 -24t-23 -60z" />
<glyph unicode="b" horiz-adv-x="1232" d="M60 1260v45q0 203 22 223q30 26 134 28q12 0 24 1q91 -1 170 -11q90 -12 98 -18q5 -4 10.5 -150.5t8.5 -291.5l3 -144q4 4 12 10.5t34.5 23.5t54.5 30t72 23.5t88 10.5q73 0 141.5 -28.5t128 -85t95.5 -155t36 -224.5q0 -142 -36 -254t-97 -179.5t-136 -102t-159 -34.5 q-75 0 -149.5 29t-112.5 58l-37 28q2 -44 2 -71q0 -40 -4 -41q-29 -9 -179 -12q-50 -1 -84 -1q-68 0 -71 4q-4 4 -20 238.5t-31.5 520.5t-17.5 530zM500 516q0 -69 42.5 -115.5t108.5 -46.5q80 0 122 45.5t42 116.5q0 69 -48 116.5t-116 47.5q-75 0 -113 -45.5t-38 -118.5z " />
<glyph unicode="c" horiz-adv-x="989" d="M35 520q0 99 40 192t110.5 165.5t177.5 116.5t231 44q102 0 191 -22.5t131.5 -46t46.5 -37.5q1 -3 1 -9q0 -35 -34 -163q-39 -148 -68 -160q-3 -1 -38 20.5t-90 44.5t-103 23q-99 0 -151 -47.5t-52 -140.5q0 -55 17.5 -93.5t47.5 -57t59.5 -25.5t63.5 -7q35 0 80.5 15 t83 32t43.5 19h1q25 0 135 -226l3 -6l2.5 -5l2.5 -5q-39 -71 -143.5 -121.5t-223.5 -50.5q-117 0 -213 32.5t-160.5 86t-108.5 125.5t-63.5 149t-19.5 158z" />
<glyph unicode="d" horiz-adv-x="1267" d="M39 526q0 123 44 221.5t115 157.5t154 90t168 31q58 0 118 -21.5t91 -42.5l31 -22q-3 163 -3 281q0 302 17 313q20 12 199 18q44 1 79 1q110 0 140 -13q1 0 0 -43q0 -139 -9 -727q-13 -769 -18 -774q-4 -4 -74 -10q-57 -5 -128 -6h-33q-91 2 -135 20l-7 96 q-5 -4 -14.5 -11t-40.5 -24t-64.5 -30t-83.5 -24t-100 -11q-84 0 -163 35.5t-142.5 100.5t-102 167.5t-38.5 226.5zM475 512q0 -67 41.5 -112.5t106.5 -45.5q76 0 116.5 44t40.5 114q0 66 -46 112t-111 46q-73 0 -110.5 -44t-37.5 -114z" />
<glyph unicode="e" horiz-adv-x="1028" d="M37 492q0 106 33.5 203t96 174t161.5 123t221 46q138 0 243 -65t157 -166.5t52 -220.5q0 -104 -18 -166q-71 -10 -255 -12q-102 -1 -185 -1q-66 0 -119 1q0 -119 180 -119q109 0 221 57q19 -22 70.5 -132t52.5 -134q-48 -43 -149.5 -77t-214.5 -34q-117 0 -211 29.5 t-156 79t-103 117.5t-59 142t-18 155zM420 629l229 4q0 56 -25.5 94.5t-74.5 38.5q-58 0 -93.5 -37.5t-35.5 -99.5z" />
<glyph unicode="f" horiz-adv-x="845" d="M10 993q4 5 50 12.5t89.5 12.5t43.5 6l-1 10q0 11 -1 28.5t-2.5 39t-2 48.5t-0.5 52q0 62 24.5 122t70 109.5t119.5 80t165 30.5q125 0 216 -33.5t137 -70.5q-7 -51 -39 -169.5t-43 -119.5h-3q-15 0 -63 17q-53 20 -84 20q-55 0 -78.5 -33.5t-25.5 -77.5q0 -9 1 -22 t1 -15q6 -2 65.5 -2t116.5 -4.5t63 -17.5q6 -110 6 -179q0 -87 -10 -106q-5 -9 -117 -14q-70 -3 -99 -3l-19 1q-1 0 6 -175q6 -177 11 -356q3 -100 3 -146q0 -36 -2 -38q-9 -9 -202 -14q-61 -2 -104 -2q-95 0 -105 8q-3 3 -5.5 35t-4 81.5t-2 113t-0.5 127.5v128.5v112.5 t0.5 82t0.5 35q-6 1 -43.5 1t-73 0.5t-38.5 2.5q-6 3 -17 138q-7 83 -7 118q0 23 3 26z" />
<glyph unicode="g" horiz-adv-x="1263" d="M39 492q0 120 43 222t113 168t155.5 103t173.5 37q85 0 159.5 -28t125.5 -72l6 96q20 15 107 17q23 1 45 1q61 0 117 -4q77 -6 81 -10q3 -3 10 -332t9 -481v-25q0 -106 -16 -196q-17 -99 -47 -168t-74.5 -122t-92 -84t-105.5 -50t-108.5 -26t-107.5 -7q-175 0 -308 52 t-159 98q17 60 54.5 141t68.5 125q1 2 14.5 -5t39 -19.5t58 -25.5t79.5 -22.5t95 -9.5q109 0 159 69q46 66 46 167v12l-1 -2q-65 -81 -195 -99q-31 -4 -64 -4q-60 0 -124 17t-128.5 55.5t-115 93t-82 137.5t-31.5 181zM475 489q0 -70 37.5 -113.5t110.5 -43.5q65 0 111 45.5 t46 111.5q0 70 -40.5 114t-116.5 44q-65 0 -106.5 -45.5t-41.5 -112.5z" />
<glyph unicode="h" horiz-adv-x="1230" d="M86 769q-1 196 -1 341q0 416 7 424q8 6 104 16q70 7 139 7q26 -1 52 -1q96 -4 100 -28q3 -20 3 -92t-3 -198q-6 -250 -12 -300q42 49 100 77.5t154 28.5q218 0 324 -123t106 -333q0 -117 -11.5 -345.5t-19.5 -238.5t-198 -14q-101 -2 -150 -2q-43 0 -45 2q-3 31 -3 104 v26q0 94 2.5 250t2.5 171q0 58 -28 105.5t-86 47.5q-60 0 -93.5 -41t-33.5 -92q0 -111 -3 -336t-8 -229q-3 -4 -98 -4h-95q-190 2 -196 12t-10 765z" />
<glyph unicode="i" horiz-adv-x="579" d="M86 508q-2 190 -2 311q0 197 6 209q10 12 139 12h67q194 -4 202 -12q2 -2 2 -56q0 -114 -8 -454q-12 -504 -19 -514q-7 -9 -171 -9q-9 1 -19 1q-183 0 -187 6t-10 506zM92 1346q0 105 44 161t163 56q97 0 156 -62.5t59 -169.5q0 -78 -60.5 -131t-154.5 -53t-150.5 52 t-56.5 147z" />
<glyph unicode="j" horiz-adv-x="583" d="M-47 -215l15 10q14 10 34.5 31t41 50.5t34.5 77.5q14 46 14 98v7q0 83 -1.5 245t-2.5 268q-1 70 -1 145q0 37 1 76q0 116 2.5 175t7.5 60q69 10 137 10q24 0 47 -2q92 -4 157.5 -13.5t70.5 -14.5v-11q0 -31 -4 -150q-6 -159 -13.5 -408t-7.5 -416q0 -87 -18 -160 t-46 -123t-70 -90.5t-83.5 -65.5t-91.5 -45h-3q-11 0 -53 27q-47 30 -100.5 92t-66.5 127zM100 1378q0 78 60.5 131.5t154.5 53.5t150.5 -52t56.5 -147q0 -105 -44 -161t-163 -56q-97 0 -156 62t-59 169z" />
<glyph unicode="k" horiz-adv-x="1159" d="M82 754q-8 338 -8 529q0 237 12 251q28 18 175 18h31q175 -2 193 -10q4 -21 4 -102q1 -46 -1 -114q-4 -184 -12 -396l-7 -213q347 354 367 354q18 0 156 -85q139 -86 138 -105q0 -14 -68 -86q-69 -73 -138 -140l-70 -67l228 -373q87 -146 87 -156q1 -9 -79 -41 q-78 -32 -172 -60q-77 -22 -117 -22q-9 0 -15 1q-7 1 -64 112q-58 111 -114 221q-56 109 -63 109q-6 0 -22 -14q-15 -13 -27 -26l-11 -13l11 -349h-54q-314 0 -329 11q-14 11 -31 766z" />
<glyph unicode="l" horiz-adv-x="565" d="M87 373q-1 120 -1 240q0 260 4 523q6 384 20 398q16 14 108 18q49 2 96 3q42 0 84 -2q88 -4 91.5 -11t3.5 -128q0 -174 -9 -590q-14 -702 -23 -847h-51q-297 0 -312 11q-8 6 -11 385z" />
<glyph unicode="m" horiz-adv-x="1775" d="M83 565q-1 90 -1 182q0 137 2 277q14 15 112 15q38 0 86 -2q178 -8 197 -23q-4 -96 -6 -107q22 30 41 50t52.5 42.5t83 33.5t114.5 11q84 0 142.5 -34.5t105.5 -102.5q79 137 311 137q99 0 172.5 -33.5t117.5 -95.5t65.5 -143.5t21.5 -183.5q0 -108 -5 -310.5t-9 -273.5 q-1 -12 -194 -16q-79 -1 -127 -1q-68 0 -69 3q-3 31 -3 104q1 12 1 26q0 94 2 250t2 171q0 81 -19 117t-79 36q-31 0 -53 -14.5t-32.5 -38.5t-14.5 -47t-4 -49q0 -365 -11 -541q-2 -10 -133 -10h-60q-190 2 -196 8q-3 31 -3 102q1 12 1 25q0 91 2 244t2 168q0 81 -19 117 t-79 36q-59 0 -87 -40t-29 -93q0 -557 -9 -565q-3 -4 -96 -4h-93q-186 2 -192 12q-2 4 -5.5 169.5t-5.5 391.5z" />
<glyph unicode="n" horiz-adv-x="1216" d="M83 550q-1 88 -1 179q0 135 2 275q16 22 198 30q60 2 102 2q84 0 95 -10q-5 -114 -6 -119q98 137 311 137q168 0 262.5 -126t94.5 -330q0 -105 -5 -308.5t-10 -275.5q-2 -12 -194 -16q-79 -1 -126 -1q-67 0 -69 3q-3 31 -3 104v26q0 94 2.5 250t2.5 171q0 153 -118 153 q-61 0 -98.5 -41.5t-38.5 -91.5q0 -557 -9 -565q-3 -4 -96 -4h-93q-186 2 -192 12q-2 4 -5.5 164.5t-5.5 381.5z" />
<glyph unicode="o" d="M35 520q0 98 38.5 190.5t106.5 165t170.5 116.5t222.5 44q112 0 211.5 -38.5t173.5 -108t117 -174t43 -228.5q0 -97 -38 -188.5t-105.5 -164t-171 -117t-225.5 -46.5q-150 0 -273 65.5t-196.5 192t-73.5 291.5zM418 485q0 -70 42 -117t95 -49h10q77 0 121 43 q46 46 47 130q0 83 -40 122.5t-99 42.5h-13q-75 1 -117 -41q-46 -46 -46 -131z" />
<glyph unicode="p" horiz-adv-x="1271" d="M80 -446q-1 0 -1 78q0 90 1 285q4 362 11.5 732t14.5 389q11 2 52 2h48q85 -2 183 -6l98 -4l-4 -98q4 4 12.5 11t38 24t62 30t84 24t106.5 11q88 0 168 -35.5t142.5 -100.5t99.5 -167.5t37 -226.5q0 -99 -27.5 -185t-74 -146.5t-108 -103.5t-130.5 -64t-141 -21 q-58 0 -118 16.5t-91 32.5l-31 16q3 -133 3 -230q0 -247 -17 -257q-20 -12 -199 -18q-44 -1 -79 -1q-110 0 -140 13zM504 496q0 -65 44 -111.5t101 -46.5q71 0 115.5 45.5t44.5 112.5t-41 112t-106 45q-76 0 -117 -44t-41 -113z" />
<glyph unicode="q" horiz-adv-x="1236" d="M41 481q0 142 36 254t97 179.5t136 102t159 34.5q52 0 104 -12t89 -28.5t66.5 -33.5t44.5 -29l15 -12q15 88 21 90q7 2 167 8q84 2 125 2q38 0 40 -2q4 -4 7 -348q2 -257 2 -527v-182q-1 -366 -7 -419q-3 -21 -102 -22q-14 -1 -28 -1l-170 8q-99 9 -106 15q-5 4 -8.5 129 t-4.5 247l-1 123q-5 -3 -13.5 -7.5t-37 -16.5t-59 -21t-77.5 -16.5t-94 -7.5q-73 0 -141.5 28.5t-128 85t-95.5 155t-36 224.5zM438 508q0 -69 48 -116.5t116 -47.5q75 0 113.5 45.5t38.5 118.5q0 69 -42.5 115.5t-109.5 46.5q-80 0 -122 -45.5t-42 -116.5z" />
<glyph unicode="r" horiz-adv-x="858" d="M86 487q1 485 8 514q14 23 196 31q66 3 109 4q78 0 88 -10q0 -125 -2 -139q79 140 271 140q38 0 80 -5q15 -12 15 -68q1 -49 -11 -132q-26 -178 -56 -218q-82 23 -140 23h-13q-63 -1 -90.5 -37t-32.5 -103q-1 -8 -1 -34q0 -38 2 -115q3 -128 5 -222q1 -32 1 -56 q0 -47 -3 -62q-4 -8 -210 -8h-24q-182 0 -188 8q-4 3 -4 341v148z" />
<glyph unicode="s" horiz-adv-x="937" d="M41 57q-3 3 -3 12q0 21 15 73q21 74 49 141q27 65 36 65h1q6 -2 58 -29.5t116.5 -50t120.5 -22.5q82 0 82 43q0 22 -27 37.5t-110 29.5q-330 58 -330 318q0 178 109 274t309 96q127 0 255.5 -32t147.5 -54q3 -3 3 -12q1 -31 -39 -135q-50 -133 -66 -135q-2 0 -45 18 t-105.5 37t-109.5 19q-35 0 -53.5 -15t-18.5 -35q0 -19 24.5 -30.5t90.5 -20.5q195 -28 275.5 -100t80.5 -223q0 -57 -14.5 -109t-47.5 -99t-81.5 -81.5t-121 -55t-161.5 -20.5q-140 0 -278 36t-162 60z" />
<glyph unicode="t" horiz-adv-x="839" d="M30 804q-1 32 0 65q0 43 1 84q2 73 6 73h15q16 -1 33 -1h36t32 1.5t15 3.5q1 1 1 38q-1 28 -1 76v25q0 88 10 97q13 12 193 26q113 8 158 9q27 0 30 -3q4 -12 4 -51q-1 -11 -1 -25q-2 -62 -2 -132q-1 -42 -1 -58v-10l99 5q98 0 112 -21q9 -15 10 -86v-35q0 -52 -2 -100 l-4 -64q-6 -12 -62 -14.5t-108.5 -3t-52.5 -7.5q0 -3 -0.5 -52.5t-1 -117t0.5 -112.5q0 -38 22.5 -61t58.5 -23q31 0 73.5 19.5t55.5 17.5q20 -3 50 -121.5t32 -167.5q-3 -4 -10 -11t-33 -25.5t-58.5 -32t-89 -25t-121.5 -11.5q-187 0 -285 90t-98 252q0 25 0.5 74.5 t1.5 103.5t2.5 104t2.5 83v33q0 1 -27 1t-56.5 2t-33.5 7q-5 5 -7 81z" />
<glyph unicode="u" horiz-adv-x="1200" d="M72 430q0 200 24 584q2 12 194 16q79 1 126 1q67 0 69 -3q2 -1 1 -32q0 -32 -1 -92q-3 -122 -7.5 -262.5t-4.5 -164.5q0 -153 119 -153q60 0 92.5 40.5t32.5 92.5q0 88 4.5 324.5t9.5 240.5q3 4 96 4h93q186 -2 192 -12q2 -2 2 -151v-187q-2 -334 -6 -662 q-17 -20 -155 -20h-33q-168 2 -187 18q0 12 0.5 28t-0.5 36q-1 41 0 47q-40 -58 -114 -105t-183 -47q-364 0 -364 459z" />
<glyph unicode="v" horiz-adv-x="1144" d="M191.5 1020.5q171.5 30.5 197.5 30.5q10 0 53 -150.5t81 -300.5l38 -151q217 606 227 608h1q9 0 101 -18q96 -19 190 -41t94 -27q-14 -59 -119 -303t-204.5 -460t-105.5 -222q-23 -9 -91 -9h-26q-90 2 -190.5 8.5t-101.5 8.5q-3 6 -81 235t-157 475q-78 243 -78 274 q0 12 171.5 42.5z" />
<glyph unicode="w" horiz-adv-x="1658" d="M194 1020.5q171 30.5 197 30.5q9 0 42.5 -150.5t62.5 -300.5l30 -151q24 71 87.5 227t70.5 182q-43 125 -43 148q19 16 169 30q82 8 127 7q36 0 46 -5q8 -4 43 -142.5t70.5 -291.5t36.5 -155q3 10 44.5 163.5t82 298.5t43.5 146h1q9 0 95 -18q91 -19 180 -41 q88 -22 88 -27q-20 -89 -168.5 -532.5t-157.5 -452.5q-22 -9 -88 -9h-25q-88 2 -183.5 8.5t-96.5 8.5q-1 1 -16 52.5t-41.5 155t-50.5 210.5q-34 -100 -75 -205t-64.5 -160.5t-26.5 -60.5q-21 -9 -87 -9h-26q-88 2 -184.5 8.5t-97.5 8.5q-2 4 -65.5 234.5t-127.5 476.5 q-63 242 -63 273q0 12 171 42.5z" />
<glyph unicode="x" horiz-adv-x="1118" d="M98 224q85 145 178 284q-37 74 -106 200q-68 126 -110 204q-41 77 -40 91v1q0 7 177 28t202 21q14 0 72 -119.5t84 -179.5q8 19 86 161t84 142h1q10 -1 102 -13l196 -28q96 -15 96 -19q-16 -50 -96.5 -195.5t-167.5 -275.5q16 -34 58 -120.5t65 -135t52 -111.5 t42.5 -97.5t13.5 -43.5q0 -7 -175.5 -28t-200.5 -21q-16 0 -81.5 139.5t-74.5 170.5q-153 -306 -162 -306h-1q-10 1 -102 13l-196 28q-96 15 -96 19q0 20 100 191z" />
<glyph unicode="y" horiz-adv-x="1118" d="M192.5 1020q180.5 31 206.5 31q13 0 79.5 -230.5t82.5 -296.5q11 35 100 283.5t95 249.5h1q9 0 100 -18q96 -19 191 -41q93 -22 93 -27v0q-14 -60 -165.5 -417t-299 -687t-154.5 -330h-6q-68 0 -206 59q-145 61 -169 87q181 384 189 423q-70 138 -195 485 q-123 342 -123 387q0 11 180.5 42z" />
<glyph unicode="z" horiz-adv-x="944" d="M54 874q6 144 20 150q14 4 404 10q298 5 370 4h24q5 -2 15 -132q7 -93 7 -127q0 -13 -1 -17q-1 -2 -94 -115.5t-184 -226t-91 -115.5q30 6 178 10q33 1 61 1q95 0 118 -11q3 -4 3 -57q0 -38 -2 -100q-4 -152 -10 -158q-6 -3 -142 -3q-95 -1 -254 1q-385 4 -394 6 q-3 2 -11 60t-12 120q-2 25 -2 47q0 32 4 55l365 435q-7 -1 -19 -2t-47 -3.5t-67 -3.5q-33 -2 -73 -3q-20 0 -38 -0.5t-33 0.5q-31 1 -55 5t-31 11q-11 11 -11 87q0 30 2 72z" />
<glyph unicode="{" horiz-adv-x="671" d="M-1.5 638.5q1.5 68.5 7.5 68.5q45 0 68 0.5t54 2.5t45.5 6t31.5 11.5t24 19t12 28t5 38.5q0 14 -23.5 141t-23.5 179q0 94 32.5 163.5t92 110t136.5 59.5t173 19q11 -25 14 -85t-1 -109.5t-11 -49.5q-91 0 -142 -31t-51 -116q0 -35 28 -150.5t28 -163.5q0 -74 -58 -132 t-118 -68v-7q28 -9 55.5 -23t56.5 -36.5t46.5 -56t17.5 -72.5q0 -66 -34 -176.5t-34 -159.5q0 -76 40.5 -101.5t150.5 -25.5q4 -19 5 -78t0 -110t-3 -51q-236 0 -358 71t-122 238q0 49 31 153t31 179q0 27 -9 47t-27 31t-34.5 18.5t-43 10t-39.5 3t-36 0.5q-9 0 -14 68 t-3.5 136.5z" />
<glyph unicode="|" horiz-adv-x="366" d="M92 1509q8 11 53 14.5t86 2t41 -3.5v-1964l-95 -15q-59 -7 -62 4q-5 17 -17.5 985.5t-5.5 976.5z" />
<glyph unicode="}" horiz-adv-x="669" d="M31 -232q-3 60 1 109t11 49q90 0 138 31.5t48 116.5q0 35 -27.5 150t-27.5 163q0 74 58 132.5t118 68.5v6q-28 9 -55.5 23t-56.5 36.5t-46.5 56t-17.5 72.5q0 66 34 176.5t34 159.5q0 76 -40.5 101.5t-150.5 25.5q-4 19 -5 78.5t0 110.5t3 51q236 0 357.5 -71t121.5 -238 q0 -49 -30.5 -153t-30.5 -179q0 -27 9 -47t27 -31.5t34.5 -18.5t42.5 -10t39.5 -3.5t35.5 -0.5q9 0 14 -68t4 -136t-7 -68q-62 0 -92.5 -1t-65 -6.5t-49 -17t-24 -31.5t-9.5 -51q0 -14 23.5 -140.5t23.5 -178.5q0 -94 -31.5 -163.5t-90 -110t-134.5 -59.5t-172 -19 q-11 25 -14 85z" />
<glyph unicode="~" horiz-adv-x="1128" d="M51 711q0 4 16 21t47 41t69 46.5t88.5 38.5t99.5 16q53 0 110 -28t97.5 -61t91 -61t92.5 -28q27 0 54 10t44 20.5t38 31.5t26 27t18 22q11 -5 46 -42t64 -71.5t29 -36.5q0 -3 -16 -24t-47.5 -52t-71.5 -60.5t-95.5 -50.5t-111.5 -21q-55 0 -106 18t-88.5 43.5t-71.5 51 t-68.5 43.5t-66.5 18q-26 0 -52 -8.5t-46 -21t-34.5 -24.5t-25.5 -23l-12 -11q-2 -2 -15 14t-30 41.5t-33 51.5t-27.5 46t-11.5 23z" />
<glyph unicode="&#xa1;" horiz-adv-x="604" d="M53 786q0 59 10 101.5t35 78.5t74 54t121 18q112 0 181 -71.5t69 -196.5q0 -90 -70.5 -151.5t-179.5 -61.5q-110 0 -175 59.5t-65 169.5zM57 -422q2 137 18 272t37.5 229.5t45.5 174t39 117.5t22 49q13 15 83.5 11.5t78.5 -11.5q3 -3 21.5 -49t45.5 -130.5t52 -183 t43 -222.5t18 -234q-39 -18 -250 -28t-254 5z" />
<glyph unicode="&#xa2;" horiz-adv-x="1044" d="M47 520q0 99 40 192t110.5 165.5t177.5 116.5t231 44q55 0 113 -10l35 102q8 8 41 0.5t71 -20.5l37 -14l-37 -107q54 -21 89.5 -44t39.5 -34q6 -23 -43 -161t-78 -150q-3 -1 -18.5 7t-45 23.5t-54.5 26.5l-113 -338q34 4 76.5 18.5t76.5 29t40 16.5q4 1 10.5 -4.5 t14.5 -17t16.5 -25t19 -33t19 -35t19.5 -37.5t17 -35t15 -31.5t12 -23.5q-39 -71 -143.5 -121.5t-223.5 -50.5q-44 0 -84 6l-49 -151l-87 22q-42 13 -40 21l43 135q-118 39 -198.5 124.5t-115 184.5t-34.5 209zM430 500q0 -113 74 -156l106 344q-88 -5 -134 -52.5 t-46 -135.5z" />
<glyph unicode="&#xa3;" horiz-adv-x="1132" d="M59.5 697q-3.5 78 1.5 81l127 -2q-36 208 -36 297q0 98 38.5 173.5t105.5 121t151 68t180 22.5q89 0 168 -20.5t129.5 -50.5t88 -63t54 -57.5t16.5 -35.5q0 -29 -86.5 -139t-148.5 -144q-2 4 -5.5 10.5t-16.5 24t-29.5 30.5t-44.5 23.5t-60 10.5q-40 0 -66 -30t-26 -85 q0 -49 23 -162l221 -2q3 -1 3.5 -67t-1.5 -70q-1 -1 -22 -0.5t-65 1t-112 -0.5q15 -167 -67 -240q2 0 123 2t208 0.5t113 -8.5q14 -49 19.5 -143.5t3.5 -166.5t-7 -75q-7 -5 -469.5 1.5t-478.5 2.5q-4 -1 -5.5 11t-1.5 33t1 46t3 53t4 51t3.5 42.5t1.5 25.5q89 27 112 119 t3 236q-10 0 -143 -5q-7 3 -10.5 81z" />
<glyph unicode="&#xa4;" horiz-adv-x="1069" d="M51 930q6 6 38 47t59.5 74.5t31.5 29.5l105 -118q101 59 250 59q129 0 227 -64l141 132q117 -122 119 -140q3 -17 -125 -155q29 -79 29 -164q0 -151 -76 -258q130 -139 129 -140q-3 -3 -32 -29.5t-65.5 -58.5t-47.5 -39q-12 -8 -62 39t-98 101q-62 -21 -139 -21 q-101 0 -181 27q-49 -52 -94.5 -91t-54.5 -28q-5 7 -39.5 45.5t-59 68.5t-20.5 32l100 94q-67 98 -67 260q0 100 31 176q-111 107 -99 121zM375 616q0 -73 50 -119t105 -46q68 0 107 42.5t39 122.5q0 73 -37 126t-109 53q-80 0 -117.5 -51t-37.5 -128z" />
<glyph unicode="&#xa5;" horiz-adv-x="1396" d="M45 1327q1 21 200 80t218 49q5 -3 45 -85t93.5 -199.5t86.5 -202.5h12q36 69 99 199t103 209t46 79q25 0 217 -55t193 -74q2 -22 -393 -702l186 -2q0 -6 -6.5 -70t-7.5 -68q-78 -4 -219 -8v-104l245 2q3 -1 3.5 -67t-1.5 -70q-1 -1 -24.5 -2t-91 -3t-131.5 -4 q0 -187 -9 -227q-5 -20 -120 -22.5t-228.5 6t-114.5 16.5q-5 58 -2 213l-227 -8q-7 3 -10 81t2 81l240 2l4 102q-171 0 -265 2q-7 3 -0.5 81t11.5 81l207 -4q-363 667 -361 694z" />
<glyph unicode="&#xa6;" horiz-adv-x="366" d="M96 1138.5q-1 361.5 8 370.5q8 11 49 14.5t78 2t37 -3.5v-738q-12 -2 -29 -4.5t-63.5 -7t-64.5 1.5q-14 3 -15 364.5zM100.5 -74q-5.5 362 1.5 373q8 11 48 13t76 -1.5t36 -5.5l6 -747l-95 -15q-59 -7 -62 4q-5 17 -10.5 379z" />
<glyph unicode="&#xa7;" horiz-adv-x="1261" d="M59 -188q-5 17 22.5 95t61.5 148t47 66q37 -11 115.5 -42.5t141.5 -48t128 -16.5q140 0 140 58q0 20 -13 33.5t-62 29.5t-140 31q-209 34 -319.5 117t-110.5 227q0 181 149 270q-149 104 -149 299q0 164 153 274.5t424 110.5q162 0 303.5 -29t208.5 -69q20 -13 -49 -160 t-88 -149q-4 -1 -56.5 16.5t-141 37t-169.5 19.5q-131 0 -131 -49q0 -34 39 -50.5t172 -39.5q81 -14 143.5 -30.5t127 -45t106 -64t68 -89.5t26.5 -121q0 -81 -47.5 -151.5t-132.5 -116.5q180 -111 180 -279q0 -54 -19.5 -107t-66 -105t-115 -91t-174.5 -63.5t-237 -24.5 q-158 0 -308 35t-227 74zM453 606q0 -53 74 -84t231 -49q39 17 39 74q0 59 -78.5 94.5t-218.5 44.5q-20 -12 -33.5 -35t-13.5 -45z" />
<glyph unicode="&#xa8;" horiz-adv-x="1024" d="M100 1309q-1 81 47.5 131.5t120.5 50.5q71 0 126 -52.5t55 -121.5q0 -79 -38.5 -133t-121.5 -54q-89 0 -137.5 47.5t-51.5 131.5zM575 1309q-1 81 48 131.5t120 50.5t126 -52.5t55 -121.5q0 -79 -38.5 -133t-121.5 -54q-90 0 -138.5 47.5t-50.5 131.5z" />
<glyph unicode="&#xa9;" horiz-adv-x="1716" d="M51 686q0 170 42.5 308.5t118.5 235t183 162t232.5 96t269.5 30.5q165 0 303.5 -53.5t241.5 -154.5t161 -258.5t58 -355.5q0 -117 -28 -227t-89.5 -210t-150.5 -174.5t-220.5 -118.5t-289.5 -44q-181 0 -335 54.5t-264 153t-171.5 241.5t-61.5 315zM217 686 q0 -145 54.5 -264t147 -195.5t212.5 -117.5t254 -41q123 0 231 37.5t194 111t136.5 195t50.5 276.5q0 102 -22.5 198t-71 182.5t-117.5 151t-168.5 102.5t-218.5 38q-147 0 -264 -37t-194 -99.5t-128.5 -150t-73.5 -183.5t-22 -204zM438 729q0 187 128.5 307.5t342.5 120.5 q103 0 181.5 -25t107.5 -57q0 -26 -36.5 -118t-61.5 -113q-108 55 -187 55q-81 0 -132.5 -48.5t-51.5 -131.5q0 -182 172 -182q22 0 44 4t37.5 9t32.5 13.5t26 14t21.5 14.5t14.5 10q30 -18 125 -205q-44 -53 -134 -87t-196 -34q-109 0 -193.5 35.5t-136 98t-78 143 t-26.5 176.5z" />
<glyph unicode="&#xaa;" horiz-adv-x="833" d="M37 748q0 106 85.5 171.5t213.5 65.5q81 0 141 -37q3 58 -7 83q-26 60 -122 61q-41 0 -78 -16.5t-58.5 -33t-25.5 -16.5q-11 0 -75 59.5t-64 73.5q0 9 13.5 29.5t42.5 48t68 51.5t98 41t124 17q106 0 190.5 -38t137.5 -120.5t53 -198.5q0 -132 -4.5 -296.5t-7.5 -172.5 q-2 -4 -63 -4t-121 2l-60 2l-16 70q-1 0 -11 -10t-27.5 -23t-41.5 -26t-59.5 -22t-73.5 -9q-127 0 -189.5 66.5t-62.5 181.5zM289 754q0 -32 24.5 -54t61.5 -22q43 0 65.5 21t22.5 55q0 32 -25.5 53.5t-62.5 21.5q-38 0 -62 -22t-24 -53z" />
<glyph unicode="&#xab;" horiz-adv-x="1073" d="M37 616q0 9 172 246.5t180 243.5q6 4 64.5 -38.5t58.5 -47.5q0 -2 -98 -192.5t-97 -194.5q1 -3 107 -212.5t106 -215.5q0 -7 -71 -66t-74 -57q-4 2 -176 263.5t-172 270.5zM522 616q0 9 172 246.5t180 243.5q6 4 64.5 -38.5t58.5 -47.5q0 -2 -97.5 -192.5t-96.5 -194.5 q1 -3 107 -212.5t106 -215.5q0 -7 -71.5 -66t-74.5 -57q-4 2 -176 263.5t-172 270.5z" />
<glyph unicode="&#xac;" horiz-adv-x="1052" d="M59.5 669q1.5 52 3.5 52q31 7 893 22l5 -534q0 -9 -106 -23t-107 -4q-15 105 -15 324q-184 -9 -379.5 -7.5t-285.5 13.5q-6 1 -8 53t-0.5 104z" />
<glyph unicode="&#xad;" horiz-adv-x="833" d="M76.5 649.5q0.5 59.5 3.5 71.5q9 5 337 15.5t331 0.5q5 -36 3 -103t-7.5 -132.5t-8.5 -65.5l-66 -2q-66 -2 -152.5 -4t-181.5 -4t-153.5 -2t-68.5 2q-17 13 -27 88.5t-9.5 135z" />
<glyph unicode="&#xae;" horiz-adv-x="1081" d="M51 1122q0 159 69 273t181 168.5t252 54.5q212 0 344.5 -127t132.5 -352q0 -97 -28.5 -182.5t-84 -155.5t-149 -111t-213.5 -41q-227 0 -365.5 124t-138.5 349zM195 1114q0 -156 107 -248t259 -92q142 0 230 85.5t88 254.5q0 72 -18 136t-54.5 118t-99.5 85.5t-146 31.5 q-100 0 -173 -30t-114 -83t-60 -117t-19 -141zM353.5 1130q2.5 195 6.5 240q68 6 170 6q215 0 215 -164q0 -94 -77 -129q22 -27 45.5 -60.5t36.5 -54.5t12 -22q-7 -9 -59.5 -29.5t-71.5 -19.5q-1 0 -16.5 24.5t-42.5 65.5t-50 72h-20q-1 -24 -1.5 -60t-1 -59t-1.5 -31 q-8 -2 -75 -4t-69 2q-3 28 -0.5 223zM510 1171q8 -2 33 -2q53 0 53 39q0 21 -12.5 31t-46.5 10h-25q0 -55 -2 -78z" />
<glyph unicode="&#xaf;" horiz-adv-x="1024" d="M153.5 1264q1.5 111 8.5 114q9 5 355.5 13t352.5 -2q3 -12 -2.5 -116t-9.5 -104q-2 0 -345 -8t-351 -8q-10 0 -8.5 111z" />
<glyph unicode="&#xb0;" horiz-adv-x="761" d="M35 1133q0 89 28 154.5t78 104t112.5 56.5t139.5 18q148 0 242 -90t94 -246q0 -69 -20 -130t-59 -111t-105.5 -79.5t-151.5 -29.5q-167 0 -262.5 86t-95.5 267zM254 1116q0 -62 44 -101.5t91 -39.5q58 0 92.5 36.5t34.5 104.5q0 64 -32 110t-95 46q-70 0 -102.5 -44.5 t-32.5 -111.5z" />
<glyph unicode="&#xb1;" horiz-adv-x="1128" d="M53 883l398 6v393q98 15 225 -2v-373h389q2 -195 -8 -205q-6 -6 -183.5 -19t-181.5 -15q-4 -3 -8 -236q-9 -2 -39.5 -7t-41.5 -7t-36 -4.5t-39.5 -2t-34 2.5t-36.5 8q-13 257 -15 258t-180 -5.5t-184 -0.5q-5 5 -12 57t-11 102t-2 50zM96 301q29 1 78.5 2.5t184.5 4.5 t250.5 4.5t240 0.5t188.5 -6q2 -195 -8 -205l-909 -10q-5 5 -12 57t-11 102t-2 50z" />
<glyph unicode="&#xb2;" horiz-adv-x="796" d="M41 1477q0 8 12.5 25t41 40t67 43.5t100 34.5t131.5 14q151 0 247.5 -80.5t96.5 -224.5q0 -73 -36.5 -146.5t-93 -137t-152.5 -150.5l2 -6l264 8q8 -8 9.5 -78.5t-2.5 -137t-11 -65.5q-24 -3 -326.5 -4.5t-312.5 2.5q-7 5 -21 103t-10 125q44 46 122 120t124.5 119.5 t84.5 99t38 89.5q0 32 -21.5 55t-62.5 23q-84 0 -135 -68q-24 16 -90 98t-66 99z" />
<glyph unicode="&#xb3;" horiz-adv-x="808" d="M25 727q-3 17 55 102.5t88 98.5q64 -64 174 -64q54 0 79 22.5t25 51.5q0 70 -124 70q-10 0 -56.5 -1t-56.5 -1q-14 20 -15.5 125.5t15.5 115.5q14 0 64.5 -1t64.5 -1q98 0 98 62q0 32 -27 48.5t-69 16.5q-37 0 -75.5 -16t-59.5 -35q-17 0 -162 180q125 133 342 133 q153 0 249.5 -74.5t96.5 -201.5q0 -87 -40.5 -145.5t-86.5 -84.5v-8q18 -3 42.5 -17t50.5 -39t43.5 -66.5t17.5 -90.5q0 -76 -30.5 -136t-83.5 -97t-120 -56.5t-143 -19.5q-127 0 -217.5 39.5t-138.5 89.5z" />
<glyph unicode="&#xb4;" horiz-adv-x="1024" d="M219 1282l459 238q9 -1 41 -53.5t58.5 -104.5t23.5 -53q-1 0 -118.5 -53.5t-234 -105t-120.5 -50.5q-16 5 -43 50.5t-47 88.5z" />
<glyph unicode="&#xb5;" horiz-adv-x="1210" d="M82 430q0 200 24 584q1 12 194 15.5t196 -1.5q3 -2 -0.5 -123.5t-8 -262.5t-4.5 -165q0 -153 119 -153q60 0 92.5 40.5t32.5 92.5q0 88 4.5 324.5t9.5 240.5q4 6 189.5 3.5t191.5 -11.5q3 -3 1.5 -337.5t-5.5 -662.5q-19 -22 -187.5 -19.5t-187.5 17.5q1 23 0 64t0 47 q-41 -61 -74 -88q-74 -62 -173 -62h-23l-14 -409q-361 -10 -363 10q-14 152 -14 856z" />
<glyph unicode="&#xb6;" horiz-adv-x="1443" d="M41 965q-1 95 20 169.5t63 123.5t94 82.5t121.5 51t135.5 24.5t146 7h221l-45 -1693l-215 -8q-75 -1 -80 4q-5 122 -3 312.5t7 367.5l4 178q-63 0 -125 12t-124.5 40.5t-110 71t-78 109t-31.5 148.5zM1018 -274l31 1693q261 -4 268 -6q5 -2 1 -386.5t-8 -757.5t3 -539 l-215 -8q-76 -1 -80 4z" />
<glyph unicode="&#xb7;" horiz-adv-x="591" d="M45 594q0 123 73 190t206 60q44 -2 81 -16t69.5 -41t51.5 -75t19 -112q0 -121 -74 -187.5t-209 -62.5q-83 3 -150 72t-67 172z" />
<glyph unicode="&#xb8;" horiz-adv-x="1024" d="M307 -301l26 62q26 62 56 134.5t56.5 133t29.5 61.5q15 4 78 -11.5t119 -33.5l55 -18q-101 -392 -111 -398q-7 -3 -84.5 13.5t-151.5 35t-73 21.5z" />
<glyph unicode="&#xb9;" horiz-adv-x="663" d="M8 1458q18 19 190 90t212 82q33 -2 94 -14.5t74 -24.5q-1 -913 -9 -970q-16 -4 -152 -8t-149 5q-3 74 -2 145t6.5 264.5t6.5 266.5q-2 -1 -6.5 -2.5t-17.5 -6.5t-25.5 -10t-30 -11.5t-33 -12t-31.5 -11t-28 -9.5t-21 -6t-12 -2q-8 1 -39 115.5t-27 119.5z" />
<glyph unicode="&#xba;" horiz-adv-x="954" d="M41 926q0 105 51.5 198t152.5 153t230 60q187 0 312.5 -119.5t125.5 -316.5q0 -79 -30.5 -152.5t-85 -130.5t-138 -91.5t-182.5 -34.5q-187 0 -311.5 118.5t-124.5 315.5zM330 901q0 -64 40 -104.5t91 -42.5q78 -1 120 38t42 113t-39 109t-95 37q-77 3 -118 -37.5 t-41 -112.5z" />
<glyph unicode="&#xbb;" horiz-adv-x="1052" d="M55 987q0 7 71.5 66t74.5 57q4 -2 176 -253.5t172 -260.5t-172 -256.5t-180 -253.5q-6 -4 -64.5 38.5t-58.5 47.5q0 2 97.5 207.5t96.5 210.5q-1 3 -107 197t-106 200zM520 987q0 7 71.5 66t74.5 57q4 -2 176 -253.5t172 -260.5t-172 -256.5t-180 -253.5 q-6 -4 -64.5 38.5t-58.5 47.5q0 2 97.5 207.5t96.5 210.5q-1 3 -107 197t-106 200z" />
<glyph unicode="&#xbc;" horiz-adv-x="2004" d="M39 1298q18 19 189.5 90t211.5 82q33 -2 94 -14t74 -24q0 -914 -8 -971q-16 -4 -152 -7.5t-149 5.5q-3 80 -2 145.5t6 264t6 266.5q-2 -1 -6.5 -2.5t-17.5 -6.5t-25.5 -10t-30 -11.5t-33 -12t-31.5 -11.5t-28 -10t-21 -6t-12 -2q-8 1 -38.5 115.5t-26.5 119.5zM520 76 q1 1 164.5 351.5t329 699t172.5 348.5q18 0 103 -37.5t81 -53.5q-4 -17 -159.5 -373t-318 -707.5t-177.5 -342.5q-10 6 -63 36t-93.5 53.5t-38.5 25.5zM1110 408q38 89 186.5 316.5t210.5 297.5q64 -2 170 -12.5t152 -22.5l-2 -575q88 0 117 -4q3 -8 3 -65.5t-1 -110.5 l-2 -54q0 -4 -127 -4q-1 0 -1 -17.5t0.5 -43l1 -51t0.5 -44.5l1 -18q-57 -10 -138 -8t-141 16l2 164q-49 -3 -192.5 -4.5t-216.5 2.5q-9 43 -18 124t-5 114zM1386 408l160 2l15 254l-11 2q-32 -44 -87.5 -130t-76.5 -128z" />
<glyph unicode="&#xbd;" horiz-adv-x="1968" d="M39 1298q18 19 189.5 90t211.5 82q33 -2 94 -14t74 -24q0 -914 -8 -971q-16 -4 -152 -7.5t-149 5.5q-3 80 -2 145.5t6 264t6 266.5q-2 -1 -6.5 -2.5t-17.5 -6.5t-25.5 -10t-30 -11.5t-33 -12t-31.5 -11.5t-28 -10t-21 -6t-12 -2q-8 1 -38.5 115.5t-26.5 119.5zM520 76 q1 1 164.5 351.5t329 699t172.5 348.5q18 0 103 -37.5t81 -53.5q-4 -17 -159.5 -373t-318 -707.5t-177.5 -342.5q-10 6 -63 36t-93.5 53.5t-38.5 25.5zM1200 856q0 8 12.5 25t41 40.5t67 43.5t100 34.5t131.5 14.5q151 0 247.5 -80.5t96.5 -224.5q0 -106 -68.5 -205 t-213.5 -230l2 -6l264 8q8 -8 9.5 -78.5t-2.5 -136.5t-11 -65q-24 -3 -326.5 -4.5t-312.5 2.5q-7 5 -21 102.5t-10 124.5q44 46 122 120t124.5 119.5t84.5 99t38 89.5q0 32 -21.5 55t-62.5 23q-84 0 -135 -68q-24 16 -90 98t-66 99z" />
<glyph unicode="&#xbe;" horiz-adv-x="2119" d="M45 580q-3 17 55 102t88 98q63 -63 174 -63q54 0 79.5 23t25.5 51q0 69 -125 69q-10 0 -56.5 -1t-56.5 -1q-14 20 -15.5 126t15.5 116q15 0 65 -1t64 -1q99 0 99 61q0 32 -27.5 49t-69.5 17q-37 0 -75.5 -16t-59.5 -35q-17 0 -162 180q125 133 343 133q153 0 249.5 -75 t96.5 -202q0 -87 -40 -145t-87 -84v-8q18 -3 42.5 -17t50 -39t43 -66.5t17.5 -90.5q0 -76 -30.5 -136t-83.5 -97t-120 -56.5t-143 -19.5q-127 0 -217.5 39.5t-138.5 89.5zM643 76q1 1 164.5 351.5t329 699t172.5 348.5q18 0 103 -37.5t81 -53.5q-4 -17 -159.5 -373 t-318 -707.5t-177.5 -342.5q-10 6 -63 36t-93.5 53.5t-38.5 25.5zM1233 408q38 89 186.5 316.5t210.5 297.5q64 -2 170 -12.5t152 -22.5l-2 -575q87 0 116 -4q3 -8 3 -65.5t-1 -110.5l-2 -54q0 -4 -127 -4q-1 -2 -0.5 -18t1 -42.5t1 -51t1.5 -43.5v-19q-57 -10 -138 -8 t-141 16l2 164q-49 -3 -193 -4.5t-217 2.5q-9 42 -17.5 123.5t-4.5 114.5zM1509 408l160 2l14 254l-10 2q-32 -44 -87.5 -130t-76.5 -128z" />
<glyph unicode="&#xbf;" horiz-adv-x="946" d="M41 -47q0 89 28 160.5t78.5 118.5t114.5 75.5t141 38.5l11 98q148 18 293 5q10 -9 16 -98t7 -174l1 -85q-280 0 -280 -92q0 -30 31.5 -55t95.5 -25q52 0 103.5 12t76.5 24l26 13q5 -10 13.5 -27.5t30 -64t37.5 -84.5t28 -75.5t10 -51.5q-43 -45 -146.5 -76.5 t-250.5 -31.5q-126 0 -230 44t-169.5 135.5t-65.5 215.5zM328 786q0 47 5.5 82.5t21.5 68.5t42 54.5t69 34t101 12.5q112 0 181 -71.5t69 -196.5q0 -90 -70.5 -151.5t-179.5 -61.5q-110 0 -174.5 59.5t-64.5 169.5z" />
<glyph unicode="&#xc0;" horiz-adv-x="1480" d="M6 23q35 133 228.5 766t205.5 641q13 9 277.5 15.5t302.5 -1.5q4 -1 107 -297t216 -650t134 -474q-25 -11 -141.5 -22t-221 -16.5t-108.5 -4.5t-43 114.5t-50 155.5q-16 -1 -165 1.5t-187 4.5q-11 -49 -41.5 -158t-38.5 -114q-10 -7 -231 10.5t-244 28.5zM381 1718 q-3 1 23.5 53t58.5 104.5t41 53.5q4 2 119 -57.5t227 -119.5l113 -60q-3 -7 -8 -18.5t-20 -41.5t-28 -54t-28 -45t-25 -24q-4 -1 -120.5 50.5t-234 105t-118.5 53.5zM623 596q28 2 112 2t135 -2q-14 41 -60 216.5t-58 215.5q-2 0 -6.5 -1t-6.5 -1q-12 -41 -58.5 -218.5 t-57.5 -211.5z" />
<glyph unicode="&#xc1;" horiz-adv-x="1480" d="M6 23q35 133 228.5 766t205.5 641q13 9 277.5 15.5t302.5 -1.5q4 -1 107 -297t216 -650t134 -474q-25 -11 -141.5 -22t-221 -16.5t-108.5 -4.5t-43 114.5t-50 155.5q-16 -1 -165 1.5t-187 4.5q-11 -49 -41.5 -158t-38.5 -114q-10 -7 -231 10.5t-244 28.5zM498 1692 l458 237q9 -1 41 -53.5t58.5 -104.5t23.5 -53q-1 0 -118.5 -53.5t-234 -105t-120.5 -50.5q-16 5 -43 51t-46 89zM623 596q28 2 112 2t135 -2q-14 41 -60 216.5t-58 215.5q-2 0 -6.5 -1t-6.5 -1q-12 -41 -58.5 -218.5t-57.5 -211.5z" />
<glyph unicode="&#xc2;" horiz-adv-x="1480" d="M6 23q35 133 228.5 766t205.5 641q13 9 277.5 15.5t302.5 -1.5q4 -1 107 -297t216 -650t134 -474q-25 -11 -141.5 -22t-221 -16.5t-108.5 -4.5t-43 114.5t-50 155.5q-16 -1 -165 1.5t-187 4.5q-11 -49 -41.5 -158t-38.5 -114q-10 -7 -231 10.5t-244 28.5zM336 1681 q336 220 375 236q7 -3 100.5 -62t183.5 -117l90 -57q-69 -149 -98 -161q-3 -1 -47 18.5t-110.5 52.5t-118.5 62q-261 -145 -267 -142q-13 5 -40 47.5t-48 82.5zM623 596q28 2 112 2t135 -2q-14 41 -60 216.5t-58 215.5q-2 0 -6.5 -1t-6.5 -1q-12 -41 -58.5 -218.5 t-57.5 -211.5z" />
<glyph unicode="&#xc3;" horiz-adv-x="1480" d="M6 23q35 133 228.5 766t205.5 641q13 9 277.5 15.5t302.5 -1.5q4 -1 107 -297t216 -650t134 -474q-25 -11 -141.5 -22t-221 -16.5t-108.5 -4.5t-43 114.5t-50 155.5q-16 -1 -165 1.5t-187 4.5q-11 -49 -41.5 -158t-38.5 -114q-10 -7 -231 10.5t-244 28.5zM344 1784 q35 44 92.5 75t126.5 31q41 0 87.5 -18t81 -40t80 -40t85.5 -18q33 0 63.5 14t44 25.5t37.5 35.5q13 -3 42 -86.5t32 -126.5q-3 -5 -8.5 -12.5t-25 -27t-43 -34.5t-62.5 -27.5t-82 -12.5q-63 0 -176.5 53t-173.5 53q-76 0 -142 -61q-12 -11 -46 143q-13 60 -13 74zM623 596 q28 2 112 2t135 -2q-14 41 -60 216.5t-58 215.5q-2 0 -6.5 -1t-6.5 -1q-12 -41 -58.5 -218.5t-57.5 -211.5z" />
<glyph unicode="&#xc4;" horiz-adv-x="1480" d="M6 23q35 133 228.5 766t205.5 641q13 9 277.5 15.5t302.5 -1.5q4 -1 107 -297t216 -650t134 -474q-25 -11 -141.5 -22t-221 -16.5t-108.5 -4.5t-43 114.5t-50 155.5q-16 -1 -165 1.5t-187 4.5q-11 -49 -41.5 -158t-38.5 -114q-10 -7 -231 10.5t-244 28.5zM319 1718 q-1 81 47.5 132t120.5 51q71 0 126 -53t55 -122q0 -79 -38.5 -132.5t-121.5 -53.5q-89 0 -137.5 47.5t-51.5 130.5zM623 596q28 2 112 2t135 -2q-14 41 -60 216.5t-58 215.5q-2 0 -6.5 -1t-6.5 -1q-12 -41 -58.5 -218.5t-57.5 -211.5zM795 1718q-1 81 48 132t120 51 t125.5 -53t54.5 -122q0 -79 -38.5 -132.5t-121.5 -53.5q-90 0 -138 47t-50 131z" />
<glyph unicode="&#xc5;" horiz-adv-x="1480" d="M6 23q35 133 228.5 766t205.5 641q13 9 277.5 15.5t302.5 -1.5q4 -1 107 -297t216 -650t134 -474q-25 -11 -141.5 -22t-221 -16.5t-108.5 -4.5t-43 114.5t-50 155.5q-16 -1 -165 1.5t-187 4.5q-11 -49 -41.5 -158t-38.5 -114q-10 -7 -231 10.5t-244 28.5zM512 1700 q0 106 62 154.5t163 48.5q91 0 150 -55t59 -150q0 -86 -53.5 -147.5t-155.5 -61.5q-105 0 -165 51.5t-60 159.5zM623 596q28 2 112 2t135 -2q-14 41 -60 216.5t-58 215.5q-2 0 -6.5 -1t-6.5 -1q-12 -41 -58.5 -218.5t-57.5 -211.5zM657 1694q0 -29 24 -47.5t52 -18.5 q29 0 47.5 17.5t18.5 48.5q0 27 -17 48t-49 21q-38 0 -57 -20t-19 -49z" />
<glyph unicode="&#xc6;" horiz-adv-x="1988" d="M-20 23q53 140 326 772t288 635q79 16 694 19t637 -15q16 -16 19 -94.5t-3 -158t-14 -130.5q-67 -6 -260.5 -5.5t-335.5 5.5l4 -138q163 2 295.5 -2.5t141.5 -13.5q6 -6 9 -44.5t2.5 -90.5t-2 -101t-3.5 -87l-2 -39q0 -9 -140 -10.5t-303 3.5v-155q138 5 330 5t246 -5 q10 -66 9.5 -204.5t-11.5 -174.5q11 -6 -197 -8t-463 1t-358 11q-4 70 -4 254q-255 0 -301 4q-18 -50 -63 -158.5t-54 -113.5q-10 -7 -237.5 10.5t-249.5 28.5zM688 596q18 2 199 2l8 459l-16 4z" />
<glyph unicode="&#xc7;" horiz-adv-x="1341" d="M43 727q0 157 56 291t158 231t251 152t328 55q175 0 306.5 -41t182.5 -96q-2 -44 -63.5 -193.5t-104.5 -185.5q-170 94 -313 94q-136 0 -230 -91t-94 -234q0 -77 20 -137t51.5 -95.5t73 -58.5t80 -31t78.5 -8q29 0 57.5 4t50 9t45.5 15t39 17t35 19t28 18l24 18t18 13 q36 -24 100.5 -132t108.5 -198q-68 -80 -198 -136.5t-287 -68.5q-80 -303 -86 -307q-7 -3 -84.5 13t-151.5 34.5t-73 21.5q0 6 106 261q-170 42 -287 152t-171 260.5t-54 334.5z" />
<glyph unicode="&#xc8;" horiz-adv-x="1202" d="M104 -2q-7 105 0.5 654t18.5 778q171 10 593.5 11.5t424.5 -7.5q11 -36 11.5 -176.5t-9.5 -206.5q-67 -6 -260.5 -5.5t-335.5 5.5l4 -138q163 2 295 -2.5t141 -13.5q6 -6 9 -44.5t2.5 -90.5t-2 -101t-3.5 -87l-2 -39q0 -9 -139.5 -10.5t-302.5 3.5v-155q138 5 329.5 5 t245.5 -5q10 -66 9.5 -204.5t-11.5 -174.5q11 -6 -197 -8t-463 1t-358 11zM289 1718q-3 1 23.5 53t58.5 104.5t41 53.5q4 2 118.5 -57.5t227.5 -119.5l112 -60q-3 -7 -8 -18.5t-19.5 -41.5t-27.5 -54t-28 -45t-25 -24q-4 -1 -120.5 50.5t-234 105t-118.5 53.5z" />
<glyph unicode="&#xc9;" horiz-adv-x="1202" d="M104 -2q-7 105 0.5 654t18.5 778q171 10 593.5 11.5t424.5 -7.5q11 -36 11.5 -176.5t-9.5 -206.5q-67 -6 -260.5 -5.5t-335.5 5.5l4 -138q163 2 295 -2.5t141 -13.5q6 -6 9 -44.5t2.5 -90.5t-2 -101t-3.5 -87l-2 -39q0 -9 -139.5 -10.5t-302.5 3.5v-155q138 5 329.5 5 t245.5 -5q10 -66 9.5 -204.5t-11.5 -174.5q11 -6 -197 -8t-463 1t-358 11zM344 1692l459 237q9 -1 41 -53.5t58.5 -104.5t23.5 -53q-1 0 -118.5 -53.5t-234 -105t-120.5 -50.5q-16 5 -43 51t-46 89z" />
<glyph unicode="&#xca;" horiz-adv-x="1202" d="M104 -2q-7 105 0.5 654t18.5 778q171 10 593.5 11.5t424.5 -7.5q11 -36 11.5 -176.5t-9.5 -206.5q-67 -6 -260.5 -5.5t-335.5 5.5l4 -138q163 2 295 -2.5t141 -13.5q6 -6 9 -44.5t2.5 -90.5t-2 -101t-3.5 -87l-2 -39q0 -9 -139.5 -10.5t-302.5 3.5v-155q138 5 329.5 5 t245.5 -5q10 -66 9.5 -204.5t-11.5 -174.5q11 -6 -197 -8t-463 1t-358 11zM252 1681q336 220 375 236q7 -3 100.5 -62t183.5 -117l90 -57q-69 -149 -98 -161q-3 -1 -47 18.5t-110.5 52.5t-118.5 62q-261 -145 -267 -142q-13 5 -40 47.5t-48 82.5z" />
<glyph unicode="&#xcb;" horiz-adv-x="1202" d="M104 -2q-7 105 0.5 654t18.5 778q171 10 593.5 11.5t424.5 -7.5q11 -36 11.5 -176.5t-9.5 -206.5q-67 -6 -260.5 -5.5t-335.5 5.5l4 -138q163 2 295 -2.5t141 -13.5q6 -6 9 -44.5t2.5 -90.5t-2 -101t-3.5 -87l-2 -39q0 -9 -139.5 -10.5t-302.5 3.5v-155q138 5 329.5 5 t245.5 -5q10 -66 9.5 -204.5t-11.5 -174.5q11 -6 -197 -8t-463 1t-358 11zM221 1718q-1 81 47.5 132t120.5 51q71 0 125.5 -53t54.5 -122q0 -80 -38 -133t-121 -53q-89 0 -137.5 47.5t-51.5 130.5zM696 1718q-1 81 48 132t120 51t125.5 -53t54.5 -122q0 -80 -38 -133 t-121 -53q-91 0 -139 47.5t-50 130.5z" />
<glyph unicode="&#xcc;" horiz-adv-x="688" d="M51 1718q-3 1 23.5 53t58.5 104.5t41 53.5q4 2 119 -57.5t227 -119.5l113 -60q-3 -7 -8 -18.5t-20 -41.5t-28 -54t-28 -45t-25 -24q-4 -1 -120.5 50.5t-234 105t-118.5 53.5zM105.5 684q-0.5 582 13.5 737q61 13 252 13.5t200 -9.5q12 -8 10.5 -686.5t-14.5 -736.5 q-5 -20 -117.5 -24.5t-223 2t-111.5 14.5q-9 108 -9.5 690z" />
<glyph unicode="&#xcd;" horiz-adv-x="688" d="M45 1692l459 237q9 -1 41 -53.5t58.5 -104.5t23.5 -53q-1 0 -118.5 -53.5t-234 -105t-120.5 -50.5q-16 5 -43 51t-47 89zM105.5 684q-0.5 582 13.5 737q61 13 252 13.5t200 -9.5q12 -8 10.5 -686.5t-14.5 -736.5q-5 -20 -117.5 -24.5t-223 2t-111.5 14.5q-9 108 -9.5 690 z" />
<glyph unicode="&#xce;" horiz-adv-x="688" d="M-31 1681q336 220 375 236q7 -3 101 -62t184 -117l90 -57q-69 -149 -98 -161q-3 -1 -47.5 18.5t-111 52.5t-118.5 62q-260 -145 -266 -142q-13 5 -40 47.5t-48 82.5zM105.5 684q-0.5 582 13.5 737q61 13 252 13.5t200 -9.5q12 -8 10.5 -686.5t-14.5 -736.5 q-5 -20 -117.5 -24.5t-223 2t-111.5 14.5q-9 108 -9.5 690z" />
<glyph unicode="&#xcf;" horiz-adv-x="688" d="M-70 1718q-1 81 47.5 132t120.5 51q71 0 126 -53t55 -122q0 -79 -38.5 -132.5t-121.5 -53.5q-89 0 -137.5 47.5t-51.5 130.5zM105.5 684q-0.5 582 13.5 737q61 13 252 13.5t200 -9.5q12 -8 10.5 -686.5t-14.5 -736.5q-5 -20 -117.5 -24.5t-223 2t-111.5 14.5 q-9 108 -9.5 690zM406 1718q-1 81 47.5 132t119.5 51t126 -53t55 -122q0 -79 -38.5 -132.5t-121.5 -53.5q-90 0 -138 47t-50 131z" />
<glyph unicode="&#xd0;" horiz-adv-x="1445" d="M14.5 695q1.5 111 8.5 114l11 1q11 0 34 1t47 2q8 528 18 612q67 17 490 17q238 0 416.5 -94.5t272 -258.5t93.5 -374q0 -131 -28.5 -241.5t-90.5 -203t-154.5 -157t-226.5 -100.5t-301 -36q-134 0 -293 9.5t-192 19.5q-6 79 -6 580q-51 -2 -90 -2q-10 0 -8.5 111z M555 393q41 -6 98 -6q285 0 285 309q0 145 -85.5 235.5t-219.5 90.5q-56 0 -76 -2v-195q171 0 174 -6q3 -12 -2.5 -115.5t-9.5 -103.5h-21q-20 -1 -60.5 -2t-80.5 -2q-2 -72 -2 -203z" />
<glyph unicode="&#xd1;" horiz-adv-x="1525" d="M103.5 703.5q-1.5 620.5 11.5 709.5q3 20 106 29.5t206.5 8t107.5 -8.5q30 -47 91 -146t168 -283t179 -323q1 117 -1 303.5t-3 264.5t4 161q66 13 246.5 11.5t193.5 -11.5q12 -8 4.5 -672t-20.5 -722q-5 -20 -107 -31.5t-193.5 -9.5t-119.5 8q-18 22 -82.5 128 t-165.5 272.5t-180 289.5q0 -119 5.5 -361t2.5 -307q-66 -14 -252.5 -14.5t-189.5 14.5q-10 69 -11.5 689.5zM369 1784q35 44 92.5 75t126.5 31q41 0 87.5 -18t81 -40t80 -40t85.5 -18q33 0 63.5 14t44 25.5t37.5 35.5q13 -3 42 -86.5t32 -126.5q-3 -5 -8.5 -12.5t-25 -27 t-43 -34.5t-62.5 -27.5t-82 -12.5q-63 0 -177 53t-174 53q-75 0 -141 -61q-12 -11 -46 143q-13 60 -13 74z" />
<glyph unicode="&#xd2;" horiz-adv-x="1544" d="M41 733q0 112 29 217.5t89 198t145 162t204.5 109.5t259.5 40q333 0 534 -208t201 -564q0 -111 -27.5 -215.5t-86.5 -198t-143.5 -163t-206 -110t-265.5 -40.5q-335 0 -534 207.5t-199 564.5zM442 1718q-3 1 23.5 53t58.5 104.5t41 53.5q4 2 119 -57.5t228 -119.5 l112 -60q-3 -7 -8 -18.5t-20 -41.5t-28 -54t-28 -45t-25 -24q-4 -1 -120.5 50.5t-234 105t-118.5 53.5zM510 709q0 -146 71 -239t183 -93q125 0 190.5 89t65.5 253q0 171 -68.5 251.5t-179.5 80.5q-122 0 -192 -90.5t-70 -251.5z" />
<glyph unicode="&#xd3;" horiz-adv-x="1544" d="M41 733q0 112 29 217.5t89 198t145 162t204.5 109.5t259.5 40q333 0 534 -208t201 -564q0 -111 -27.5 -215.5t-86.5 -198t-143.5 -163t-206 -110t-265.5 -40.5q-335 0 -534 207.5t-199 564.5zM510 709q0 -146 71 -239t183 -93q125 0 190.5 89t65.5 253q0 171 -68.5 251.5 t-179.5 80.5q-122 0 -192 -90.5t-70 -251.5zM539 1692l458 237q9 -1 41 -53.5t58.5 -104.5t23.5 -53q-1 0 -118.5 -53.5t-234 -105t-120.5 -50.5q-16 5 -43 51t-46 89z" />
<glyph unicode="&#xd4;" horiz-adv-x="1544" d="M41 733q0 112 29 217.5t89 198t145 162t204.5 109.5t259.5 40q333 0 534 -208t201 -564q0 -111 -27.5 -215.5t-86.5 -198t-143.5 -163t-206 -110t-265.5 -40.5q-335 0 -534 207.5t-199 564.5zM397 1681q336 220 375 236q7 -3 101 -62t184 -117l90 -57q-69 -149 -98 -161 q-3 -1 -47.5 18.5t-111 52.5t-118.5 62q-260 -145 -266 -142q-13 5 -40 47.5t-48 82.5zM510 709q0 -146 71 -239t183 -93q125 0 190.5 89t65.5 253q0 171 -68.5 251.5t-179.5 80.5q-122 0 -192 -90.5t-70 -251.5z" />
<glyph unicode="&#xd5;" horiz-adv-x="1544" d="M41 733q0 112 29 217.5t89 198t145 162t204.5 109.5t259.5 40q333 0 534 -208t201 -564q0 -111 -27.5 -215.5t-86.5 -198t-143.5 -163t-206 -110t-265.5 -40.5q-335 0 -534 207.5t-199 564.5zM385 1784q35 44 92.5 75t126.5 31q41 0 87.5 -18t81 -40t80 -40t85.5 -18 q33 0 63.5 14t44 25.5t37.5 35.5q13 -3 42 -86.5t32 -126.5q-3 -5 -8.5 -12.5t-25 -27t-43 -34.5t-62.5 -27.5t-82 -12.5q-63 0 -176.5 53t-173.5 53q-76 0 -142 -61q-12 -11 -46 143q-13 60 -13 74zM510 709q0 -146 71 -239t183 -93q125 0 190.5 89t65.5 253 q0 171 -68.5 251.5t-179.5 80.5q-122 0 -192 -90.5t-70 -251.5z" />
<glyph unicode="&#xd6;" horiz-adv-x="1544" d="M41 733q0 112 29 217.5t89 198t145 162t204.5 109.5t259.5 40q333 0 534 -208t201 -564q0 -111 -27.5 -215.5t-86.5 -198t-143.5 -163t-206 -110t-265.5 -40.5q-335 0 -534 207.5t-199 564.5zM360 1718q-1 81 47.5 132t120.5 51q71 0 126 -53t55 -122q0 -79 -38.5 -132.5 t-121.5 -53.5q-89 0 -137.5 47.5t-51.5 130.5zM510 709q0 -146 71 -239t183 -93q125 0 190.5 89t65.5 253q0 171 -68.5 251.5t-179.5 80.5q-122 0 -192 -90.5t-70 -251.5zM836 1718q-1 81 48 132t120 51t125.5 -53t54.5 -122q0 -79 -38.5 -132.5t-121.5 -53.5q-90 0 -138 47 t-50 131z" />
<glyph unicode="&#xd7;" horiz-adv-x="1001" d="M49 274l299 324l-278 279q56 78 159 157l265 -264l274 277q139 -138 139 -152q0 -8 -115.5 -143t-117.5 -140q-1 -5 140.5 -149.5t141.5 -147.5q0 -10 -70 -85t-83 -68q-8 5 -85.5 76t-151.5 139t-77 67t-135.5 -151t-140.5 -150q-6 0 -48 32t-80 64.5t-36 34.5z" />
<glyph unicode="&#xd8;" horiz-adv-x="1544" d="M41 733q0 112 29 217.5t89 198t145 162t204.5 109.5t259.5 40q187 0 344 -74q82 113 86 113l173 -74q56 -26 54 -30q0 -6 -110 -158q188 -204 188 -549q0 -111 -27.5 -215.5t-86.5 -198t-143.5 -163t-206 -110t-265.5 -40.5q-185 0 -340 68q-87 -112 -94 -109 q-3 2 -34 17t-58 29t-58 31t-49 31t-16 21q39 53 98 135q-182 207 -182 549zM510 709q0 -68 14 -117l330 446q-44 13 -82 13q-122 0 -192 -90.5t-70 -251.5zM700 385q27 -8 64 -8q125 0 190.5 89t65.5 253q0 38 -8 96q-80 -112 -312 -430z" />
<glyph unicode="&#xd9;" horiz-adv-x="1462" d="M88 604q0 158 10.5 443.5t22.5 361.5q3 20 113.5 24.5t221.5 -2.5t115 -14q5 -49 1 -156.5t-12.5 -307.5t-8.5 -289q0 -142 40 -199t132 -57q98 0 134 63.5t36 183.5q0 133 -9.5 451.5t-9.5 325.5q21 14 250.5 22.5t233.5 -6.5q6 -25 11 -330t5 -495q0 -96 -12 -176.5 t-40 -157t-77 -135t-118.5 -103t-169.5 -67.5t-226 -23q-154 0 -270.5 35.5t-201 111t-128 200t-43.5 296.5zM354 1718q-3 1 23.5 53t58.5 104.5t41 53.5q4 2 119 -57.5t228 -119.5l112 -60q-3 -7 -8 -18.5t-20 -41.5t-28 -54t-28 -45t-25 -24q-4 -1 -120.5 50.5t-234 105 t-118.5 53.5z" />
<glyph unicode="&#xda;" horiz-adv-x="1462" d="M88 604q0 158 10.5 443.5t22.5 361.5q3 20 113.5 24.5t221.5 -2.5t115 -14q5 -49 1 -156.5t-12.5 -307.5t-8.5 -289q0 -142 40 -199t132 -57q98 0 134 63.5t36 183.5q0 133 -9.5 451.5t-9.5 325.5q21 14 250.5 22.5t233.5 -6.5q6 -25 11 -330t5 -495q0 -96 -12 -176.5 t-40 -157t-77 -135t-118.5 -103t-169.5 -67.5t-226 -23q-154 0 -270.5 35.5t-201 111t-128 200t-43.5 296.5zM526 1692l459 237q9 -1 41 -53.5t58.5 -104.5t23.5 -53q-1 0 -118.5 -53.5t-234 -105t-120.5 -50.5q-16 5 -43 51t-46 89z" />
<glyph unicode="&#xdb;" horiz-adv-x="1462" d="M88 604q0 158 10.5 443.5t22.5 361.5q3 20 113.5 24.5t221.5 -2.5t115 -14q5 -49 1 -156.5t-12.5 -307.5t-8.5 -289q0 -142 40 -199t132 -57q98 0 134 63.5t36 183.5q0 133 -9.5 451.5t-9.5 325.5q21 14 250.5 22.5t233.5 -6.5q6 -25 11 -330t5 -495q0 -96 -12 -176.5 t-40 -157t-77 -135t-118.5 -103t-169.5 -67.5t-226 -23q-154 0 -270.5 35.5t-201 111t-128 200t-43.5 296.5zM350 1681q336 220 375 236q7 -3 101 -62t184 -117l90 -57q-70 -149 -99 -161q-3 -1 -47 18.5t-110.5 52.5t-118.5 62q-260 -145 -266 -142q-13 5 -40 47.5 t-48 82.5z" />
<glyph unicode="&#xdc;" horiz-adv-x="1462" d="M88 604q0 158 10.5 443.5t22.5 361.5q3 20 113.5 24.5t221.5 -2.5t115 -14q5 -49 1 -156.5t-12.5 -307.5t-8.5 -289q0 -142 40 -199t132 -57q98 0 134 63.5t36 183.5q0 133 -9.5 451.5t-9.5 325.5q21 14 250.5 22.5t233.5 -6.5q6 -25 11 -330t5 -495q0 -96 -12 -176.5 t-40 -157t-77 -135t-118.5 -103t-169.5 -67.5t-226 -23q-154 0 -270.5 35.5t-201 111t-128 200t-43.5 296.5zM307 1718q-1 81 47.5 132t120.5 51q71 0 125.5 -53t54.5 -122q0 -80 -38 -133t-121 -53q-89 0 -137.5 47.5t-51.5 130.5zM782 1718q-1 81 48 132t120 51t125.5 -53 t54.5 -122q0 -80 -38 -133t-121 -53q-91 0 -139 47.5t-50 130.5z" />
<glyph unicode="&#xdd;" horiz-adv-x="1296" d="M4 1327q1 21 200 80t218 49q5 -3 45 -85t93.5 -199.5t86.5 -202.5h12q36 69 99 199t103 209t46 79q25 0 217 -55t193 -74q2 -28 -443 -784q10 -475 -6 -541q-5 -20 -120 -22.5t-228 6t-114 16.5q-6 69 8 541q-11 22 -63 117t-107 198t-111.5 209.5t-93 179t-35.5 80.5z M451 1692l458 237q9 -1 41 -53.5t58.5 -104.5t23.5 -53q-1 0 -118.5 -53.5t-234 -105t-120.5 -50.5q-16 5 -43 51t-46 89z" />
<glyph unicode="&#xde;" horiz-adv-x="1294" d="M107.5 684q-0.5 582 13.5 737q28 2 233 6.5t240 6.5q3 0 1 -90.5t1 -90.5q2 0 36.5 2t53.5 2q281 0 438.5 -139.5t157.5 -380.5q0 -287 -151.5 -415.5t-477.5 -128.5h-51q-2 -145 -2.5 -159.5t-9.5 -31.5q-6 -12 -238.5 -16t-234.5 8q-9 108 -9.5 690zM590 584 q46 -4 92 -4q75 0 120.5 31.5t45.5 95.5q0 112 -121 131q-36 4 -61 4q-56 0 -74 -4q2 -88 -2 -254z" />
<glyph unicode="&#xdf;" horiz-adv-x="1255" d="M86 975q0 109 32 200.5t96.5 162.5t170.5 111t244 40q127 0 231.5 -35t172 -94t104.5 -135t37 -160q0 -61 -22 -119t-48 -92.5t-48 -68.5t-22 -54q0 -16 20.5 -36.5t49 -45.5t57.5 -57.5t49.5 -85.5t20.5 -117q0 -359 -477 -448q-13 21 -32.5 55t-59 119.5t-54.5 146.5 q33 11 48.5 16.5t39 17.5t33.5 25t18.5 34t8.5 48q0 31 -24 67t-52 65.5t-52 78t-24 101.5t22.5 101t49.5 77.5t49.5 64.5t22.5 64q0 45 -37 74.5t-90 29.5q-119 0 -125 -141q-6 -121 -6 -373.5t2.5 -403t-0.5 -194.5q-14 -1 -38 -3t-86.5 -6t-113.5 -6t-98.5 -1.5 t-61.5 6.5q-1 -7 -3 194.5t-3.5 441t-1.5 335.5z" />
<glyph unicode="&#xe0;" horiz-adv-x="1019" d="M35 295q0 132 103.5 212.5t258.5 80.5q84 0 160 -39q0 1 1.5 13t1.5 20v22.5t-4 25t-9.5 24.5t-17 23.5t-27 18t-38.5 13t-52 4.5q-45 0 -87.5 -19.5t-68.5 -39t-31 -19.5q-15 0 -98.5 78t-83.5 98q0 11 16.5 37t53 61t85 66t122.5 52.5t155 21.5q95 0 179 -28t151 -82 t106 -141t39 -196q0 -171 -5.5 -377t-10.5 -215q-3 -5 -83.5 -5t-159.5 3l-79 2l-22 88q-3 -5 -10 -12.5t-30.5 -27t-51 -34.5t-72 -27.5t-92.5 -12.5q-152 0 -225.5 82t-73.5 229zM209 1309q-3 1 23.5 53t58.5 104.5t41 53.5q4 2 119 -57.5t227 -120.5l113 -60 q-3 -7 -8 -18.5t-20 -41.5t-28 -53.5t-28 -44.5t-25 -24q-4 -1 -120.5 50.5t-234 105t-118.5 53.5zM367 301q0 -35 24.5 -59.5t59.5 -24.5q41 0 63.5 23.5t22.5 60.5q0 35 -25.5 59.5t-60.5 24.5q-38 0 -61 -24t-23 -60z" />
<glyph unicode="&#xe1;" horiz-adv-x="1019" d="M35 295q0 132 103.5 212.5t258.5 80.5q84 0 160 -39q0 1 1.5 13t1.5 20v22.5t-4 25t-9.5 24.5t-17 23.5t-27 18t-38.5 13t-52 4.5q-45 0 -87.5 -19.5t-68.5 -39t-31 -19.5q-15 0 -98.5 78t-83.5 98q0 11 16.5 37t53 61t85 66t122.5 52.5t155 21.5q95 0 179 -28t151 -82 t106 -141t39 -196q0 -171 -5.5 -377t-10.5 -215q-3 -5 -83.5 -5t-159.5 3l-79 2l-22 88q-3 -5 -10 -12.5t-30.5 -27t-51 -34.5t-72 -27.5t-92.5 -12.5q-152 0 -225.5 82t-73.5 229zM244 1282l458 238q9 -1 41 -53.5t58.5 -104.5t23.5 -53q-1 0 -118.5 -53.5t-234 -105 t-120.5 -50.5q-16 5 -43 50.5t-46 88.5zM367 301q0 -35 24.5 -59.5t59.5 -24.5q41 0 63.5 23.5t22.5 60.5q0 35 -25.5 59.5t-60.5 24.5q-38 0 -61 -24t-23 -60z" />
<glyph unicode="&#xe2;" horiz-adv-x="1019" d="M35 295q0 132 103.5 212.5t258.5 80.5q84 0 160 -39q0 1 1.5 13t1.5 20v22.5t-4 25t-9.5 24.5t-17 23.5t-27 18t-38.5 13t-52 4.5q-45 0 -87.5 -19.5t-68.5 -39t-31 -19.5q-15 0 -98.5 78t-83.5 98q0 11 16.5 37t53 61t85 66t122.5 52.5t155 21.5q95 0 179 -28t151 -82 t106 -141t39 -196q0 -171 -5.5 -377t-10.5 -215q-3 -5 -83.5 -5t-159.5 3l-79 2l-22 88q-3 -5 -10 -12.5t-30.5 -27t-51 -34.5t-72 -27.5t-92.5 -12.5q-152 0 -225.5 82t-73.5 229zM143 1272q336 219 375 235q7 -3 101 -61.5t184 -115.5l90 -58q-69 -150 -98 -162 q-3 -1 -47.5 18.5t-111 52.5t-118.5 62q-259 -144 -266 -141q-13 5 -40 47.5t-48 82.5zM367 301q0 -35 24.5 -59.5t59.5 -24.5q41 0 63.5 23.5t22.5 60.5q0 35 -25.5 59.5t-60.5 24.5q-38 0 -61 -24t-23 -60z" />
<glyph unicode="&#xe3;" horiz-adv-x="1019" d="M35 295q0 132 103.5 212.5t258.5 80.5q84 0 160 -39q0 1 1.5 13t1.5 20v22.5t-4 25t-9.5 24.5t-17 23.5t-27 18t-38.5 13t-52 4.5q-45 0 -87.5 -19.5t-68.5 -39t-31 -19.5q-15 0 -98.5 78t-83.5 98q0 11 16.5 37t53 61t85 66t122.5 52.5t155 21.5q95 0 179 -28t151 -82 t106 -141t39 -196q0 -171 -5.5 -377t-10.5 -215q-3 -5 -83.5 -5t-159.5 3l-79 2l-22 88q-3 -5 -10 -12.5t-30.5 -27t-51 -34.5t-72 -27.5t-92.5 -12.5q-152 0 -225.5 82t-73.5 229zM131 1374q35 44 92.5 75.5t126.5 31.5q41 0 87.5 -18.5t81 -40t80 -40t85.5 -18.5 q33 0 63.5 14t43.5 25.5t38 36.5q13 -3 42 -86.5t32 -126.5q-3 -5 -8.5 -12.5t-25 -27.5t-43 -35t-62.5 -27.5t-82 -12.5q-52 0 -114.5 27t-124 53.5t-111.5 26.5q-75 0 -142 -62q-12 -11 -46 143q-13 60 -13 74zM367 301q0 -35 24.5 -59.5t59.5 -24.5q41 0 63.5 23.5 t22.5 60.5q0 35 -25.5 59.5t-60.5 24.5q-38 0 -61 -24t-23 -60z" />
<glyph unicode="&#xe4;" horiz-adv-x="1019" d="M35 295q0 132 103.5 212.5t258.5 80.5q84 0 160 -39q0 1 1.5 13t1.5 20v22.5t-4 25t-9.5 24.5t-17 23.5t-27 18t-38.5 13t-52 4.5q-45 0 -87.5 -19.5t-68.5 -39t-31 -19.5q-15 0 -98.5 78t-83.5 98q0 11 16.5 37t53 61t85 66t122.5 52.5t155 21.5q95 0 179 -28t151 -82 t106 -141t39 -196q0 -171 -5.5 -377t-10.5 -215q-3 -5 -83.5 -5t-159.5 3l-79 2l-22 88q-3 -5 -10 -12.5t-30.5 -27t-51 -34.5t-72 -27.5t-92.5 -12.5q-152 0 -225.5 82t-73.5 229zM106 1309q-1 81 47.5 131.5t120.5 50.5q71 0 126 -52.5t55 -121.5q0 -79 -38.5 -133 t-121.5 -54q-89 0 -137.5 47.5t-51.5 131.5zM367 301q0 -35 24.5 -59.5t59.5 -24.5q41 0 63.5 23.5t22.5 60.5q0 35 -25.5 59.5t-60.5 24.5q-38 0 -61 -24t-23 -60zM582 1309q-1 81 48 131.5t120 50.5t125.5 -52.5t54.5 -121.5q0 -79 -38.5 -133t-121.5 -54q-90 0 -138 47.5 t-50 131.5z" />
<glyph unicode="&#xe5;" horiz-adv-x="1019" d="M35 295q0 132 103.5 212.5t258.5 80.5q84 0 160 -39q0 1 1.5 13t1.5 20v22.5t-4 25t-9.5 24.5t-17 23.5t-27 18t-38.5 13t-52 4.5q-45 0 -87.5 -19.5t-68.5 -39t-31 -19.5q-15 0 -98.5 78t-83.5 98q0 11 16.5 37t53 61t85 66t122.5 52.5t155 21.5q95 0 179 -28t151 -82 t106 -141t39 -196q0 -171 -5.5 -377t-10.5 -215q-3 -5 -83.5 -5t-159.5 3l-79 2l-22 88q-3 -5 -10 -12.5t-30.5 -27t-51 -34.5t-72 -27.5t-92.5 -12.5q-152 0 -225.5 82t-73.5 229zM303 1323q0 106 62 154.5t163 48.5q91 0 150 -55t59 -150q0 -86 -53.5 -147.5t-155.5 -61.5 q-105 0 -165 51.5t-60 159.5zM367 301q0 -35 24.5 -59.5t59.5 -24.5q41 0 63.5 23.5t22.5 60.5q0 35 -25.5 59.5t-60.5 24.5q-38 0 -61 -24t-23 -60zM449 1317q0 -29 23.5 -47.5t51.5 -18.5q29 0 47.5 17.5t18.5 48.5q0 27 -17 48t-49 21q-38 0 -56.5 -20t-18.5 -49z" />
<glyph unicode="&#xe6;" horiz-adv-x="1751" d="M35 295q0 132 103.5 212.5t258.5 80.5q84 0 160 -39q0 1 1.5 13t1.5 20v22.5t-4 25t-9.5 24.5t-17 23.5t-27 18t-38.5 13t-52 4.5q-45 0 -87.5 -19.5t-68.5 -39t-31 -19.5q-15 0 -98.5 78t-83.5 98q0 11 16.5 37t53 61t85 66t122.5 52.5t155 21.5q127 0 234 -49.5 t170 -143.5q144 182 393 182q138 0 243 -65t157 -166.5t52 -220.5q0 -104 -18 -166q-70 -9 -254.5 -11.5t-304.5 -0.5q0 -119 180 -119q109 0 221 57q19 -22 70.5 -132t52.5 -134q-48 -43 -149.5 -77t-214.5 -34q-231 0 -369 109q-3 -67 -4 -68q-3 -5 -83.5 -5t-159.5 3 l-79 2l-22 88q-3 -5 -10 -12.5t-30.5 -27t-51 -34.5t-72 -27.5t-92.5 -12.5q-152 0 -225.5 82t-73.5 229zM367 301q0 -35 24.5 -59.5t59.5 -24.5q41 0 63.5 23.5t22.5 60.5q0 35 -25.5 59.5t-60.5 24.5q-38 0 -61 -24t-23 -60zM1143 629l229 4q0 56 -25.5 94.5t-74.5 38.5 q-58 0 -93.5 -37.5t-35.5 -99.5z" />
<glyph unicode="&#xe7;" horiz-adv-x="989" d="M35 520q0 99 40 192t110.5 165.5t177.5 116.5t231 44q102 0 191 -22.5t131.5 -46t46.5 -37.5q6 -25 -33 -172.5t-68 -159.5q-3 -1 -38 20.5t-90 44.5t-103 23q-99 0 -151 -47.5t-52 -140.5q0 -55 17.5 -93.5t47.5 -57t59.5 -25.5t63.5 -7q35 0 80.5 15t83 32t43.5 19 q23 6 136 -226l3 -6l2.5 -5l2.5 -5q-31 -54 -103 -98t-162 -63q-92 -346 -98 -351q-7 -3 -84.5 13.5t-151.5 35t-73 21.5q0 4 123 293q-98 26 -174 81.5t-120.5 128t-66.5 153t-22 165.5z" />
<glyph unicode="&#xe8;" horiz-adv-x="1028" d="M37 492q0 106 33.5 203t96 174t161.5 123t221 46q138 0 243 -65t157 -166.5t52 -220.5q0 -104 -18 -166q-70 -9 -254.5 -11.5t-304.5 -0.5q0 -119 180 -119q109 0 221 57q19 -22 70.5 -132t52.5 -134q-48 -43 -149.5 -77t-214.5 -34q-117 0 -211 29.5t-156 79t-103 117.5 t-59 142t-18 155zM246 1309q-3 1 23.5 53t58.5 104.5t41 53.5q4 2 118.5 -57.5t226.5 -120.5l113 -60q-3 -7 -8 -18.5t-19.5 -41.5t-27.5 -53.5t-28 -44.5t-25 -24q-4 -1 -120.5 50.5t-234 105t-118.5 53.5zM420 629l229 4q0 56 -25.5 94.5t-74.5 38.5q-58 0 -93.5 -37.5 t-35.5 -99.5z" />
<glyph unicode="&#xe9;" horiz-adv-x="1028" d="M37 492q0 106 33.5 203t96 174t161.5 123t221 46q138 0 243 -65t157 -166.5t52 -220.5q0 -104 -18 -166q-70 -9 -254.5 -11.5t-304.5 -0.5q0 -119 180 -119q109 0 221 57q19 -22 70.5 -132t52.5 -134q-48 -43 -149.5 -77t-214.5 -34q-117 0 -211 29.5t-156 79t-103 117.5 t-59 142t-18 155zM260 1282l459 238q9 -1 41 -53.5t58.5 -104.5t23.5 -53q-1 0 -118.5 -53.5t-234 -105t-120.5 -50.5q-16 5 -43 50.5t-46 88.5zM420 629l229 4q0 56 -25.5 94.5t-74.5 38.5q-58 0 -93.5 -37.5t-35.5 -99.5z" />
<glyph unicode="&#xea;" horiz-adv-x="1028" d="M37 492q0 106 33.5 203t96 174t161.5 123t221 46q138 0 243 -65t157 -166.5t52 -220.5q0 -104 -18 -166q-70 -9 -254.5 -11.5t-304.5 -0.5q0 -119 180 -119q109 0 221 57q19 -22 70.5 -132t52.5 -134q-48 -43 -149.5 -77t-214.5 -34q-117 0 -211 29.5t-156 79t-103 117.5 t-59 142t-18 155zM174 1272q336 219 375 235q7 -3 101 -61.5t184 -115.5l90 -58q-70 -150 -99 -162q-3 -1 -47 18.5t-110.5 52.5t-118.5 62q-259 -144 -266 -141q-13 5 -40 47.5t-48 82.5zM420 629l229 4q0 56 -25.5 94.5t-74.5 38.5q-58 0 -93.5 -37.5t-35.5 -99.5z" />
<glyph unicode="&#xeb;" horiz-adv-x="1028" d="M37 492q0 106 33.5 203t96 174t161.5 123t221 46q138 0 243 -65t157 -166.5t52 -220.5q0 -104 -18 -166q-70 -9 -254.5 -11.5t-304.5 -0.5q0 -119 180 -119q109 0 221 57q19 -22 70.5 -132t52.5 -134q-48 -43 -149.5 -77t-214.5 -34q-117 0 -211 29.5t-156 79t-103 117.5 t-59 142t-18 155zM137 1309q-1 81 47.5 131.5t120.5 50.5q71 0 125.5 -52.5t54.5 -121.5q0 -80 -38 -133.5t-121 -53.5q-89 0 -137.5 47.5t-51.5 131.5zM420 629l229 4q0 56 -25.5 94.5t-74.5 38.5q-58 0 -93.5 -37.5t-35.5 -99.5zM612 1309q-1 81 48 131.5t120 50.5 t126 -52.5t55 -121.5q0 -79 -38.5 -133t-121.5 -54q-90 0 -138.5 47.5t-50.5 131.5z" />
<glyph unicode="&#xec;" horiz-adv-x="579" d="M-23 1309q-3 1 23.5 53t58.5 104.5t41 53.5q4 2 119 -57.5t227 -120.5l113 -60q-3 -7 -8 -18.5t-19.5 -41.5t-27.5 -53.5t-28 -44.5t-25 -24q-4 -1 -120.5 50.5t-234.5 105t-119 53.5zM86.5 508.5q-5.5 500.5 3.5 519.5q12 15 206 11.5t202 -11.5q6 -6 -6.5 -509.5 t-18.5 -514.5q-7 -9 -190 -8.5t-187 6.5t-9.5 506.5z" />
<glyph unicode="&#xed;" horiz-adv-x="579" d="M18 1282l459 238q9 -1 41 -53.5t58.5 -104.5t23.5 -53q-1 0 -118.5 -53.5t-234 -105t-120.5 -50.5q-16 5 -43 50.5t-46 88.5zM86.5 508.5q-5.5 500.5 3.5 519.5q12 15 206 11.5t202 -11.5q6 -6 -6.5 -509.5t-18.5 -514.5q-7 -9 -190 -8.5t-187 6.5t-9.5 506.5z" />
<glyph unicode="&#xee;" horiz-adv-x="579" d="M-82 1272q336 219 375 235q7 -3 101 -61.5t184 -115.5l90 -58q-70 -150 -99 -162q-3 -1 -47 18.5t-110.5 52.5t-118.5 62q-259 -144 -266 -141q-13 5 -40 47.5t-48 82.5zM86.5 508.5q-5.5 500.5 3.5 519.5q12 15 206 11.5t202 -11.5q6 -6 -6.5 -509.5t-18.5 -514.5 q-7 -9 -190 -8.5t-187 6.5t-9.5 506.5z" />
<glyph unicode="&#xef;" horiz-adv-x="579" d="M-119 1309q-1 81 47.5 131.5t120.5 50.5q71 0 125.5 -52.5t54.5 -121.5q0 -80 -38 -133.5t-121 -53.5q-89 0 -137.5 47.5t-51.5 131.5zM86.5 508.5q-5.5 500.5 3.5 519.5q12 15 206 11.5t202 -11.5q6 -6 -6.5 -509.5t-18.5 -514.5q-7 -9 -190 -8.5t-187 6.5t-9.5 506.5z M356 1309q-1 81 48 131.5t120 50.5t126 -52.5t55 -121.5q0 -79 -38.5 -133t-121.5 -54q-90 0 -138.5 47.5t-50.5 131.5z" />
<glyph unicode="&#xf0;" d="M25 479q0 116 35.5 206.5t94.5 143.5t127 80t140 27q117 0 178 -25l6 9q-21 48 -98 122q-133 -75 -139 -75q-19 0 -51.5 39t-54.5 79t-19 43q35 23 84 52q-40 25 -68 39q19 50 145 150.5t156 100.5q58 -23 133 -81q27 15 63.5 37t56 33.5t20.5 10.5q14 -14 36.5 -60 t38 -86t13.5 -42q-1 0 -11.5 -8t-27 -20t-29.5 -19q113 -131 185.5 -296.5t72.5 -354.5q0 -124 -32.5 -227.5t-86 -172.5t-125 -116.5t-147 -69t-154.5 -21.5q-115 0 -212 31t-171.5 91.5t-116.5 157.5t-42 222zM403 475q0 -66 40 -108.5t112 -42.5q70 0 105.5 45t35.5 116 q0 62 -37.5 108t-111.5 46q-71 0 -107.5 -47.5t-36.5 -116.5z" />
<glyph unicode="&#xf1;" horiz-adv-x="1216" d="M83 550q-2 221 1 454q16 22 197.5 29.5t197.5 -7.5q-5 -114 -6 -119q98 137 311 137q168 0 262.5 -126t94.5 -330q0 -105 -5 -308.5t-10 -275.5q-1 -12 -193.5 -15.5t-195.5 1.5q-3 36 -2.5 130t2.5 250t2 171q0 153 -118 153q-61 0 -98.5 -41.5t-37.5 -91.5 q0 -557 -10 -565q-4 -6 -189.5 -3.5t-191.5 11.5q-2 4 -5.5 164.5t-5.5 381.5zM225 1374q35 44 92.5 75.5t126.5 31.5q41 0 87.5 -18.5t81 -40t80 -40t85.5 -18.5q33 0 63.5 14t44.5 26t38 36q13 -3 41.5 -86.5t31.5 -126.5q-3 -5 -8.5 -12.5t-25 -27.5t-43 -35t-62.5 -27.5 t-82 -12.5q-52 0 -114.5 27t-124 53.5t-111.5 26.5q-74 0 -141 -62q-12 -11 -46 143q-14 60 -14 74z" />
<glyph unicode="&#xf2;" d="M35 520q0 98 38.5 190.5t106.5 165t170.5 116.5t222.5 44q112 0 211.5 -38.5t173.5 -108t117 -174t43 -228.5q0 -97 -38 -188.5t-105.5 -164t-171 -117t-225.5 -46.5q-150 0 -273 65.5t-196.5 192t-73.5 291.5zM272 1309q-3 1 23.5 53t58.5 104.5t41 53.5q4 2 119 -57.5 t228 -120.5l112 -60q-3 -7 -8 -18.5t-20 -41.5t-28 -53.5t-28 -44.5t-25 -24q-4 -1 -120.5 50.5t-234 105t-118.5 53.5zM418 485q0 -70 42 -117t95 -49q85 -3 131.5 43t46.5 130q0 83 -40 122.5t-99 42.5q-85 4 -130.5 -41.5t-45.5 -130.5z" />
<glyph unicode="&#xf3;" d="M35 520q0 98 38.5 190.5t106.5 165t170.5 116.5t222.5 44q112 0 211.5 -38.5t173.5 -108t117 -174t43 -228.5q0 -97 -38 -188.5t-105.5 -164t-171 -117t-225.5 -46.5q-150 0 -273 65.5t-196.5 192t-73.5 291.5zM307 1282l459 238q9 -1 41 -53.5t58.5 -104.5t23.5 -53 q-1 0 -118.5 -53.5t-234 -105t-120.5 -50.5q-16 5 -43 50.5t-47 88.5zM418 485q0 -70 42 -117t95 -49q85 -3 131.5 43t46.5 130q0 83 -40 122.5t-99 42.5q-85 4 -130.5 -41.5t-45.5 -130.5z" />
<glyph unicode="&#xf4;" d="M35 520q0 98 38.5 190.5t106.5 165t170.5 116.5t222.5 44q112 0 211.5 -38.5t173.5 -108t117 -174t43 -228.5q0 -97 -38 -188.5t-105.5 -164t-171 -117t-225.5 -46.5q-150 0 -273 65.5t-196.5 192t-73.5 291.5zM207 1272q336 219 375 235q7 -3 100.5 -61.5t183.5 -115.5 l90 -58q-69 -150 -98 -162q-3 -1 -47 18.5t-110.5 52.5t-118.5 62q-260 -145 -267 -141q-13 5 -40 47.5t-47 82.5zM418 485q0 -70 42 -117t95 -49q85 -3 131.5 43t46.5 130q0 83 -40 122.5t-99 42.5q-85 4 -130.5 -41.5t-45.5 -130.5z" />
<glyph unicode="&#xf5;" d="M35 520q0 98 38.5 190.5t106.5 165t170.5 116.5t222.5 44q112 0 211.5 -38.5t173.5 -108t117 -174t43 -228.5q0 -97 -38 -188.5t-105.5 -164t-171 -117t-225.5 -46.5q-150 0 -273 65.5t-196.5 192t-73.5 291.5zM195 1374q35 44 92.5 75.5t126.5 31.5q41 0 87.5 -18.5 t81 -40t80 -40t85.5 -18.5q33 0 63.5 14t43.5 25.5t38 36.5q13 -3 42 -86.5t32 -126.5q-3 -5 -8.5 -12.5t-25.5 -27.5t-43.5 -35t-62.5 -27.5t-82 -12.5q-52 0 -114.5 27t-124 53.5t-111.5 26.5q-74 0 -141 -62q-12 -11 -46 143q-13 60 -13 74zM418 485q0 -70 42 -117 t95 -49q85 -3 131.5 43t46.5 130q0 83 -40 122.5t-99 42.5q-85 4 -130.5 -41.5t-45.5 -130.5z" />
<glyph unicode="&#xf6;" d="M35 520q0 98 38.5 190.5t106.5 165t170.5 116.5t222.5 44q112 0 211.5 -38.5t173.5 -108t117 -174t43 -228.5q0 -97 -38 -188.5t-105.5 -164t-171 -117t-225.5 -46.5q-150 0 -273 65.5t-196.5 192t-73.5 291.5zM174 1309q-1 81 47.5 131.5t120.5 50.5q71 0 125.5 -52.5 t54.5 -121.5q0 -79 -38.5 -133t-121.5 -54q-89 0 -137 47.5t-51 131.5zM418 485q0 -70 42 -117t95 -49q85 -3 131.5 43t46.5 130q0 83 -40 122.5t-99 42.5q-85 4 -130.5 -41.5t-45.5 -130.5zM649 1309q-1 81 48 131.5t120 50.5t125.5 -52.5t54.5 -121.5q0 -80 -38 -133.5 t-121 -53.5q-90 0 -138.5 47.5t-50.5 131.5z" />
<glyph unicode="&#xf7;" horiz-adv-x="983" d="M49 705l881 6q2 -195 -8 -205l-848 -10q-5 5 -12 57t-11 102t-2 50zM315 197q0 98 41.5 150t151.5 52q89 0 144 -57.5t55 -157.5q0 -72 -56 -121t-143 -49q-88 0 -140.5 48t-52.5 135zM315 1012q0 97 40.5 148.5t150.5 51.5q89 0 144 -57.5t55 -155.5q0 -72 -56 -121 t-143 -49q-88 0 -139.5 47.5t-51.5 135.5z" />
<glyph unicode="&#xf8;" d="M35 520q0 98 38.5 190.5t106.5 165t170.5 116.5t222.5 44q163 0 291 -78q19 23 53 58.5t54 58.5q8 -5 20.5 -13t38.5 -25t42.5 -30t14.5 -16q0 -1 -10.5 -13t-38 -44.5t-57.5 -69.5q137 -150 137 -377q0 -97 -38 -188.5t-105.5 -164t-171 -117t-225.5 -46.5 q-159 0 -293 78q-26 -29 -48.5 -52.5t-35 -35t-13.5 -10.5q-2 2 -18 12.5t-31.5 21.5t-31.5 24t-24 24.5t-5 17.5q33 40 84 99q-127 146 -127 370zM399 485q0 -23 7 -55q21 24 95.5 111t116.5 133l-22 4q-94 4 -145.5 -47.5t-51.5 -145.5zM508 307q19 -8 45 -8 q94 -3 146.5 48.5t52.5 144.5q0 40 -15 83z" />
<glyph unicode="&#xf9;" horiz-adv-x="1200" d="M72 430q0 200 24 584q1 12 193.5 15.5t195.5 -1.5q3 -2 0 -123.5t-7.5 -262.5t-4.5 -165q0 -153 119 -153q60 0 92.5 40.5t32.5 92.5q0 88 4.5 324.5t9.5 240.5q4 6 189.5 3.5t191.5 -11.5q3 -3 1.5 -337.5t-5.5 -662.5q-19 -22 -187.5 -19.5t-187.5 17.5q1 23 0 64t0 47 q-40 -58 -114 -105t-183 -47q-364 0 -364 459zM295 1309q-3 1 23.5 53t58.5 104.5t41 53.5q4 2 119 -57.5t227 -120.5l113 -60q-3 -7 -8 -18.5t-20 -41.5t-28 -53.5t-28 -44.5t-25 -24q-4 -1 -120.5 50.5t-234 105t-118.5 53.5z" />
<glyph unicode="&#xfa;" horiz-adv-x="1200" d="M72 430q0 200 24 584q1 12 193.5 15.5t195.5 -1.5q3 -2 0 -123.5t-7.5 -262.5t-4.5 -165q0 -153 119 -153q60 0 92.5 40.5t32.5 92.5q0 88 4.5 324.5t9.5 240.5q4 6 189.5 3.5t191.5 -11.5q3 -3 1.5 -337.5t-5.5 -662.5q-19 -22 -187.5 -19.5t-187.5 17.5q1 23 0 64t0 47 q-40 -58 -114 -105t-183 -47q-364 0 -364 459zM350 1282l459 238q9 -1 41 -53.5t58.5 -104.5t23.5 -53q-1 0 -118.5 -53.5t-234 -105t-120.5 -50.5q-16 5 -43 50.5t-46 88.5z" />
<glyph unicode="&#xfb;" horiz-adv-x="1200" d="M72 430q0 200 24 584q1 12 193.5 15.5t195.5 -1.5q3 -2 0 -123.5t-7.5 -262.5t-4.5 -165q0 -153 119 -153q60 0 92.5 40.5t32.5 92.5q0 88 4.5 324.5t9.5 240.5q4 6 189.5 3.5t191.5 -11.5q3 -3 1.5 -337.5t-5.5 -662.5q-19 -22 -187.5 -19.5t-187.5 17.5q1 23 0 64t0 47 q-40 -58 -114 -105t-183 -47q-364 0 -364 459zM229 1272q336 219 375 235q7 -3 101 -61.5t184 -115.5l90 -58q-69 -150 -98 -162q-3 -1 -47.5 18.5t-111 52.5t-118.5 62q-259 -144 -266 -141q-13 5 -40 47.5t-48 82.5z" />
<glyph unicode="&#xfc;" horiz-adv-x="1200" d="M72 430q0 200 24 584q1 12 193.5 15.5t195.5 -1.5q3 -2 0 -123.5t-7.5 -262.5t-4.5 -165q0 -153 119 -153q60 0 92.5 40.5t32.5 92.5q0 88 4.5 324.5t9.5 240.5q4 6 189.5 3.5t191.5 -11.5q3 -3 1.5 -337.5t-5.5 -662.5q-19 -22 -187.5 -19.5t-187.5 17.5q1 23 0 64t0 47 q-40 -58 -114 -105t-183 -47q-364 0 -364 459zM193 1309q-1 81 47 131.5t120 50.5q71 0 126 -52.5t55 -121.5q0 -79 -38.5 -133t-121.5 -54q-89 0 -137 47.5t-51 131.5zM668 1309q-1 81 48 131.5t120 50.5t125.5 -52.5t54.5 -121.5q0 -79 -38.5 -133t-121.5 -54 q-90 0 -138 47.5t-50 131.5z" />
<glyph unicode="&#xfd;" horiz-adv-x="1118" d="M12 979q0 10 180.5 41t206.5 31q13 0 79.5 -230.5t82.5 -296.5q11 35 100 283.5t95 249.5q5 1 101 -18t190.5 -41t93.5 -27q-14 -60 -165.5 -417t-299 -687t-154.5 -330q-67 -3 -212 58.5t-169 87.5q181 384 189 423q-70 138 -195 485t-123 388zM358 1282l459 238 q9 -1 41 -53.5t58.5 -104.5t23.5 -53q-1 0 -118.5 -53.5t-234 -105t-120.5 -50.5q-16 5 -43 50.5t-46 88.5z" />
<glyph unicode="&#xfe;" horiz-adv-x="1243" d="M70.5 1194q-2.5 311 21.5 334q30 27 134 28.5t194 -10t98 -18.5q5 -4 11 -150.5t9 -291.5l3 -144q4 4 12 10.5t34 23.5t54.5 30t72 23.5t87.5 10.5q73 0 141.5 -28.5t128 -85t95.5 -155t36 -224.5q0 -142 -36 -254t-97 -179.5t-136 -102t-159 -34.5q-51 0 -105.5 15 t-82.5 30l-29 15q4 -479 -2 -481q-29 -9 -220 -12t-196 3q-4 4 -20 304.5t-31 666t-17.5 676.5zM510 516q0 -69 42.5 -115.5t109.5 -46.5q80 0 121.5 45.5t41.5 116.5q0 69 -47.5 116.5t-115.5 47.5q-75 0 -113.5 -45.5t-38.5 -118.5z" />
<glyph unicode="&#xff;" horiz-adv-x="1118" d="M12 979q0 10 180.5 41t206.5 31q13 0 79.5 -230.5t82.5 -296.5q11 35 100 283.5t95 249.5q5 1 101 -18t190.5 -41t93.5 -27q-14 -60 -165.5 -417t-299 -687t-154.5 -330q-67 -3 -212 58.5t-169 87.5q181 384 189 423q-70 138 -195 485t-123 388zM158 1309 q-1 81 47.5 131.5t120.5 50.5q71 0 125.5 -52.5t54.5 -121.5q0 -79 -38.5 -133t-121.5 -54q-89 0 -137 47.5t-51 131.5zM633 1309q-1 81 48 131.5t120 50.5t125.5 -52.5t54.5 -121.5q0 -79 -38.5 -133t-121.5 -54q-90 0 -138 47.5t-50 131.5z" />
<glyph unicode="&#x152;" horiz-adv-x="2240" d="M41 733q0 112 29 217.5t89 198t145 162t204.5 109.5t259.5 40q235 0 389 -106l4 76q171 10 593.5 11.5t424.5 -7.5q11 -36 11.5 -176.5t-9.5 -206.5q-67 -6 -260.5 -5.5t-335.5 5.5l4 -138q163 2 295 -2.5t141 -13.5q6 -6 9 -44.5t2.5 -90.5t-2 -101t-2.5 -87l-2 -39 q0 -9 -140 -10.5t-303 3.5v-155q138 5 330 5t246 -5q10 -66 9.5 -204.5t-11.5 -174.5q11 -6 -197 -8t-463 1t-358 11q-2 12 -2 53q-152 -90 -367 -90q-335 0 -534 207.5t-199 564.5zM510 709q0 -146 71 -239t183 -93q125 0 190.5 89t65.5 253q0 171 -68.5 251.5t-179.5 80.5 q-122 0 -192 -90.5t-70 -251.5z" />
<glyph unicode="&#x153;" horiz-adv-x="1835" d="M35 520q0 98 38.5 190.5t106.5 165t170.5 116.5t222.5 44q118 0 222.5 -43t179.5 -123q144 168 381 168q138 0 243 -65t157 -166.5t52 -220.5q0 -104 -18 -166q-70 -9 -254.5 -11.5t-304.5 -0.5q0 -119 180 -119q109 0 221 57q19 -22 70.5 -132t52.5 -134 q-48 -43 -149.5 -77t-214.5 -34q-281 0 -424 160q-152 -152 -389 -158q-150 0 -273 65.5t-196.5 192t-73.5 291.5zM418 485q0 -70 42 -117t95 -49q85 -3 131.5 43t46.5 130q0 83 -40 122.5t-99 42.5q-85 4 -130.5 -41.5t-45.5 -130.5zM1227 629l229 4q0 56 -25.5 94.5 t-74.5 38.5q-58 0 -93.5 -37.5t-35.5 -99.5z" />
<glyph unicode="&#x178;" horiz-adv-x="1296" d="M4 1327q1 21 200 80t218 49q5 -3 45 -85t93.5 -199.5t86.5 -202.5h12q36 69 99 199t103 209t46 79q25 0 217 -55t193 -74q2 -28 -443 -784q10 -475 -6 -541q-5 -20 -120 -22.5t-228 6t-114 16.5q-6 69 8 541q-11 22 -63 117t-107 198t-111.5 209.5t-93 179t-35.5 80.5z M244 1718q-1 81 47.5 132t120.5 51q71 0 125.5 -53t54.5 -122q0 -79 -38.5 -132.5t-121.5 -53.5q-89 0 -137 47t-51 131zM719 1718q-1 81 48 132t120 51t125.5 -53t54.5 -122q0 -79 -38.5 -132.5t-121.5 -53.5q-90 0 -138 47t-50 131z" />
<glyph unicode="&#x2c6;" horiz-adv-x="1024" d="M137 1272q336 219 375 235q7 -3 101 -61.5t184 -115.5l90 -58q-70 -150 -99 -162q-3 -1 -47 18.5t-110.5 52.5t-118.5 62q-259 -144 -266 -141q-13 5 -40 47.5t-48 82.5z" />
<glyph unicode="&#x2dc;" horiz-adv-x="1024" d="M125 1374q35 44 92.5 75.5t126.5 31.5q41 0 87.5 -18.5t81 -40t80 -40t85.5 -18.5q33 0 63.5 14t43.5 25.5t38 36.5q13 -3 42 -86.5t32 -126.5q-3 -5 -8.5 -12.5t-25 -27.5t-43 -35t-62.5 -27.5t-82 -12.5q-52 0 -114.5 27t-124 53.5t-111.5 26.5q-75 0 -142 -62 q-12 -11 -46 143q-13 60 -13 74z" />
<glyph unicode="&#x2000;" horiz-adv-x="964" />
<glyph unicode="&#x2001;" horiz-adv-x="1929" />
<glyph unicode="&#x2002;" horiz-adv-x="964" />
<glyph unicode="&#x2003;" horiz-adv-x="1929" />
<glyph unicode="&#x2004;" horiz-adv-x="643" />
<glyph unicode="&#x2005;" horiz-adv-x="482" />
<glyph unicode="&#x2006;" horiz-adv-x="321" />
<glyph unicode="&#x2007;" horiz-adv-x="321" />
<glyph unicode="&#x2008;" horiz-adv-x="241" />
<glyph unicode="&#x2009;" horiz-adv-x="385" />
<glyph unicode="&#x200a;" horiz-adv-x="107" />
<glyph unicode="&#x2010;" horiz-adv-x="833" d="M76.5 649.5q0.5 59.5 3.5 71.5q9 5 337 15.5t331 0.5q5 -36 3 -103t-7.5 -132.5t-8.5 -65.5l-66 -2q-66 -2 -152.5 -4t-181.5 -4t-153.5 -2t-68.5 2q-17 13 -27 88.5t-9.5 135z" />
<glyph unicode="&#x2011;" horiz-adv-x="833" d="M76.5 649.5q0.5 59.5 3.5 71.5q9 5 337 15.5t331 0.5q5 -36 3 -103t-7.5 -132.5t-8.5 -65.5l-66 -2q-66 -2 -152.5 -4t-181.5 -4t-153.5 -2t-68.5 2q-17 13 -27 88.5t-9.5 135z" />
<glyph unicode="&#x2012;" horiz-adv-x="833" d="M76.5 649.5q0.5 59.5 3.5 71.5q9 5 337 15.5t331 0.5q5 -36 3 -103t-7.5 -132.5t-8.5 -65.5l-66 -2q-66 -2 -152.5 -4t-181.5 -4t-153.5 -2t-68.5 2q-17 13 -27 88.5t-9.5 135z" />
<glyph unicode="&#x2013;" horiz-adv-x="1052" d="M81.5 553.5q1.5 145.5 8.5 148.5q9 5 443.5 16t437.5 1q3 -13 -3 -151t-10 -138q-2 0 -431 -11t-437 -11q-10 0 -8.5 145.5z" />
<glyph unicode="&#x2014;" horiz-adv-x="1519" d="M81.5 584.5q1.5 135.5 8.5 138.5q9 5 679 15.5t673 0.5q3 -13 -2.5 -140.5t-9.5 -127.5q-2 0 -667 -11t-673 -11q-10 0 -8.5 135.5z" />
<glyph unicode="&#x2018;" horiz-adv-x="573" d="M33 821q0 214 246 633q3 5 50 -7.5t101 -36.5t70 -48q1 -2 -9.5 -23.5t-31 -59t-39 -70.5t-43.5 -77.5t-35 -62.5q78 -13 134 -79t56 -163q0 -123 -72.5 -189.5t-205.5 -59.5q-44 2 -81 16t-70 41t-51.5 74.5t-18.5 111.5z" />
<glyph unicode="&#x2019;" horiz-adv-x="567" d="M41 1202q0 123 72.5 190t205.5 60q44 -2 81.5 -16t70 -41t51.5 -75t19 -112q0 -214 -246 -633q-3 -5 -50 7.5t-101 37t-70 48.5q-3 6 157 293q-78 13 -134 78.5t-56 162.5z" />
<glyph unicode="&#x201a;" horiz-adv-x="589" d="M43 213q0 123 73 190t206 60q44 -2 81 -16t69.5 -41t51.5 -75t19 -112q0 -214 -246 -633q-3 -5 -50 7.5t-101 36.5t-70 48q-3 6 157 293q-78 13 -134 79t-56 163z" />
<glyph unicode="&#x201c;" horiz-adv-x="1067" d="M31 881q0 194 223 573q3 4 46 -6.5t92 -32.5t63 -43q3 -5 -144 -266q71 -11 121.5 -71t50.5 -148q0 -111 -65.5 -171.5t-186.5 -53.5q-39 2 -73 14t-63.5 36.5t-46.5 67.5t-17 101zM571 881q0 193 224 573q3 4 46 -6.5t91.5 -32.5t62.5 -43q3 -6 -143 -266 q71 -11 121.5 -71t50.5 -148q0 -111 -65.5 -171.5t-186.5 -53.5q-39 2 -73 14t-64 36.5t-47 68t-17 100.5z" />
<glyph unicode="&#x201d;" horiz-adv-x="1067" d="M43 1225q0 110 65.5 170.5t186.5 54.5q84 -5 141.5 -57.5t57.5 -163.5q0 -193 -222 -570q-3 -4 -45.5 6.5t-91 32.5t-63.5 43q-3 12 143 265q-71 13 -121.5 72t-50.5 147zM588 1227q0 110 65.5 170.5t186.5 54.5q84 -5 141 -57.5t57 -163.5q0 -194 -221 -569 q-3 -4 -45.5 6.5t-91.5 32t-64 42.5q-3 11 144 265q-71 13 -121.5 72t-50.5 147z" />
<glyph unicode="&#x201e;" horiz-adv-x="1087" d="M43 207q0 110 65.5 170.5t186.5 54.5q84 -5 141.5 -57.5t57.5 -163.5q0 -192 -222 -569q-3 -4 -45.5 6.5t-91 32.5t-63.5 43q-3 11 143 264q-71 13 -121.5 72t-50.5 147zM588 203q0 110 65.5 170.5t186.5 54.5q84 -5 141 -57.5t57 -163.5q0 -194 -221 -569 q-3 -4 -45.5 6.5t-91.5 32t-64 42.5q-3 11 144 265q-71 13 -121.5 72t-50.5 147z" />
<glyph unicode="&#x2022;" horiz-adv-x="743" d="M96 606q0 138 79 202t206 64q118 0 193 -71.5t75 -196.5q0 -116 -68 -197t-200 -81q-133 0 -209 68t-76 212z" />
<glyph unicode="&#x2026;" horiz-adv-x="1624" d="M43 184q0 109 64.5 169.5t183.5 54.5q83 -5 139.5 -57t56.5 -161q0 -107 -65.5 -166t-185.5 -55q-74 2 -133.5 62.5t-59.5 152.5zM590 184q0 109 64.5 169.5t183.5 54.5q83 -5 139.5 -57t56.5 -161q0 -107 -66 -166t-186 -55q-74 2 -133 62.5t-59 152.5zM1135 184 q0 109 64 169.5t183 54.5q83 -5 140 -57t57 -161q0 -107 -66 -166t-186 -55q-74 2 -133 62.5t-59 152.5z" />
<glyph unicode="&#x202f;" horiz-adv-x="385" />
<glyph unicode="&#x2039;" horiz-adv-x="587" d="M37 616q0 9 172 246.5t180 243.5q6 4 64.5 -38.5t58.5 -47.5q0 -2 -98 -192.5t-97 -194.5q1 -3 107 -212.5t106 -215.5q0 -7 -71 -66t-74 -57q-4 2 -176 263.5t-172 270.5z" />
<glyph unicode="&#x203a;" horiz-adv-x="587" d="M55 987q0 7 71.5 66t74.5 57q4 -2 176 -253.5t172 -260.5t-172 -256.5t-180 -253.5q-6 -4 -64.5 38.5t-58.5 47.5q0 2 97.5 207.5t96.5 210.5q-1 3 -107 197t-106 200z" />
<glyph unicode="&#x205f;" horiz-adv-x="482" />
<glyph unicode="&#x20ac;" horiz-adv-x="1380" d="M50 822q6 78 11 81q23 0 69 -1t69 -1q48 251 230.5 403t457.5 152q154 0 270.5 -41t163.5 -94q-2 -44 -57 -192.5t-93 -184.5q-151 94 -278 94q-76 0 -141 -38.5t-103 -106.5l283 -4q0 -6 -6.5 -69.5t-7.5 -67.5q-12 1 -36 2t-105 2t-169 0q-2 -12 -2 -41q0 -30 4 -76 q56 0 167 1t167 1q3 -1 3.5 -67t-1.5 -70q-1 -1 -284 -10q73 -107 212 -107q26 0 51 4t44.5 9t41 14.5t34.5 16t31 19t25 18t21.5 17t16.5 13.5q33 -25 91 -134t93 -194q-66 -88 -200.5 -147.5t-291.5 -59.5q-253 0 -410 139t-212 375q-39 0 -129 -4q-7 3 -10 81t2 81h112 q-2 33 -2 59v51q-37 0 -131 -4q-7 3 -1 81z" />
<glyph unicode="&#x2122;" horiz-adv-x="1628" d="M88.5 1363.5q-1.5 68.5 3.5 72.5q3 5 279.5 10.5t302.5 -0.5q8 -2 11.5 -45.5t2 -86t-5.5 -42.5q-10 -2 -176 -10q0 -460 -2 -463q-3 -3 -63 -5.5t-110.5 -3t-58.5 2.5q-8 82 -4 471q-145 0 -172 4q-6 27 -7.5 95.5zM725 811q0 28 49 304t60 315q4 12 93 12.5t107 -4.5 q14 -23 48.5 -143t62.5 -234h6q92 356 109 369q8 7 101 8.5t107 -2.5q6 -3 51 -304.5t42 -322.5q-5 -8 -55 -16t-97.5 -11t-48.5 0q-3 11 -8 65t-12 138t-13 137h-4q-12 -42 -32 -120.5t-35 -133t-25 -77.5q-13 -3 -89.5 -2.5t-82.5 4.5q-10 17 -86 333h-4 q-8 -54 -22 -183.5t-19 -156.5q-32 -2 -117.5 8.5t-85.5 16.5z" />
<glyph unicode="&#x25fc;" horiz-adv-x="1054" d="M0 0v1055h1055v-1055h-1055z" />
</font>
</defs>
</svg>
