<?xml version="1.0" standalone="no"?>
<!DOCTYPE svg PUBLIC "-//W3C//DTD SVG 1.1//EN" "http://www.w3.org/Graphics/SVG/1.1/DTD/svg11.dtd" >
<svg xmlns="http://www.w3.org/2000/svg">
<metadata></metadata>
<defs>
<font id="mikado_regularregular" horiz-adv-x="1400" >
<font-face units-per-em="2048" ascent="1536" descent="-512" />
<missing-glyph horiz-adv-x="485" />
<glyph unicode="&#xfb01;" horiz-adv-x="1239" d="M51 886.5q-6 62.5 0 71.5q4 5 57 9t103.5 5.5t50.5 2.5l-1 13q-1 13 -2 33.5t-2 43.5t-2 47.5t-1 42.5q0 164 103.5 274.5t265.5 110.5q59 0 114.5 -13.5t96 -34.5t65 -38t41.5 -33q-6 -32 -34 -84.5t-40 -52.5q-5 0 -22.5 13t-39.5 29t-62.5 29t-86.5 13 q-219 0 -219 -250q0 -22 -1 -81.5t-1 -61.5q26 -1 190 1t305 1.5t156 -6.5q6 -4 5.5 -480t-5.5 -487q-7 -9 -82 -8.5t-79 6.5q-2 2 -6.5 154t-8.5 352.5t-4 316.5q-67 -2 -182 -2.5t-200.5 0.5t-86.5 2q-1 0 1.5 -211.5t5 -395t-2.5 -218.5q-10 -10 -89.5 -16.5t-86.5 10.5 q-6 25 -6 827q-6 1 -100.5 -0.5t-94.5 0.5q-6 3 -12 65.5z" />
<glyph unicode="&#xfb02;" horiz-adv-x="1251" d="M51 886.5q-6 62.5 0 71.5q4 5 57 9t103.5 5.5t50.5 2.5l-1 13q-1 13 -2 33.5t-2 43.5t-2 47.5t-1 42.5q0 171 116.5 278t291.5 107q158 0 278 -72l12 52q38 7 82 7t56 -5q6 -4 5.5 -755.5t-5.5 -762.5q-7 -9 -82.5 -8.5t-79.5 6.5q-1 2 -4.5 251t-7 564.5t-3.5 464.5 q-97 88 -231 88q-115 0 -180.5 -62.5t-65.5 -189.5q0 -22 -1 -81.5t-1 -61.5q18 0 49.5 0.5t91 1.5t121.5 2q22 -83 -2 -156q-256 0 -258 2q-1 0 1.5 -211.5t5 -395t-2.5 -218.5q-10 -10 -89.5 -16.5t-86.5 10.5q-6 25 -6 827q-6 1 -100.5 -0.5t-94.5 0.5q-6 3 -12 65.5z " />
<glyph horiz-adv-x="0" />
<glyph horiz-adv-x="0" />
<glyph horiz-adv-x="682" />
<glyph unicode="&#xd;" horiz-adv-x="0" />
<glyph unicode=" "  horiz-adv-x="485" />
<glyph unicode="&#x09;" horiz-adv-x="485" />
<glyph unicode="&#xa0;" horiz-adv-x="485" />
<glyph unicode="!" horiz-adv-x="567" d="M125 154q0 71 46.5 113.5t125.5 39.5q65 -2 107 -40.5t42 -112.5q0 -167 -172 -164q-62 0 -105.5 45.5t-43.5 118.5zM174 1438q12 9 107 11.5t110 -5.5q1 -89 -35 -508.5t-43 -431.5q-9 -11 -37 -9.5t-34 7.5q-2 4 -21 211.5t-35 440t-12 284.5z" />
<glyph unicode="&#x22;" horiz-adv-x="804" d="M127 1479q0 1 42 5t78 5t42 -4q0 -30 -9.5 -314t-13.5 -284q-3 0 -31 -2t-53.5 -3.5t-25.5 -0.5l-2 44q-3 44 -7 109.5t-8 142.5t-7 143t-4.5 111.5t-0.5 47.5zM513.5 1431.5q-1.5 45.5 0.5 47.5q0 1 42 5t78 5t42 -4q0 -30 -9.5 -314t-13.5 -284q-3 0 -31.5 -2 t-54.5 -3.5t-26 -0.5l-3 44q-2 44 -5.5 109.5t-7.5 142.5t-7 143t-4.5 111.5z" />
<glyph unicode="#" horiz-adv-x="1298" d="M82 354q-6 8 1.5 56t14.5 49q6 3 101 5.5t112 2.5q0 3 39.5 202t40.5 199l-218 -2l-30 2q-7 4 4 56.5t17 52.5q17 0 131 4.5t117 7.5l86 443q3 5 39 9.5t65.5 4.5t34.5 -4q0 -7 -47 -229.5t-49 -225.5q1 -3 164.5 -0.5t168.5 4.5q4 0 44 216.5t40 226.5q0 8 125 8 q2 0 -21.5 -112.5t-46.5 -225t-20 -111.5q8 2 118 2t110 -4q0 -11 -7.5 -67t-11.5 -56l-233 2l-86 -397q239 2 239 -6q0 -14 -2.5 -64.5t-5.5 -50.5h-14q-15 0 -36.5 0.5t-48 0.5h-52.5h-47.5t-35.5 -1t-14 -2q-3 -2 -21.5 -93t-36.5 -181l-17 -90q-115 2 -117 6 q-3 3 27 176.5t32 177.5q0 6 -163 3l-162 -3q-1 0 -33.5 -173.5t-32.5 -176.5l-117 12l62 344q-199 -8 -207 2zM438 475q7 1 161 1t159 1q4 0 23.5 98.5t36.5 197.5l18 99h-322q-5 -25 -13.5 -66.5t-26 -128.5t-28 -145t-8.5 -57z" />
<glyph unicode="$" horiz-adv-x="1153" d="M88 170q-2 19 17.5 55.5t42.5 62t32 17.5q157 -157 352 -170l-4 524q-216 50 -319 145t-103 251q0 153 113 267.5t307 131.5q0 148 2 150q4 10 30.5 13.5t50.5 2t24 -3.5v-162q224 -10 391 -121q9 -7 -5.5 -41.5t-35.5 -65.5t-29 -28q-173 94 -321 107v-508 q226 -64 332 -154t106 -240q0 -170 -118.5 -280t-319.5 -129v-158l-60 -14q-34 -5 -36 4q-2 3 -5 164q-146 4 -266.5 62t-177.5 118zM279 1061q0 -35 9 -63t34 -59.5t77 -60.5t129 -53q-2 199 -2 478q-120 -13 -183.5 -80t-63.5 -162zM633 139q118 13 190 76.5t72 177.5 q0 73 -63 131t-199 103v-488z" />
<glyph unicode="%" horiz-adv-x="1640" d="M72 1087q0 154 94.5 244t232.5 90q139 0 225.5 -91t86.5 -255q0 -63 -18.5 -121.5t-55 -106.5t-97.5 -77t-139 -29q-151 0 -240 87.5t-89 258.5zM209 1071q0 -94 52 -141t126 -47q82 0 136.5 46.5t54.5 141.5q0 93 -44.5 157t-130.5 64q-101 0 -147.5 -61t-46.5 -160z M371 4q-2 5 366 724t381 736q10 5 36 3t53 -12.5t26 -22.5q-2 -27 -362 -743.5t-386 -723.5q-32 -8 -71 9t-43 30zM913 334q0 158 97 249t239 91t230 -92.5t88 -259.5q0 -66 -19 -125.5t-56.5 -109t-99.5 -78.5t-141 -29q-155 0 -246.5 89t-91.5 265zM1049 315 q0 -98 54.5 -147t131.5 -49q87 0 144 48.5t57 147.5q0 98 -46.5 165t-136.5 67q-107 0 -155.5 -64t-48.5 -168z" />
<glyph unicode="&#x26;" horiz-adv-x="1368" d="M145 346q0 78 23 143.5t71.5 118t77.5 76.5t85 63q12 9 18 13q-201 222 -201 368q0 137 106.5 235.5t288.5 98.5q160 0 271.5 -97t111.5 -247q0 -49 -18 -96.5t-47 -84.5t-63.5 -70.5t-69.5 -57t-64 -41.5t-47 -26l-18 -9l278 -319q142 163 226 278q28 3 78.5 -27.5 t64.5 -58.5q-43 -63 -106 -144t-105 -131l-41 -50l188 -195q-21 -45 -66.5 -85.5t-72.5 -43.5l-172 193q-1 -1 -16 -15.5t-25.5 -24.5t-33.5 -28t-44 -30.5t-53.5 -28t-64.5 -25.5t-73.5 -16.5t-84.5 -6.5q-185 0 -293.5 105.5t-108.5 265.5zM336 362q0 -89 61 -154t160 -65 q49 0 95.5 15t77 37t54 44t34.5 37l11 15l-301 360q-3 -3 -31 -25t-42.5 -35t-40.5 -41.5t-40.5 -53.5t-26 -61t-11.5 -73zM391 1130q0 -46 30 -102.5t62 -96t82 -93.5q28 16 32.5 18.5t34 19.5t39 24.5t35.5 26t37 30t29 31.5t26 36.5t14.5 37.5t6.5 42q0 90 -60 147.5 t-159 57.5q-87 0 -148 -58t-61 -121z" />
<glyph unicode="'" horiz-adv-x="417" d="M127 1479q0 1 42.5 5t79 5t42.5 -4q0 -28 -10.5 -313t-14.5 -285q-3 0 -31 -2t-53.5 -3.5t-25.5 -0.5l-2 44q-3 44 -7 109.5t-8 142.5t-7 143t-4.5 111.5t-0.5 47.5z" />
<glyph unicode="(" horiz-adv-x="778" d="M102 631q0 162 32.5 297t84.5 222t115.5 153t126 101.5t115 56t85 26.5t33.5 4q9 -19 15 -63.5t6 -63.5q0 -3 -15.5 -8t-42 -14t-61 -23t-72.5 -40.5t-75.5 -62.5t-72 -91.5t-61 -124t-42 -165.5t-15.5 -210q0 -109 16 -204.5t43 -164.5t62.5 -127t74 -96.5t77.5 -68 t74.5 -46.5t62.5 -27.5t43 -14.5l16 -5q-2 -27 -13.5 -60t-23.5 -54t-16 -21q-6 0 -33.5 7t-81.5 31t-112 62t-121 108t-112 159.5t-80.5 227t-31.5 300.5z" />
<glyph unicode=")" horiz-adv-x="776" d="M47 -133q0 3 16 8t43 14t62.5 23.5t74.5 41t77.5 62t74 91.5t62.5 124t43 165t16 210q0 109 -15.5 204.5t-41.5 164.5t-60 127t-71.5 96.5t-75.5 68t-72 46.5t-60 27.5t-42 15.5l-15 4q4 41 17.5 88t19.5 47t33.5 -7t82 -31t112.5 -62t121 -108t112 -159.5t81 -227 t32 -300.5q0 -162 -32.5 -297t-84.5 -222t-115.5 -153t-126 -101.5t-115 -56t-85 -26.5t-33.5 -4q-11 20 -23 67t-12 60z" />
<glyph unicode="*" horiz-adv-x="864" d="M100 1098q0 4 113 73t113 70q0 2 -111 79.5t-111 80.5q0 5 31 40.5t37 35.5q3 1 106 -75t105 -77q1 -1 7.5 58t13.5 119l6 59q88 1 92 -5q1 -2 -4 -67t-10 -128t-3 -63l59 25q60 25 120 49.5t63 22.5q2 -2 13 -30.5t21 -56.5t9 -28t-63.5 -17.5t-124 -35.5t-60.5 -19 l211 -137q-65 -94 -71 -96q-3 -3 -93.5 74t-97.5 84q-2 2 0.5 -56t6 -121t3.5 -65q0 -7 -48.5 -10.5t-55.5 -1.5q-2 1 -2.5 28t1 66t3 77.5t3 67t1.5 29.5q-219 -146 -225 -146q-2 0 -30 47t-28 50z" />
<glyph unicode="+" horiz-adv-x="1095" d="M80 623q0 24 2 28l399 6v414q53 14 123 -2v-399h410q2 -109 -8 -115q-6 -5 -195 -13.5t-193 -9.5q-6 -2 -8.5 -209.5t-3.5 -209.5q-2 -7 -57.5 -11t-59.5 11q-1 9 -3.5 116t-5 208.5t-3.5 103.5q-1 1 -191 -3t-196 -1q-5 3 -7.5 32.5t-2.5 53.5z" />
<glyph unicode="," horiz-adv-x="532" d="M111 125q0 76 44 117t126 37q58 -4 97.5 -39t39.5 -111q0 -85 -60.5 -249.5t-111.5 -252.5q-2 -2 -24.5 3t-49.5 18t-37 30q-1 2 23.5 59.5t56.5 137t45 119.5q-62 2 -105.5 37t-43.5 94z" />
<glyph unicode="-" horiz-adv-x="780" d="M142.5 589q-3.5 62 2.5 64q9 2 242 8.5t242 2.5q9 -8 10 -42.5t-1.5 -65t-4.5 -32.5q0 -1 -102.5 -4t-208.5 -4.5t-164 0.5q-12 11 -15.5 73z" />
<glyph unicode="." horiz-adv-x="544" d="M111 141q0 81 46.5 124.5t133.5 39.5q61 -3 102 -41t41 -117t-47.5 -121.5t-134.5 -41.5q-56 3 -98.5 47t-42.5 110z" />
<glyph unicode="/" horiz-adv-x="919" d="M49 -78q0 4 347.5 825t351.5 824q124 -29 126 -41q1 -5 -172 -422t-350.5 -832.5t-185.5 -414.5q-21 0 -71 21.5t-46 39.5z" />
<glyph unicode="0" horiz-adv-x="1259" d="M117 702q0 374 134.5 563t371.5 189q240 0 381 -188t141 -570q0 -226 -57.5 -389.5t-173 -253.5t-279.5 -90q-261 0 -389.5 189t-128.5 550zM297 690q0 -173 33 -296t109 -195t192 -72q165 0 244 148.5t79 416.5q0 281 -80 434.5t-247 153.5t-248.5 -152.5t-81.5 -437.5z " />
<glyph unicode="1" horiz-adv-x="743" d="M41 1178q28 30 201 144.5t207 125.5q16 -3 38.5 -9.5t49.5 -18.5t32 -23q0 -1307 -6 -1389q-6 -6 -91 -10.5t-91 8.5q-4 117 -2 517t6 710l-161 -114q-113 -77 -128 -75q-11 1 -35.5 64t-19.5 70z" />
<glyph unicode="2" horiz-adv-x="1042" d="M78 135q77 87 179.5 197t163.5 175.5t129.5 146.5t105 138t61 121.5t24.5 124.5q0 107 -62.5 174.5t-191.5 67.5q-26 0 -50 -3.5t-45 -11.5t-39 -15.5t-36 -20.5t-30 -21.5t-26.5 -23.5t-21 -21.5t-18.5 -20.5t-14 -16q-28 6 -70 57.5t-33 73.5q5 11 22 32t53 51 t80.5 55.5t111.5 44t139 18.5q198 0 311 -105t113 -294q0 -60 -15 -120t-49.5 -123.5t-69 -116t-97 -126t-108 -124t-127 -138.5t-130.5 -143l4 -4l569 6q18 -9 14 -89.5t-20 -80.5q-38 -2 -411 -2.5t-385 2.5q-8 3 -22.5 61t-8.5 74z" />
<glyph unicode="3" horiz-adv-x="1097" d="M86 117q-3 19 30.5 69.5t61.5 61.5q52 -43 135 -75t185 -32q140 0 223.5 68t83.5 186q0 116 -74.5 184t-224.5 68q-20 0 -116 1t-118 1q-12 18 -12 81.5t14 78.5q22 0 111.5 -2t140.5 -2q35 0 73 12t76 37t62.5 73.5t24.5 112.5q0 118 -78 186t-190 68q-52 0 -96.5 -10.5 t-79 -31t-56 -38t-47.5 -43.5q-23 1 -58.5 41.5t-50.5 69.5q50 69 157.5 122.5t246.5 53.5q192 0 313 -107.5t121 -287.5q0 -65 -20 -124t-51 -99t-59.5 -65t-53.5 -38v-12q24 -7 49 -18.5t59.5 -38.5t60 -62t44 -93t18.5 -128q0 -127 -66.5 -221t-174 -140.5t-238.5 -46.5 q-144 0 -265 46.5t-161 93.5z" />
<glyph unicode="4" horiz-adv-x="1196" d="M47 442q26 58 312.5 479t369.5 523q41 2 101 -6t79 -27l-2 -948q186 -2 221 -2q4 -6 4 -43t-2 -71l-2 -34q0 -2 -56 -3t-112 -1h-55q-1 -3 -0.5 -31.5t1 -76t1.5 -91t1.5 -76.5t0.5 -34q-96 -28 -176 10l2 297q-33 -2 -323.5 -2.5t-339.5 2.5q-25 104 -25 135zM250 461 h485l8 727l-6 2q-3 -4 -84.5 -123t-161.5 -236t-155 -231.5t-86 -138.5z" />
<glyph unicode="5" horiz-adv-x="1105" d="M74 162q5 35 39 84t45 49q3 0 20 -16t46 -39t67.5 -46t97 -39t121.5 -16q139 0 227 80t88 238q0 82 -29 145.5t-93.5 102.5t-157.5 40q-41 1 -79.5 -5.5t-72 -20t-53 -22.5t-44.5 -25l-26 -15l-100 62q0 121 18.5 394.5t30.5 318.5q11 4 347.5 8.5t385.5 -0.5 q4 -164 -6 -166l-586 -10l-24 -426q105 65 254 65q189 0 305.5 -116t116.5 -324q0 -124 -39 -219t-107.5 -153t-156 -87t-191.5 -29q-92 0 -175 22t-136.5 54.5t-86.5 61t-46 49.5z" />
<glyph unicode="6" horiz-adv-x="1153" d="M109 590q0 163 43.5 301.5t110 231t155 163.5t169 109t161.5 59q26 0 75 -49.5t49 -79.5q-157 -37 -283 -123t-200.5 -207.5t-79.5 -257.5l6 -8q126 178 338 178q77 0 149 -25.5t134.5 -77.5t100.5 -142.5t38 -208.5t-38 -210t-105.5 -149.5t-155.5 -87t-192 -29.5 q-89 0 -171.5 36.5t-151.5 108t-110.5 192.5t-41.5 276zM322 457q0 -141 70.5 -231.5t209.5 -90.5q145 0 223 84.5t78 216.5q0 65 -17 121.5t-50.5 102t-89.5 72t-128 26.5q-76 0 -135 -26t-93 -70t-51 -96t-17 -109z" />
<glyph unicode="7" horiz-adv-x="952" d="M65.5 1348.5q0.5 75.5 10.5 83.5q59 4 259 5.5t375 1t177 -2.5q5 -4 10 -42.5t7 -75.5l3 -36l-553 -1298q-9 0 -43 3t-85 13.5t-68 26.5l549 1233l-629 -5q-13 18 -12.5 93.5z" />
<glyph unicode="8" horiz-adv-x="1212" d="M109 397q0 126 76.5 220t170.5 126q-86 37 -147.5 120.5t-61.5 191.5q0 99 35 176.5t97 125.5t142 72.5t175 24.5q206 0 333.5 -103.5t127.5 -299.5q0 -106 -55 -186.5t-132 -114.5q90 -36 163 -133.5t73 -229.5q0 -129 -66 -224.5t-174.5 -142.5t-244.5 -47 q-236 0 -374 105.5t-138 318.5zM299 403q0 -126 77 -199t232 -73q154 0 233 74.5t79 183.5q0 124 -76 200.5t-232 76.5q-160 0 -236.5 -74.5t-76.5 -188.5zM319 1057q0 -103 70.5 -170.5t208.5 -67.5q140 0 209.5 57.5t69.5 165.5q0 116 -66.5 187t-202.5 71 q-145 0 -217 -68.5t-72 -174.5z" />
<glyph unicode="9" horiz-adv-x="1146" d="M76 979q0 118 38 210t105 149t154.5 86.5t191.5 29.5q70 0 136.5 -22t127.5 -70t106.5 -118t73 -173.5t27.5 -228.5q0 -163 -43.5 -302t-109 -231t-153.5 -163.5t-167.5 -109.5t-159.5 -59q-27 0 -75.5 49.5t-48.5 79.5q237 56 392.5 217.5t164.5 366.5l-7 8 q-123 -174 -337 -174q-59 0 -116.5 15.5t-112 50.5t-96 86.5t-66.5 129.5t-25 173zM248 995q0 -88 28.5 -158t94 -115.5t159.5 -45.5q75 0 133.5 25.5t93 69t51.5 95.5t17 109q0 141 -70 231t-208 90q-144 0 -221.5 -84.5t-77.5 -216.5z" />
<glyph unicode=":" horiz-adv-x="587" d="M137 748q0 77 45 119t127 38q59 -3 98 -38.5t39 -112.5q0 -76 -45 -117.5t-129 -40.5q-54 3 -94.5 46t-40.5 106zM143 131q0 78 44 119t126 37q59 -3 98.5 -39t39.5 -111q0 -74 -46 -115t-129 -40q-52 3 -92.5 45t-40.5 104z" />
<glyph unicode=";" horiz-adv-x="598" d="M135 748q0 77 45 119t127 38q59 -3 98 -38.5t39 -112.5q0 -76 -45 -117.5t-129 -40.5q-54 3 -94.5 46t-40.5 106zM160 100q0 73 42 112.5t120 35.5q54 -4 92.5 -37.5t38.5 -106.5q0 -81 -57.5 -236.5t-106.5 -242.5q-2 -2 -23.5 3t-47.5 17.5t-36 28.5q-1 2 22 57t54 130 t43 114q-59 2 -100 35.5t-41 89.5z" />
<glyph unicode="&#x3c;" horiz-adv-x="1009" d="M78 666q0 7 390 180t398 166q9 -8 26 -58t13 -57q-5 -8 -327.5 -147.5t-323.5 -141.5q-3 -3 148.5 -78.5t305.5 -150t158 -74.5q5 0 -3.5 -29t-20 -60t-15.5 -36q-4 -4 -187 87t-366.5 184.5t-185.5 93.5q-10 0 -10 121z" />
<glyph unicode="=" horiz-adv-x="1058" d="M145 827q0 27 2 25q744 4 762 -23q9 -14 5 -38t-12 -46.5t-11 -23.5l-363 6q-364 6 -370 6q-12 2 -13 94zM173 378.5q-9 50.5 1 57.5q2 2 356.5 10.5t354.5 4.5q0 -5 -8 -73.5t-9 -68.5q-51 0 -362 4.5t-316 8.5q-8 6 -17 56.5z" />
<glyph unicode="&#x3e;" horiz-adv-x="1013" d="M121 258q5 0 169 80.5t325.5 162.5t158.5 85l-322 146q-322 145 -327 153q-4 9 12 55.5t25 54.5q8 7 388 -163t380 -177q0 -1 1 -15t2 -31.5t1 -36t-1.5 -30.5t-4.5 -12q-5 0 -198 -101t-385 -199.5t-195 -94.5q-4 5 -12.5 35.5t-14.5 59t-2 28.5z" />
<glyph unicode="?" horiz-adv-x="919" d="M76 1360q38 45 128 76.5t220 31.5q117 0 209.5 -44t149.5 -135t57 -216q0 -89 -32 -164.5t-87.5 -126.5t-125.5 -83.5t-149 -43.5l-14 -161q-22 -5 -66 -6.5t-67 1.5q-7 9 -9.5 80.5t-1.5 138.5l1 68q162 0 266 73.5t104 215.5q0 40 -14 80t-43 77t-80.5 60t-118.5 23 q-68 0 -132.5 -21t-94.5 -42l-31 -21q-9 10 -21.5 26.5t-32 53.5t-15.5 59zM201 154q0 72 46.5 114t127.5 39q63 -2 105 -40.5t42 -112.5q0 -167 -172 -164q-62 0 -105.5 45.5t-43.5 118.5z" />
<glyph unicode="@" horiz-adv-x="2134" d="M90 436q0 103 21 208.5t66 210.5t109 200t155 176.5t200 141.5t248.5 94t294.5 34q179 0 333 -55t266 -154t176 -246t64 -323q0 -146 -30.5 -268.5t-82 -206.5t-119.5 -143t-141.5 -86t-148.5 -27q-109 0 -174 64t-76 157h-12q-48 -71 -119.5 -119.5t-158.5 -48.5 q-147 0 -232.5 113t-85.5 280q0 124 38 224.5t98 160t127.5 90.5t133.5 31q93 0 156 -54t86 -126q4 29 13.5 88.5t9.5 62.5q40 2 86.5 -6.5t60.5 -25.5l-55 -369q-19 -145 -19 -238q0 -75 33.5 -112t91.5 -37q68 0 133.5 38.5t119.5 111t87 191t33 263.5q0 56 -10 113.5 t-34 119.5t-60.5 118t-92.5 106.5t-126 87.5t-166 58.5t-207 21.5q-139 0 -262.5 -32t-216.5 -87t-170.5 -129.5t-129.5 -157.5t-88 -173t-52.5 -174.5t-16.5 -162.5q0 -144 35.5 -269t100.5 -219t153 -161.5t196 -102t227 -34.5q114 0 235.5 30t201.5 72q18 -11 30.5 -41.5 t12.5 -54.5q0 -26 -60.5 -59.5t-181 -60.5t-258.5 -27q-179 0 -336 69.5t-269 191t-176.5 293t-64.5 369.5zM805 436q0 -120 53.5 -177.5t130.5 -57.5q94 0 167 91t73 243q0 112 -47.5 185t-124.5 73q-123 0 -187.5 -101t-64.5 -256z" />
<glyph unicode="A" d="M74 18q37 134 259 770t238 644q14 9 110 15q44 3 77 3q38 0 61 -4q3 -1 124.5 -325.5t249 -682t142.5 -426.5q-12 -22 -101 -28q-35 -3 -57 -2q-33 0 -34 6q-66 170 -142 381q-345 -13 -606 -13q-123 -345 -131 -364q-2 -4 -26 -4t-68 4q-90 8 -96 26zM438 516 q332 10 527 10q-85 228 -162.5 454t-91.5 294q-2 0 -7.5 -1t-7.5 -1q-94 -304 -258 -756z" />
<glyph unicode="B" horiz-adv-x="1286" d="M184 708q-1 284 -1 452q0 241 3 249q4 10 161 17.5t204 7.5q253 0 397 -99.5t144 -290.5q0 -225 -187 -301v-12q49 -11 96 -37t89 -67.5t68 -104.5t26 -137q0 -397 -541 -397q-131 0 -285.5 9t-162.5 15q-7 6 -11 696zM374 1118q0 -39 -1 -76q0 -74 1 -140l1 -101 q39 -2 182 -2q166 0 251 58.5t85 166.5q0 66 -31 116t-81.5 77.5t-105.5 41t-112 13.5q-116 0 -186 -8q-3 -30 -3 -146zM377 160q130 -13 250 -13q171 0 261.5 67.5t90.5 174.5q0 121 -93.5 188.5t-275.5 67.5q-38 0 -227 -6q-3 -26 -4.5 -146t-1.5 -227v-106z" />
<glyph unicode="C" horiz-adv-x="1304" d="M113 725q0 150 47.5 282.5t133.5 231.5t215.5 157t283.5 58q142 0 255 -39.5t175 -89.5q3 -17 -27.5 -79t-50.5 -81q-161 111 -354 111q-135 0 -245 -74t-171.5 -201t-61.5 -280q0 -260 122 -415.5t333 -155.5q81 0 166 28.5t131.5 56.5t81.5 56q20 -19 48.5 -65 t43.5 -81q-63 -65 -199 -121.5t-284 -56.5q-158 0 -282 58t-202 161t-118.5 239.5t-40.5 299.5z" />
<glyph unicode="D" horiz-adv-x="1429" d="M186 730q6 626 13 695q64 17 368 17q227 0 399.5 -96.5t262.5 -260.5t90 -370q0 -164 -44.5 -296.5t-135.5 -232.5t-240.5 -154.5t-349.5 -54.5q-121 0 -225 9t-138 20q-4 51 -4 244q1 179 4 480zM365 172q96 -14 192 -14q559 0 559 540q0 166 -74 296t-201 200t-284 70 q-41 0 -74 -1.5t-61 -4t-41 -3.5q1 -58 1 -136q0 -185 -6 -482q-10 -422 -11 -465z" />
<glyph unicode="E" horiz-adv-x="1173" d="M185 694q2 557 8 736q79 8 457 12q126 1 215 1q178 0 208 -5q11 -8 11 -73t-5 -91q-13 -4 -304 -8q-157 -2 -262 -1q-90 0 -142 1l4 -473q38 1 96 1q89 0 225 -2q226 -3 238 -6q4 -2 6.5 -15t3 -30t0 -37t-1 -36t-1.5 -28l-1 -13q0 -5 -179 -5q-139 0 -386 3 q0 -354 -2 -475q396 8 556 8q86 0 105 -2q12 -26 12 -82q0 -63 -6 -82q3 -2 -198 -6q-179 -4 -368 -4h-47q-214 0 -239 8q-4 105 -4 419q0 126 1 285z" />
<glyph unicode="F" horiz-adv-x="1150" d="M188 698q-2 266 -3 444q0 199 3 290q46 8 342 8h106q394 -2 437 -10q11 -9 11 -67.5t-3 -98.5q-25 -3 -153 -3q-64 0 -154 1q-270 2 -401 6l7 -541q54 1 136 1t193 -1q223 -2 233 -6q5 -2 7.5 -14.5t3.5 -29t0.5 -36t-1 -35t-1.5 -27.5l-1 -12q0 -5 -180 -5 q-140 0 -389 3q9 -291 9 -473q0 -50 -1 -92q-19 -14 -95 -17q-17 -1 -31 -1q-49 0 -66 8q-5 146 -9 708z" />
<glyph unicode="G" horiz-adv-x="1374" d="M113 725q0 150 46.5 282.5t131 231.5t213 157t282.5 58q141 0 253.5 -36t181.5 -83q3 -14 -31.5 -75t-52.5 -82q-163 96 -351 96q-135 0 -244.5 -73.5t-170 -200t-60.5 -279.5q0 -262 120 -416.5t337 -154.5q155 0 293 67l-4 346l-344 -12q-5 6 -5 77q-1 7 -1 14 q0 57 4 65q62 12 287 21q95 5 152 5q79 0 87 -8q9 -41 9 -217v-56q-2 -225 -9 -341q-72 -51 -204 -94.5t-277 -43.5q-158 0 -282 57t-202 159t-118.5 238t-40.5 298z" />
<glyph unicode="H" horiz-adv-x="1527" d="M186 705q-1 188 -1 331q0 287 3 396q2 20 48 24q18 2 36 2l56 -4q46 -7 47 -14q4 -183 8 -652q439 13 764 13q-2 193 -2 328q0 202 4 274q25 13 103 13q4 0 7 1q71 0 74 -10q4 -7 7 -302q2 -148 2 -309q0 -160 -2 -336q-3 -350 -15 -470q-3 -20 -49 -24q-19 -2 -37 -2 q-27 0 -53 4q-44 6 -45 14q6 135 6 643q-479 -12 -686 -12q-44 0 -76 1q0 -495 -4 -622q-27 -14 -107 -16q-11 0 -21 -1q-59 0 -60 13q-5 153 -7 717z" />
<glyph unicode="I" horiz-adv-x="569" d="M187 696q-1 149 -1 272q0 307 4 451q18 23 87 23h15q82 -2 85 -15q6 -178 7 -713v-146q0 -416 -5 -574q-9 -9 -55 -12q-23 -2 -45 -2q-21 0 -43 2q-42 3 -43 8q-4 184 -6 706z" />
<glyph unicode="J" horiz-adv-x="942" d="M37 98q-2 14 27.5 79t46.5 79q42 -30 68 -45.5t75 -31t104 -15.5q94 0 157 64.5t63 197.5q0 791 -9 1001q30 13 107 17h34q44 0 46 -8q12 -169 12 -1014q0 -111 -31.5 -196.5t-86 -136.5t-123 -77t-146.5 -26q-111 0 -205.5 34.5t-138.5 77.5z" />
<glyph unicode="K" horiz-adv-x="1300" d="M184 701q-4 270 -4 440q0 272 10 286q12 15 100 15q6 0 11 1q77 0 80 -7q3 -24 3 -133v-61q-1 -164 -5 -352l-4 -190q709 746 721 746q10 0 77.5 -29.5t67.5 -38.5q1 -5 -123 -142.5t-248 -271.5l-125 -135q77 -98 271 -410t225 -380q2 -8 -34 -26q-36 -17 -79 -29 q-25 -7 -41 -7q-11 0 -16 3q-22 31 -218 348t-237 372q-9 -10 -67.5 -67.5t-112.5 -109.5l-55 -52l2 -477q-19 -8 -95 -12q-21 -1 -38 0q-41 0 -47 6q-9 11 -19 713z" />
<glyph unicode="L" horiz-adv-x="1075" d="M184 -8q-3 63 -3 220q0 183 4 494q7 577 14 724q6 7 92 11q38 2 61 2q28 0 31 -3q1 -8 1 -66q0 -137 -5 -551q-7 -592 -10 -667q135 4 379 6q111 1 177 2q79 0 93 -2q10 -16 10 -88q0 -10 1 -20q0 -54 -3 -60q0 -2 -206 -6q-180 -3 -364 -3q-26 1 -52 1q-210 0 -220 6z " />
<glyph unicode="M" horiz-adv-x="1779" d="M84 20q40 226 149 806t121 604q9 14 83 18q27 2 47 1q36 0 51 -5q20 -18 163.5 -506.5t182.5 -683.5h10q40 172 125.5 458t157 497.5t81.5 220.5q13 11 85 16q30 2 53 2q32 0 51 -4q5 -3 123 -681t125 -749q-6 -18 -52 -28q-41 -9 -75 -9q-5 1 -9 1q-38 2 -47 8 q-7 36 -87.5 527.5t-100.5 627.5q-1 0 -3 -1t-3 -1q-26 -108 -177.5 -599t-166.5 -542q-18 -12 -92 -12q-3 0 -6 -1q-68 0 -74 11q-32 104 -163 563.5t-159 573.5h-6q-13 -66 -59.5 -336.5t-90 -509.5t-59.5 -297q-11 -2 -29 -2q-28 0 -73 5q-75 9 -76 27z" />
<glyph unicode="N" horiz-adv-x="1490" d="M182 704v187q0 406 6 536q8 13 85 17q20 1 35 1q44 0 52 -7q15 -20 152.5 -225.5t326 -494t275.5 -433.5q2 129 2 345v305q-1 200 -2 315q0 138 2 153q26 13 96 13h5q74 0 79 -11q3 -7 6 -300q1 -135 1 -282q0 -172 -2 -360q-4 -349 -15 -467q-4 -20 -82 -24 q-20 -1 -35 -1q-46 0 -55 9q-13 18 -149 225t-321 489.5t-273 415.5q4 -792 4 -1036v-76q-29 -14 -107 -16q-11 0 -20 -1q-57 0 -58 13q-6 144 -8 710z" />
<glyph unicode="O" horiz-adv-x="1538" d="M111 715q0 81 12.5 159.5t39.5 152.5t65.5 139.5t92.5 119.5t119 93.5t148 61t176 21.5q307 0 484 -200t177 -553q0 -112 -22 -216.5t-72 -202.5t-124 -171t-186.5 -116.5t-250.5 -43.5q-153 0 -279 60t-208.5 163t-127 240t-44.5 293zM309 705q0 -153 52.5 -280 t157 -206.5t243.5 -79.5q119 0 208.5 44t143 124t79.5 184t26 232q0 256 -120.5 406.5t-324.5 150.5q-224 0 -344.5 -159t-120.5 -416z" />
<glyph unicode="P" horiz-adv-x="1261" d="M184 700q2 674 11 711q33 8 172.5 16.5t263.5 8.5q269 0 410 -120.5t141 -361.5q0 -121 -43.5 -213.5t-120.5 -148t-176 -83.5t-217 -28q-68 0 -232 8q0 -1 0.5 -85t0.5 -156q0 -14 1 -29q0 -59 -2 -121q-2 -78 -6 -100q-7 -8 -100.5 -8t-96.5 6q-6 25 -6 461v243z M385 1247q1 -7 1 -136.5t0.5 -271.5t2.5 -173q221 -7 246 -7q158 0 254 72.5t96 216.5t-85 226t-253 83q-26 2 -50.5 1.5t-47.5 -1.5q-111 -4 -164 -10z" />
<glyph unicode="Q" horiz-adv-x="1538" d="M111 715q0 114 24.5 221t76.5 203t127.5 167.5t184.5 113.5t240 42q308 0 484.5 -199.5t176.5 -553.5q0 -109 -22 -212t-66 -197t-119 -169t-174 -117q50 -80 149.5 -161.5t184.5 -124.5q-12 -29 -58 -82t-69 -66q-102 44 -215.5 157.5t-185.5 229.5q-34 -3 -70 -3t-73 3 q-140 9 -254 72.5t-188 165t-114 232.5t-40 278zM313 707q0 -158 53 -285.5t156.5 -204t241.5 -76.5q119 0 208.5 44t143.5 124t80.5 184t26.5 232q0 250 -121 403.5t-326 153.5q-114 0 -203 -43t-145.5 -121t-85.5 -182t-29 -229z" />
<glyph unicode="R" horiz-adv-x="1323" d="M184 700q4 674 13 711q33 8 170.5 16.5t261.5 8.5q555 0 555 -480q0 -163 -86 -267t-230 -148q78 -91 168 -209t144 -197q53 -76 53 -84q0 -14 -78 -46q-67 -28 -94 -30q-2 0 -59.5 82.5t-157 215.5t-182.5 231q-16 -2 -52 -2q-126 0 -229 10q0 -471 -6 -514 q-10 -8 -97 -8h-13q-74 0 -77 6q-5 21 -5 327q0 153 1 377zM383 1253q1 -7 1.5 -272.5t2.5 -304.5q94 -6 246 -6q160 0 256 71.5t96 214.5q0 146 -88 228t-266 82q-121 0 -248 -13z" />
<glyph unicode="S" horiz-adv-x="1175" d="M102 170q-2 19 18 58t43.5 67t31.5 20q165 -159 368 -159q143 0 230.5 58t87.5 181q0 87 -83 148t-272 104q-210 49 -307.5 148t-97.5 260q0 79 32 151t91 128t150.5 89t201.5 33q140 0 251.5 -39t178.5 -96q8 -7 -8.5 -45.5t-40 -72t-31.5 -29.5q-153 110 -342 110 q-138 0 -212.5 -63t-74.5 -166q0 -37 10 -65t38.5 -58.5t88 -57t150.5 -49.5q244 -62 362.5 -161t118.5 -261q0 -187 -141 -300t-377 -113q-151 0 -277.5 58.5t-187.5 121.5z" />
<glyph unicode="T" horiz-adv-x="1120" d="M45 1342q1 69 10 73q47 10 469 20q269 7 414 7q83 0 125 -2q7 -6 11 -48q3 -30 3 -60q-1 -11 -1 -21q-2 -39 -7 -39q-77 -8 -407 -12q6 -522 7 -851q0 -269 -5 -407q-8 -9 -54 -14q-32 -4 -63 -4q-12 0 -25 1q-43 2 -43 11q-5 123 -7 579q0 152 -1 279q0 254 2 406h-23 q-52 0 -185 -2q-92 -2 -144 -2q-45 0 -60 1q-16 15 -16 77v8z" />
<glyph unicode="U" horiz-adv-x="1472" d="M166 551q0 209 9.5 500t21.5 368q2 16 93 16t93 -12q0 -3 1 -9q0 -56 -10 -389q-10 -369 -9 -464q0 -411 366 -411q95 0 168 31.5t116.5 87.5t65 126.5t21.5 153.5q0 138 -3 353.5t-5 364.5q-1 74 -1 119t1 60q22 12 104 14h24q60 0 64 -12q6 -27 11.5 -341t5.5 -556 q0 -89 -15.5 -169t-55.5 -159t-102.5 -135.5t-164 -91.5t-232.5 -35q-271 0 -419 148.5t-148 441.5z" />
<glyph unicode="V" horiz-adv-x="1308" d="M74 1419q4 16 50 25q41 8 81 8h9q45 -1 48 -8q2 -6 59.5 -184.5t124.5 -385.5t128.5 -409t72.5 -260q2 0 6 1t6 1q29 120 185.5 619t199.5 614q2 5 28 5q24 0 66 -4q90 -8 93 -28q-36 -138 -239 -771t-216 -642q-16 -9 -104 -15q-40 -3 -70 -3q-35 0 -57 4q-3 1 -114 325 t-227.5 681t-129.5 427z" />
<glyph unicode="W" horiz-adv-x="1984" d="M88 1415q6 17 52 27q42 9 77 9h7q38 -1 46 -7q1 -4 32 -117.5t71 -263.5t83 -313t76 -300.5t41 -191.5q1 0 4.5 1t4.5 1q37 152 158.5 596.5t162.5 575.5q23 12 103 12h7q73 0 79 -10q32 -93 311 -1170q1 0 4 1t4 1q25 129 147.5 597.5t157.5 574.5q11 4 34 4q26 0 68 -6 q77 -10 78 -29q-23 -113 -190 -742t-180 -655q-14 -14 -100 -20q-32 -2 -55 -2q-38 0 -48 6q-16 28 -145.5 495.5t-173.5 661.5h-11q-81 -310 -196.5 -722.5t-128.5 -428.5q-12 -12 -91 -16q-26 -1 -48 -1q-42 0 -64 5q-5 2 -96 336.5t-183 689t-98 401.5z" />
<glyph unicode="X" horiz-adv-x="1214" d="M45 49q0 9 182 299q183 292 246 383q-52 82 -215 359q-162 275 -162 294q0 12 71 36q63 22 88 22h5q7 -1 145 -234t193 -336h12q78 130 214 348t145 222q5 2 12 2q24 0 79 -18q71 -23 73 -35q0 -18 -172 -306.5t-216 -353.5q420 -667 420 -680q-6 -15 -79 -41 q-65 -23 -96 -22h-7q-7 4 -150.5 235.5t-220.5 360.5h-10q-67 -115 -219.5 -350.5t-159.5 -235.5h-9q-32 0 -94 16q-75 20 -75 35z" />
<glyph unicode="Y" horiz-adv-x="1273" d="M61 1384q0 12 71 36q63 22 88 22h5q7 -1 178 -290t226 -392q2 0 6 -1t6 -1q74 125 245.5 402.5t180.5 281.5q5 2 12 2q25 0 79 -18q71 -23 71 -35q0 -29 -498 -830q1 -153 1 -271q0 -197 -3 -296q-7 -12 -55 -16q-23 -2 -46 -2t-45 2q-44 4 -44 14q-3 83 -3 289 q0 124 1 292q-478 790 -476 811z" />
<glyph unicode="Z" horiz-adv-x="1142" d="M85 120q1 30 1 36q1 1 174 264.5t356 541t203 306.5l2 4q-28 -3 -362 -3t-346 3q-5 2 -9 82q-1 17 -1 31q0 50 10 53q17 4 465 6q224 1 338.5 1t119.5 -1q5 -3 13 -82q5 -53 5 -73q0 -10 -1 -13q-2 -3 -174 -267t-354 -540t-201 -301v-4q693 0 718 -4q6 -2 6 -56v-26 q-2 -80 -10 -82q-10 -6 -472 -6h-97q-365 0 -367 4q-10 12 -14 54q-4 34 -3 60v12z" />
<glyph unicode="[" horiz-adv-x="768" d="M166 1460l530 6q1 0 2.5 -34.5t1.5 -64.5t-2 -36q-5 -3 -169.5 -6.5t-200.5 0.5q-8 -32 6 -1482v-9l368 -4q2 -139 -4 -141h-40.5t-97 1t-125 2t-124.5 2.5t-96 1.5l-39 1z" />
<glyph unicode="\" horiz-adv-x="841" d="M47 1464q0 4 29.5 17.5t59.5 24.5l30 12q3 -3 316 -745t313 -746q0 -5 -49 -31.5t-72 -32.5q-21 -5 -324 739.5t-303 761.5z" />
<glyph unicode="]" horiz-adv-x="774" d="M66 -158q23 -1 61 -1.5t119 -2t134.5 -2.5t53.5 0q2 94 4.5 233t9.5 512.5t7.5 512.5t-2.5 233q-373 0 -381 4q-3 2 -3 34.5t1 64.5l2 32l553 -4q-48 -1757 -50 -1757q-497 0 -503 2q-4 1 -5 35.5t-1 69.5v34z" />
<glyph unicode="^" horiz-adv-x="948" d="M84 930q-7 5 154.5 270t177.5 281q4 5 68.5 9.5t72.5 2.5q8 0 160 -275.5t145 -283.5q-10 -10 -54 -27.5t-54 -13.5q-7 5 -136 237t-131 234q-3 3 -74 -115.5t-142 -240.5t-74 -125q-9 -5 -57 17t-56 30z" />
<glyph unicode="_" horiz-adv-x="921" d="M157 -165.5q6 63.5 11 65.5q612 -7 612 -9q0 -114 -2 -116q-1 -3 -305.5 -5.5t-314.5 -0.5q-7 2 -1 65.5z" />
<glyph unicode="`" horiz-adv-x="819" d="M139 1300q-3 1 13 34t37 66t30 34q4 2 119 -57.5t228 -120.5l112 -60q-3 -10 -9.5 -26t-23.5 -44.5t-33 -33.5q-4 -1 -120.5 50.5t-234 104.5t-118.5 53z" />
<glyph unicode="a" horiz-adv-x="1026" d="M82 293q0 145 106.5 233t270.5 88q86 0 151 -25t101 -65q0 162 -50 231.5t-192 69.5q-62 0 -111 -18.5t-72 -40t-40 -41t-21 -20.5h-1q-13 0 -61 37t-48 45q1 14 29 50q24 31 67.5 67.5t117.5 62.5t160 26q199 0 300.5 -114t101.5 -336q0 -144 -6 -334.5t-11 -198.5 q-3 -5 -40 -5t-73 3l-36 2l-10 90q-42 -44 -111.5 -76t-163.5 -32q-91 0 -161.5 25t-112.5 68t-63 95.5t-21 112.5zM246 299q0 -79 64.5 -127.5t166.5 -48.5q109 0 171.5 53t62.5 127q0 86 -66 134t-172 48q-99 0 -163 -54t-64 -132z" />
<glyph unicode="b" horiz-adv-x="1185" d="M146 772q-5 308 -5 490q0 244 9 268q12 12 67 12q11 0 25 -1q78 -3 86 -13q4 -6 4 -300q0 -42 1 -79q0 -228 -3 -315q39 66 127 108.5t198 42.5q199 -3 319 -141.5t120 -349.5q0 -126 -35.5 -224t-98 -159.5t-144.5 -93t-179 -31.5q-109 0 -192 45t-126 106 q0 -19 2.5 -70t2.5 -69q-9 -4 -81 -4q-7 0 -13 -1q-60 0 -62 5q-10 56 -22 774zM317 492q0 -151 75 -244.5t218 -93.5q136 0 220.5 79.5t84.5 251.5q0 153 -84 243.5t-219 90.5q-131 0 -213 -82.5t-82 -244.5z" />
<glyph unicode="c" horiz-adv-x="968" d="M92 483q0 95 31 183.5t88.5 160t149.5 115t204 43.5q58 0 112.5 -10.5t92 -25t67 -31.5t44 -30t16.5 -20q1 -3 1 -8q0 -22 -21 -74q-25 -62 -43 -63q-4 0 -40.5 23t-96.5 46t-122 23q-133 0 -217 -89.5t-84 -250.5q0 -79 21.5 -140t54 -96.5t75 -58t79 -30t71.5 -7.5 q20 0 39 2.5t36.5 7t33 9.5t31 12.5t26.5 13t24.5 13.5t19.5 12t16.5 11.5t11.5 8.5q9 6 35 -30.5t47 -81.5q-45 -61 -132 -101t-192 -40q-125 0 -220.5 43t-150 116t-81.5 160t-27 184z" />
<glyph unicode="d" horiz-adv-x="1202" d="M92 489q0 208 130 348.5t337 143.5q101 0 185.5 -44t125.5 -106q0 192 4 443t9 256q8 10 88 12h30q54 0 68 -8v-8q0 -46 -5 -364q-6 -370 -13.5 -751.5t-10.5 -406.5q-2 -4 -73 -6q-14 0 -26 -1q-48 0 -64 5l-7 141q-43 -62 -124.5 -106.5t-192.5 -44.5 q-97 0 -179.5 31.5t-146 91.5t-99.5 156t-36 218zM281 483q0 -88 24.5 -152.5t68.5 -101t97 -53t117 -16.5q144 0 218.5 89t74.5 240q0 160 -84 242t-213 82q-136 0 -219.5 -89t-83.5 -241z" />
<glyph unicode="e" horiz-adv-x="1042" d="M92 475q0 137 52 251t158.5 186.5t248.5 72.5q178 0 292.5 -115.5t114.5 -281.5q0 -82 -16 -144q-67 -8 -319 -10q-84 -1 -151 -1q-135 0 -204 3q0 -129 88.5 -207.5t212.5 -78.5q94 0 156.5 26.5t120.5 73.5q10 -5 41 -60t31 -73q-48 -47 -144.5 -87t-212.5 -40 q-112 0 -202.5 39t-148 105.5t-88 154t-30.5 186.5zM274 563l506 6q1 15 1 30q0 104 -56 168q-64 73 -182 73q-120 0 -194.5 -82t-74.5 -195z" />
<glyph unicode="f" horiz-adv-x="786" d="M51 886q-3 32 -3 50t3 22q4 5 57 9t103.5 5.5t50.5 2.5l-1 15q-1 16 -2 41t-2 53.5t-2 60t-1 55.5q0 150 87.5 245t231.5 95q92 0 161.5 -31.5t107.5 -66.5q-5 -32 -28.5 -87t-33.5 -55q-6 -1 -29.5 16t-63 34.5t-85.5 17.5q-75 0 -120.5 -57.5t-45.5 -153.5 q0 -26 -0.5 -67t-1 -72t-0.5 -33q4 -1 81 -1t150 -4.5t78 -16.5q7 -45 7 -75q0 -35 -9 -52q-5 -9 -155 -12q-67 -1 -105 -1q-44 0 -45 2v-17q0 -43 2 -194q2 -212 4 -396q1 -61 1 -105q0 -90 -3 -113q-10 -10 -90 -16q-21 -2 -38 -2q-43 0 -48 12q-6 25 -6 827h-19 q-25 0 -81 -1h-64q-31 0 -31 1q-6 3 -12 65z" />
<glyph unicode="g" horiz-adv-x="1198" d="M92 487q0 222 130.5 361t340.5 139q198 0 316 -149l-5 137q8 5 64 5h20q74 -1 76 -7q5 -37 13 -367.5t8 -404.5v-8q0 -623 -467 -623q-137 0 -248 49.5t-133 91.5q8 28 30 71.5t35 55.5q4 2 20.5 -8t43.5 -26t60.5 -32.5t81 -28t95.5 -11.5q162 0 233 106q68 104 68 305 v11q-39 -68 -124 -111t-199 -43q-202 3 -330.5 142t-128.5 345zM287 487q0 -154 81.5 -241.5t217.5 -87.5q129 0 213 81.5t84 241.5q0 151 -75 242.5t-220 91.5q-63 0 -115 -17.5t-95 -54.5t-67 -102.5t-24 -153.5z" />
<glyph unicode="h" horiz-adv-x="1150" d="M149 331.5q0 275.5 2 667t5 533.5q8 12 90 13h7q75 0 81 -19q1 -16 1 -88q1 -90 -1 -270q-2 -322 -6 -339q33 59 115 105.5t184 46.5q176 0 282.5 -107.5t106.5 -300.5q0 -103 -7 -302.5t-14 -262.5q-7 -14 -75 -14h-9q-77 1 -86 8q4 61 4 565q0 104 -62 177t-171 73 q-116 0 -190 -72.5t-74 -166.5q0 -578 -8 -586q-2 -6 -43 -6q-18 0 -44 2q-84 4 -87 12q-1 56 -1 331.5z" />
<glyph unicode="i" horiz-adv-x="477" d="M106 1317q0 65 27 99t100 34q60 0 97 -38t37 -105q0 -48 -38 -80.5t-96 -32.5q-57 0 -92 32t-35 91zM147 975q7 8 79 8q6 -1 10 -1q82 0 88 -7q4 -6 4 -483t-4 -488q-7 -9 -75 -9q-3 1 -7 1q-76 0 -80 6q-3 10 -13 484q-6 264 -6 385q0 97 4 104z" />
<glyph unicode="j" horiz-adv-x="481" d="M-27 -315q74 11 126 77q51 65 51 190l-2 452q0 576 14 577q31 3 61 3q26 0 51 -2q54 -5 62 -11q1 -1 1 -43t-1 -124q-2 -165 -5 -424.5t-3 -420.5q0 -97 -20.5 -170.5t-59 -119.5t-84.5 -73q-73 -42 -107 -42q-6 0 -25 20q-19 21 -38 54t-21 57zM131 1337q0 48 36.5 80.5 t94.5 32.5t92.5 -31.5t34.5 -89.5q0 -67 -26.5 -101t-100.5 -34q-59 0 -95 38t-36 105z" />
<glyph unicode="k" horiz-adv-x="1060" d="M144 764q-4 329 -4 517q0 245 7 251q11 12 87 12h9q68 0 74 -8q4 -36 4 -209q-1 -21 -1 -45q0 -214 -4 -463l-3 -248q527 433 545 433q16 0 74 -36q59 -37 59 -55q-1 -14 -97 -92q-98 -79 -194 -152l-98 -73l283 -370q129 -172 129 -183t-66 -43q-57 -27 -90 -27h-6 q-7 0 -100.5 130.5t-186.5 260.5q-92 130 -100 130q-5 0 -41 -27q-34 -26 -65 -52l-31 -26l10 -399h-49q-112 0 -123 8q-12 10 -22 766z" />
<glyph unicode="l" horiz-adv-x="481" d="M152 385v159q0 298 6 598q8 380 22 388q18 13 83 16q14 1 25 1q41 0 44 -9q5 -8 5 -170q0 -179 -6 -544q-11 -697 -20 -830h-41q-95 0 -108 8q-8 6 -10 383z" />
<glyph unicode="m" horiz-adv-x="1705" d="M147 -12q0 431 5 956q7 18 72 18h17q81 -2 89 -18q0 -95 -4 -119q32 60 110.5 104t175.5 44q85 0 170.5 -48t118.5 -120q47 83 134.5 125.5t172.5 42.5q173 0 267 -98.5t94 -286.5q0 -102 -5.5 -317t-9.5 -283q0 -12 -86 -16q-32 -1 -52 -1q-35 0 -38 4q-3 26 -3 81 q1 20 1 44q2 90 6 257t4 225q0 93 -51 158t-159 65q-47 0 -86.5 -16.5t-65 -41.5t-43.5 -56t-25.5 -58t-7.5 -49q0 -356 -16 -578q-4 -12 -59 -12h-24q-78 3 -85 10q-4 32 -4 104v31q1 97 4.5 261t3.5 182q0 92 -54 158.5t-159 66.5q-52 0 -96 -21.5t-70 -53t-40.5 -65 t-14.5 -61.5q0 -78 -5.5 -349.5t-9.5 -276.5q-2 -4 -44 -4h-42q-83 2 -86 12z" />
<glyph unicode="n" horiz-adv-x="1144" d="M147 18q0 409 5 932q8 14 89 20q26 2 44 2q40 0 45 -9q0 -108 -4 -132q31 59 123.5 108.5t189.5 49.5q162 0 266.5 -112t104.5 -304q0 -100 -5.5 -301t-11.5 -280q-5 -14 -74 -14h-9q-78 1 -85 8q-5 37 -5 116v16q0 92 3.5 259.5t3.5 189.5q0 109 -61.5 181.5 t-171.5 72.5q-117 0 -191.5 -70.5t-74.5 -164.5q0 -564 -9 -576q-2 -4 -44 -4h-42q-83 2 -86 12z" />
<glyph unicode="o" horiz-adv-x="1130" d="M92 492q0 75 19.5 146.5t59.5 133.5t95 109.5t132 74.5t165 27q103 0 189 -32.5t150 -94.5t100 -159.5t36 -219.5q0 -140 -53 -249.5t-161 -176t-257 -69.5q-210 0 -342.5 136.5t-132.5 373.5zM270 483q0 -163 83 -249.5t208 -86.5h3q145 -1 220 85q76 86 76 249 q0 320 -293 324h-3q-144 -1 -218 -89q-76 -90 -76 -233z" />
<glyph unicode="p" horiz-adv-x="1193" d="M145 -86q1 347 6.5 705t14.5 380q4 1 14.5 1t29.5 -1q36 -2 78 -6l42 -4q0 -18 1 -68.5t1 -70.5q35 62 117 104.5t198 42.5q98 0 180 -32t143 -93t95.5 -156.5t34.5 -217.5q0 -226 -122.5 -360.5t-334.5 -137.5q-107 0 -192.5 39t-120.5 102q0 -60 2 -224q1 -123 1 -204 q0 -26 -1 -49q0 -88 -4 -92q-8 -9 -88 -12q-20 -1 -36 -1q-48 0 -59 7q-1 0 -1 87t1 261zM322 502q0 -162 84.5 -250t209.5 -88q144 0 218.5 88t74.5 246q0 170 -80.5 246.5t-212.5 76.5q-147 0 -220.5 -84.5t-73.5 -234.5z" />
<glyph unicode="q" horiz-adv-x="1191" d="M92 471q0 125 35.5 223.5t98.5 160t145 93t178 31.5q187 0 321 -145l9 145q2 2 77 3h26q49 0 52 -3q7 -29 7 -289q0 -166 -3 -425q-7 -666 -12 -705q-7 -15 -61 -15q-14 0 -31 1q-84 5 -90 16q-1 23 -1 62v44q1 71 4 226t3 237q-36 -71 -117 -111t-194 -40 q-200 3 -323.5 142t-123.5 349zM274 479q0 -154 85 -245t221 -91q129 0 210.5 88t81.5 252q0 149 -73 234.5t-217 85.5q-65 0 -118.5 -17t-97 -53t-68 -101t-24.5 -153z" />
<glyph unicode="r" horiz-adv-x="747" d="M149 461.5q0 457.5 3 486.5q7 23 86 31q29 3 48 3q34 0 38 -9q2 -16 2.5 -42t0 -47.5t-1.5 -40.5t-1 -20q60 97 164 135q68 24 137 24q36 0 73 -7q10 -4 10 -39q0 -20 -4 -50q-8 -84 -28 -102q-10 1 -34.5 5.5t-47 7t-43.5 2.5q-75 0 -137.5 -56t-81.5 -137 q-2 -22 -2 -78q0 -38 1 -92q3 -134 5 -284q1 -84 1 -123q0 -30 -1 -31q-2 -8 -92 -8h-10q-79 0 -82 8q-3 6 -3 463.5z" />
<glyph unicode="s" horiz-adv-x="921" d="M92 121q-1 2 -1 4q-1 10 15 37q20 33 43 61t29 23q36 -38 114.5 -80.5t168.5 -42.5q99 0 152 36.5t53 98.5q0 63 -49.5 92.5t-174.5 52.5q-184 31 -266 97t-82 190q0 138 99.5 218.5t269.5 80.5q124 0 210.5 -31.5t125.5 -68.5q1 -1 1 -4q0 -14 -28 -67q-34 -64 -43 -66 q-1 0 -15 9t-38 22t-54 26t-71 22t-82 9q-97 0 -147 -40.5t-50 -99.5q0 -62 49 -92.5t181 -50.5q169 -24 256.5 -90.5t87.5 -187.5q0 -137 -96.5 -220.5t-278.5 -83.5q-130 0 -236 49.5t-143 96.5z" />
<glyph unicode="t" horiz-adv-x="813" d="M52 914q0 7 -1 12q0 53 12 59h9q20 1 86 -1q51 -1 74 -2q19 0 20 1q2 1 5 119.5t13 128.5q13 11 89 17q31 2 50 2q28 0 31 -5q2 -9 2 -35v-39q-2 -60 -7 -128q-3 -54 -3 -65q0 -1 37 -2q39 0 123 -2q154 -4 168 -13q8 -7 8 -41q0 -5 1 -10q0 -29 -3 -56l-4 -31 q-5 -4 -67 -4h-27q-88 1 -160 3q-28 1 -46 1q-30 0 -38 -2q0 -1 -4 -100t-9.5 -228.5t-7.5 -195.5q0 -159 134 -162h6q43 1 83 15q43 16 69.5 31.5t31.5 15.5q14 -7 33.5 -59.5t21.5 -74.5q-4 -4 -12 -10t-35 -22t-57 -28q-30 -11 -78 -21q-43 -9 -87 -9h-9q-144 1 -214 81 q-68 78 -67 210v8q1 32 4.5 101t7 145t7 147.5t6.5 118.5l2 47q0 1 -45 2.5t-92.5 3.5t-51.5 5q-7 6 -9 72z" />
<glyph unicode="u" horiz-adv-x="1138" d="M129 365q0 104 11.5 310.5t19.5 301.5q8 14 64 14h20q74 -3 90 -10q0 -23 -12.5 -284.5t-12.5 -323.5q0 -117 58.5 -181t171.5 -65q120 0 193.5 74t76.5 186q17 580 20 584q4 6 59 6q12 -1 26 -1q80 -2 87 -9q0 -71 -26 -981q-8 -13 -61 -13h-22q-72 3 -83 17 q1 16 1.5 46t1 52t1.5 27q-43 -61 -131.5 -105.5t-181.5 -44.5q-189 0 -280 104.5t-91 295.5z" />
<glyph unicode="v" horiz-adv-x="1058" d="M124.5 979.5q63.5 13.5 90.5 13.5q7 0 85 -196t152 -392l74 -196q310 776 322 778q7 1 47.5 -7.5t78.5 -20.5q37 -12 36 -17q-14 -56 -114.5 -292.5t-195 -447t-100.5 -216.5q-15 -8 -43 -8h-11q-36 2 -72.5 7.5t-37.5 8.5q-4 9 -96 233t-186 465q-93 238 -93 263 q0 11 63.5 24.5z" />
<glyph unicode="w" horiz-adv-x="1562" d="M135.5 981.5q61.5 13.5 89.5 13.5q14 0 75 -203.5t115 -407.5l54 -204q33 115 123.5 345t105.5 278q-4 14 -18 57.5t-25.5 78.5t-11.5 38q7 13 77 24q41 6 63 6q16 0 22 -3q9 -6 51 -129t87 -265.5t86 -276t44 -140.5q15 53 143 427t136 377q8 1 48 -7q40 -9 76 -20 t35 -16q-13 -57 -97.5 -296t-164 -453t-84.5 -219q-19 -9 -60 -7t-82 9t-42 10q-2 2 -31.5 82t-79.5 230t-90 292q-51 -147 -108.5 -298t-91 -232t-37.5 -86q-15 -10 -47 -10h-12q-40 2 -80.5 8.5t-41.5 9.5q-2 5 -73.5 230.5t-143.5 466.5q-71 238 -71 266q0 11 61.5 24.5z " />
<glyph unicode="x" horiz-adv-x="987" d="M47 31q3 16 123.5 185t206.5 282q-23 36 -103.5 151t-141.5 205q-60 89 -60 102q0 8 64.5 22.5t90.5 14.5q6 0 58.5 -75.5t129 -190.5t79.5 -119q257 382 270 387q6 2 17 2q25 -1 73 -11q70 -16 70 -25q-2 -10 -24 -47t-67.5 -103.5t-73.5 -107t-85 -121.5l-56 -80 q28 -48 108 -165.5t143 -209.5t63 -98q-4 -12 -71.5 -28.5t-92.5 -16.5q-7 3 -61 83t-123 185t-90 135q-25 -35 -96 -139t-124 -180t-57 -76q-25 0 -95.5 14t-74.5 25z" />
<glyph unicode="y" horiz-adv-x="1036" d="M117.5 979.5q60.5 13.5 87.5 13.5q15 0 93.5 -171t149.5 -342l72 -171q297 676 311 678h3q17 0 79 -15q70 -16 76 -24q-34 -110 -308.5 -715t-322.5 -688h-5q-28 0 -89 29q-68 31 -71 43q3 15 48 112t103 220.5t80 177.5q-43 81 -206 437q-161 353 -161 392 q0 10 60.5 23.5z" />
<glyph unicode="z" horiz-adv-x="872" d="M82 897q2 70 14 74q9 2 182.5 4t329 3t170.5 1q3 -2 10 -62q4 -38 4 -55q0 -10 -1 -12q-4 -10 -232 -337.5t-260 -371.5q20 5 239 9q86 2 140 1q85 0 96 -4q7 -5 7 -65q-1 -4 -1 -9q0 -69 -6 -75q-10 -5 -283 -5q-27 1 -57 1q-329 0 -334 2q-2 1 -5.5 26t-5.5 52t1 45 l485 702q-232 -6 -353.5 -6t-131.5 6q-8 5 -8 57v19z" />
<glyph unicode="{" horiz-adv-x="647" d="M74.5 614.5q1.5 38.5 7.5 38.5q207 0 207 135q0 32 -24.5 99.5t-49.5 145.5t-25 136q0 155 103.5 235.5t273.5 80.5q9 -25 10.5 -58.5t-2.5 -57t-12 -23.5q-101 0 -166 -46t-65 -143q0 -63 50 -195t50 -186q0 -77 -53 -130t-107 -64v-7q54 -19 107 -78.5t53 -136.5 q0 -58 -26 -130t-52 -141t-26 -118q0 -151 227 -151q4 -12 5 -45.5t0 -62.5t-3 -29q-196 0 -287.5 63.5t-91.5 204.5q0 58 25 126.5t50.5 141.5t25.5 141q0 67 -54 101.5t-137 36.5q-7 0 -11 39t-2.5 77.5z" />
<glyph unicode="|" horiz-adv-x="448" d="M168 1507q5 11 34 14.5t55 2t26 -3.5v-1960l-63 -15q-40 -7 -42 4q-3 15 -8 982t-2 976z" />
<glyph unicode="}" horiz-adv-x="649" d="M67.5 -258.5q-1.5 33.5 2.5 57t12 23.5q102 0 168.5 45.5t66.5 140.5q0 64 -50 198t-50 189q0 75 53 128.5t107 64.5v6q-54 19 -106 78.5t-52 136.5q0 72 51.5 200.5t51.5 184.5q0 154 -228 154q-3 11 -3.5 45t0 63t1.5 29q195 0 287 -64t92 -204q0 -58 -25 -126.5 t-50 -141t-25 -140.5q0 -67 54 -101t136 -34q7 0 11 -39t3 -78t-6 -39q-209 0 -209 -137q0 -32 25 -100t49.5 -146.5t24.5 -136.5q0 -155 -105 -235t-276 -80q-9 25 -10.5 58.5z" />
<glyph unicode="~" horiz-adv-x="1167" d="M113 676q0 4 12.5 19t37 36.5t55.5 41.5t74 34t87 14q46 0 102 -27.5t100 -60.5t98.5 -60.5t96.5 -27.5q86 0 199 141q11 -5 33 -25.5t38.5 -38.5t16.5 -20q0 -3 -14.5 -22.5t-42 -49t-62 -57.5t-81.5 -47.5t-93 -19.5q-47 0 -95.5 18t-88.5 43.5t-77 51t-73 43.5t-65 18 q-22 0 -45 -7t-42 -17.5t-37 -23.5t-30 -23.5t-21 -19t-10 -9.5q-4 -4 -22 18t-34.5 47.5t-16.5 30.5z" />
<glyph unicode="&#xa1;" horiz-adv-x="532" d="M104 842q0 167 172 164q62 -2 106 -46.5t44 -117.5q0 -72 -46.5 -114.5t-127.5 -39.5q-63 2 -105.5 41t-42.5 113zM160 -449q-1 89 35 509t43 432q9 11 37 9.5t34 -7.5q2 -5 20 -212.5t35 -440t13 -283.5q-13 -10 -108 -12.5t-109 5.5z" />
<glyph unicode="&#xa2;" horiz-adv-x="1021" d="M111 483q0 95 31 183.5t88.5 160t149.5 115t204 43.5q44 0 84 -6l34 123q6 7 29.5 2t50.5 -15l27 -10l-37 -125q41 -15 76.5 -35t52.5 -34t19 -21q5 -20 -22.5 -80t-45.5 -61q-5 0 -21.5 10t-47 26.5t-60.5 28.5l-188 -641q40 -4 55 -4q20 0 39.5 2t37.5 7t33.5 9.5 t31.5 12.5t26.5 13t24.5 14t19.5 12.5t17.5 11.5l11 8q9 6 35 -30.5t47 -81.5q-45 -61 -131.5 -101t-191.5 -40q-37 0 -103 8l-45 -156l-68 18q-29 10 -28 17q3 18 39 149q-139 57 -206.5 183.5t-67.5 283.5zM291 475q0 -211 141 -291q28 97 92.5 313.5t93.5 315.5 q-8 2 -26 2q-135 0 -218 -89.5t-83 -250.5z" />
<glyph unicode="&#xa3;" horiz-adv-x="1120" d="M111 694.5q-3 54.5 2 55.5h118q-49 198 -49 301q0 130 59.5 224t155 138.5t213.5 44.5q84 0 157.5 -21t120 -50.5t81.5 -63.5t50.5 -57t18.5 -35q3 -13 -41 -61.5t-71 -55.5q-4 7 -11.5 18t-34.5 39.5t-59 50.5t-85.5 40t-112.5 18q-108 0 -180 -71.5t-72 -188.5 q0 -101 45 -270l366 2q3 -1 3.5 -48.5t-1.5 -50.5q-1 -1 -344 -8q17 -72 26.5 -117t15.5 -107t0 -104t-27 -84.5t-58 -72.5q11 0 110 0.5t189 1t178 -0.5t107 -3q13 -23 16 -63.5t-1 -70t-9 -30.5q-12 -4 -410 -4t-452 6q-10 0 -10.5 54.5t2.5 66.5q49 11 84.5 34.5 t56.5 51.5t31 69.5t12 80t-5 91.5t-15.5 96t-22.5 101q-22 0 -66.5 -1t-70.5 -1q-7 1 -10 55.5z" />
<glyph unicode="&#xa4;" horiz-adv-x="1071" d="M109 903q6 8 17.5 23.5t27 35.5t27.5 33t14 11l96 -109q43 34 111 53t135 19q58 0 125.5 -23t103.5 -53l121 117q78 -83 80 -95q0 -5 -41.5 -51t-73.5 -78q43 -88 43 -174q0 -79 -25.5 -147.5t-64.5 -112.5q14 -15 45 -46t51 -51.5t19 -21.5q-2 -2 -22.5 -20t-45 -38.5 t-31.5 -24.5q-8 -7 -51.5 37t-77.5 85q-51 -30 -155 -30q-46 0 -100.5 10t-86.5 27q-34 -38 -77 -78t-48 -33q-5 6 -27 31.5t-39 46t-16 22.5l99 88q-84 90 -84 258q0 46 12.5 98t32.5 87q-99 99 -94 104zM303 596q0 -99 73 -158t156 -59q102 0 160 53.5t58 163.5 q0 99 -54.5 165t-163.5 66q-120 0 -174.5 -63t-54.5 -168z" />
<glyph unicode="&#xa5;" horiz-adv-x="1290" d="M68 1384q0 12 70.5 36.5t92.5 21.5q7 -1 178 -290t226 -392q2 0 6 -1t6 -1q74 125 245.5 402.5t180.5 281.5q20 7 91 -16t73 -35q0 -22 -449 -750l277 -2q0 -7 -2.5 -52t-3.5 -48q-111 -7 -320 -9v-198l340 2q3 -1 3.5 -45.5t-1.5 -48.5l-342 -9q0 -123 -4 -237 q-7 -12 -54 -16t-90.5 0t-43.5 14q-2 21 -6 233l-328 -6q-7 1 -10 55.5t2 55.5l338 2v198q-220 0 -359 2q-7 2 -0.5 58.5t11.5 58.5l305 -4q-434 717 -432 739z" />
<glyph unicode="&#xa6;" horiz-adv-x="458" d="M169.5 1134.5q-0.5 361.5 4.5 370.5q5 11 33.5 14.5t54 2t25.5 -3.5v-738q-8 -2 -20 -4.5t-44 -7t-43 1.5q-10 3 -10.5 364.5zM172 297q6 11 34 13t52.5 -1.5t24.5 -5.5l4 -747q-3 -1 -8 -2.5t-19 -5t-26 -5.5t-25 -4t-21 -0.5t-8 6.5q-4 14 -7.5 378t-0.5 374z" />
<glyph unicode="&#xa7;" horiz-adv-x="1251" d="M117 561q0 94 58 171.5t171 115.5q-229 72 -229 272q0 145 136 241.5t372 96.5q151 0 269 -28t187 -72q8 -7 -6 -44.5t-34.5 -71t-28.5 -30.5q-61 33 -162.5 56.5t-218.5 23.5q-309 0 -309 -166q0 -33 10.5 -56.5t41.5 -47.5t94.5 -43t162.5 -35q261 -40 388.5 -120.5 t127.5 -211.5q0 -106 -61.5 -184.5t-178.5 -114.5q122 -40 181 -100.5t59 -163.5q0 -150 -151.5 -244t-403.5 -94q-128 0 -274.5 38.5t-196.5 80.5q-3 25 26 87t46 65q77 -52 195 -82.5t208 -30.5q157 0 249.5 51.5t92.5 116.5q0 76 -89 121.5t-300 77.5q-432 64 -432 325z M305 592q0 -160 395 -213q113 1 182.5 58t69.5 136q0 170 -428 215q-96 -14 -157.5 -72t-61.5 -124z" />
<glyph unicode="&#xa8;" horiz-adv-x="1024" d="M193 1280q0 53 30.5 85t77.5 32q44 0 79.5 -34t35.5 -77q0 -52 -24.5 -86.5t-78.5 -34.5q-57 0 -87.5 30.5t-32.5 84.5zM606 1280q0 53 31 85t78 32q44 0 79 -34t35 -77q0 -52 -24 -86.5t-78 -34.5q-57 0 -88 30.5t-33 84.5z" />
<glyph unicode="&#xa9;" horiz-adv-x="1822" d="M106 694q0 170 43 308t118.5 233t182.5 159.5t232 94t270 29.5q164 0 303.5 -54t242 -154.5t160.5 -254.5t58 -344q0 -117 -28 -228.5t-89.5 -214t-150.5 -179t-220.5 -122t-289.5 -45.5q-242 0 -431 95.5t-295 271.5t-106 405zM225 692q0 -126 38 -233.5t105 -186 t157 -133.5t196 -82.5t221 -27.5q132 0 248 41t208.5 120.5t146.5 211t54 298.5q0 138 -40 262.5t-116.5 225.5t-202.5 161t-284 60t-283.5 -39t-208 -105t-137.5 -159t-78.5 -195.5t-23.5 -218.5zM539 727q0 183 109.5 305.5t293.5 122.5q144 0 252 -65q3 -12 -18 -65.5 t-37 -63.5q-77 59 -197 59q-109 0 -181.5 -89t-72.5 -208q0 -132 64 -215.5t180 -83.5q87 0 196 70q15 -9 37 -48.5t33 -68.5q-43 -36 -116.5 -64t-161.5 -28q-186 0 -283.5 122.5t-97.5 319.5z" />
<glyph unicode="&#xaa;" horiz-adv-x="845" d="M104 831q0 105 79 168.5t200 63.5q116 0 182 -62q0 108 -35.5 157.5t-136.5 49.5q-45 0 -81 -13t-53 -28.5t-30 -29t-16 -13.5q-9 -1 -48.5 30.5t-37.5 39.5q2 12 21 35t52 49.5t89.5 45.5t120.5 19q149 0 227 -82.5t78 -242.5q0 -102 -5 -242.5t-8 -148.5q-2 -4 -33 -4 t-61 2l-30 2l-7 63q-90 -78 -206 -78q-129 0 -195 63t-66 156zM238 836q0 -54 45 -86.5t116 -32.5q76 0 120 36.5t44 86.5q0 57 -46 90t-120 33q-69 0 -114 -37t-45 -90z" />
<glyph unicode="&#xab;" horiz-adv-x="983" d="M84 616q0 9 163 238.5t171 235.5q5 4 41.5 -23.5t36.5 -32.5q0 -2 -125.5 -205.5t-124.5 -207.5t124.5 -221t123.5 -222q0 -8 -39 -39.5t-43 -29.5t-166 250t-162 257zM473 616q0 9 163 238.5t171 235.5q5 4 41.5 -23.5t36.5 -32.5q0 -2 -125.5 -205.5t-124.5 -207.5 t124.5 -221t123.5 -222q0 -8 -39 -39.5t-43 -29.5t-166 250t-162 257z" />
<glyph unicode="&#xac;" horiz-adv-x="1060" d="M127.5 621q-0.5 28 1.5 56t4 28q9 2 165 4.5t370 5t241 2.5l4 -463q0 -6 -30 -11t-56 -5t-30 6q-3 24 -4 75.5t-1 95.5t0.5 102t0.5 71q-106 -5 -344 -3.5t-316 7.5q-5 1 -5.5 29z" />
<glyph unicode="&#xad;" horiz-adv-x="780" d="M142.5 589q-3.5 62 2.5 64q9 2 242 8.5t242 2.5q9 -8 10 -42.5t-1.5 -65t-4.5 -32.5q0 -1 -102.5 -4t-208.5 -4.5t-164 0.5q-12 11 -15.5 73z" />
<glyph unicode="&#xae;" horiz-adv-x="1169" d="M96 1122q0 159 69 273t181 168.5t252 54.5q209 0 343 -139t134 -363q0 -84 -30 -165.5t-87 -149.5t-150 -110t-208 -42q-221 0 -362.5 133t-141.5 340zM203 1116q0 -107 56 -193t147.5 -132t199.5 -46q154 0 257.5 98t103.5 269q0 106 -40 196t-124 149t-197 59 q-111 0 -191.5 -31.5t-125.5 -88.5t-65.5 -126t-20.5 -154zM423.5 1136q1.5 219 4.5 230q24 8 147 8q87 0 137 -41t50 -112q0 -98 -88 -136q23 -29 48.5 -64.5t40 -58.5t13.5 -24q-3 -6 -36.5 -21.5t-43.5 -17.5q-1 0 -18 25t-47.5 66.5t-57.5 72.5q-35 0 -51 2 q-1 -6 -1.5 -75t-2.5 -83q-1 -2 -47 -1.5t-47 3.5q-2 8 -0.5 227zM520 1288q0 -123 2 -139q14 -2 56 -2q39 0 63.5 17.5t24.5 52.5t-23 55t-68 20q-15 0 -55 -4z" />
<glyph unicode="&#xaf;" horiz-adv-x="1024" d="M234 1254q1 62 6 65q8 3 275 6.5t273 -2.5q2 -7 -2 -64t-8 -57q-1 0 -266 -5t-272 -5t-6 62z" />
<glyph unicode="&#xb0;" horiz-adv-x="841" d="M94 1143q0 146 93 234.5t245 88.5q137 0 226.5 -93.5t89.5 -237.5q0 -60 -19 -115.5t-56.5 -101.5t-101 -73.5t-143.5 -27.5q-154 0 -244 85t-90 241zM223 1133q0 -90 60.5 -144.5t142.5 -54.5q88 0 139 52t51 147q0 87 -48 151t-142 64q-54 0 -94.5 -18t-63.5 -49 t-34 -68t-11 -80z" />
<glyph unicode="&#xb1;" horiz-adv-x="1153" d="M105 831.5q0 24.5 1 28.5l402 6v414q54 14 121 -2v-399h409q2 -109 -8 -115q-6 -5 -193.5 -13.5t-191.5 -9.5q-5 -2 -10 -284q-2 0 -14 -3t-14.5 -3.5t-13.5 -2.5t-15 -2t-13 -1t-14.5 0.5t-13 3t-14 5t-13.5 7.5q-5 286 -8 289q-1 1 -98.5 -1.5t-182.5 -4.5t-104 1 q-5 3 -8.5 32.5t-3.5 54zM170.5 243.5q-0.5 24.5 1.5 28.5q10 0 26 0.5t69.5 1.5t101.5 2t121.5 2.5t129.5 2.5t125.5 2.5t110 1.5t82.5 0.5t43 -0.5q2 -109 -8 -115l-791 -14q-5 3 -8 33t-3.5 54.5z" />
<glyph unicode="&#xb2;" horiz-adv-x="743" d="M80 834q51 56 125.5 132t115.5 118.5t84 95t61.5 94.5t18.5 82q0 59 -35 96t-108 37q-96 0 -168 -90q-19 8 -52.5 49.5t-29.5 54.5q3 10 21.5 29t50.5 42.5t86 40.5t115 17q129 0 204.5 -67t75.5 -187q0 -28 -5 -55t-18.5 -57t-24.5 -52t-37.5 -56.5t-41 -53.5t-51.5 -59 t-53 -57t-62.5 -64t-62.5 -64l4 -2l338 4q8 -5 9.5 -40t-2.5 -67.5t-11 -31.5q-20 -2 -270.5 -2.5t-256.5 0.5q-5 3 -14.5 52t-5.5 61z" />
<glyph unicode="&#xb3;" horiz-adv-x="774" d="M78 801q-2 13 26.5 54t47.5 50q76 -63 196 -63q81 0 127.5 37.5t46.5 99.5t-44 98.5t-130 36.5h-139q-9 12 -9.5 65t9.5 62q14 0 69 -1t84 -1q49 0 93.5 30t44.5 95q0 63 -45 99t-109 36q-99 0 -168 -69q-15 1 -43.5 35t-42.5 57q37 44 106 77t164 33q127 0 207 -67 t80 -181q0 -76 -39.5 -129.5t-79.5 -72.5v-6q15 -4 31.5 -11.5t38 -24.5t38.5 -39t28.5 -57t11.5 -77q0 -121 -91 -189.5t-225 -68.5q-98 0 -175.5 29.5t-108.5 62.5z" />
<glyph unicode="&#xb4;" horiz-adv-x="1024" d="M242 1196l458 238q9 -1 29.5 -34t36 -66t12.5 -34q-1 0 -118.5 -53t-234 -104.5t-120.5 -50.5q-16 5 -31.5 31t-23.5 49z" />
<glyph unicode="&#xb5;" horiz-adv-x="1150" d="M141 365q0 107 12 318.5t21 293.5q9 17 83 14t89 -10q0 -23 -11 -284.5t-11 -323.5q0 -117 58 -181t171 -65q119 0 192.5 74.5t75.5 185.5q16 551 21 561q4 8 85 5.5t87 -11.5q0 -2 -4 -148t-10.5 -385t-10.5 -423q-11 -16 -83.5 -13t-82.5 17q1 17 1 46.5v51.5t1 27 q-40 -59 -125 -104.5t-176 -45.5q-125 0 -198 60l-15 -463q-159 -10 -159 8q-11 333 -11 795z" />
<glyph unicode="&#xb6;" horiz-adv-x="968" d="M100 1169q-1 63 14.5 109.5t40 73.5t61.5 43.5t72.5 22t80.5 5.5h102l-22 -1693l-103 -8q-36 -1 -39 4q-2 90 0.5 397.5t6.5 570.5l3 262q-37 0 -73 11.5t-69 34.5t-53.5 66.5t-21.5 100.5zM647 -274l17 1693q127 -4 129 -6t0 -386.5t-4 -757.5t2 -539l-104 -8 q-37 -1 -40 4z" />
<glyph unicode="&#xb7;" horiz-adv-x="565" d="M121 592q0 81 46.5 124.5t133.5 39.5q61 -3 102 -41t41 -117t-47.5 -122t-134.5 -42q-55 3 -98 47.5t-43 110.5z" />
<glyph unicode="&#xb8;" horiz-adv-x="1024" d="M385 -281q0 1 21 53t45.5 113t46 112t24.5 52q15 4 46 -1.5t55 -13.5l24 -7q-100 -330 -110 -336q-7 -3 -45.5 3t-73 14t-33.5 11z" />
<glyph unicode="&#xb9;" horiz-adv-x="561" d="M53 1462q16 19 137 88.5t146 75.5q20 -2 53.5 -12.5t38.5 -20.5q0 -815 -4 -866q-6 -4 -75 -7t-75 5q-2 94 -2 163t3.5 297t3.5 271l-132 -82q-46 -27 -53 -26q-8 1 -26.5 55.5t-14.5 58.5z" />
<glyph unicode="&#xba;" horiz-adv-x="913" d="M98 979q0 92 41 172.5t124 133t192 52.5q159 0 258.5 -97t99.5 -273q0 -156 -94 -258.5t-262 -102.5q-158 0 -258.5 100t-100.5 273zM246 971q0 -109 59.5 -168.5t145.5 -59.5q105 -1 160 58t55 168q0 118 -57.5 168.5t-149.5 50.5q-105 1 -159 -59t-54 -158z" />
<glyph unicode="&#xbb;" horiz-adv-x="976" d="M100 172q0 2 123.5 210t122.5 212t-123.5 208.5t-122.5 209.5q0 8 38 39.5t42 29.5t166 -239t162 -246t-161 -241t-169 -238q-6 -4 -42 23t-36 32zM485 172q0 2 123.5 210t122.5 212t-123.5 208.5t-122.5 209.5q0 8 38 39.5t42 29.5t166 -239t162 -246t-161 -241 t-169 -238q-6 -4 -42 23t-36 32z" />
<glyph unicode="&#xbc;" horiz-adv-x="1636" d="M61 1294q16 19 137 88.5t146 75.5q20 -2 53.5 -12.5t38.5 -20.5q0 -815 -4 -866q-6 -4 -74.5 -7t-74.5 5q-3 21 4 731l-132 -82q-46 -27 -53 -26q-8 1 -26.5 55.5t-14.5 58.5zM303 49q1 1 203 348t405.5 692t210.5 345q18 0 60.5 -19t38.5 -35q-6 -24 -397 -695.5 t-423 -700.5q-4 -1 -16 5.5t-26 15.5t-27 18.5t-21.5 17t-7.5 8.5zM852 301q19 45 193 294t229 314q31 2 82 -4t71 -18l-2 -576q111 0 136 -2q2 -4 2 -33t-1 -56l-1 -27q0 -3 -140 -3q2 -184 2 -186q-77 -18 -141 8v176q-23 -2 -200.5 -2.5t-213.5 0.5q-19 74 -16 115z M1008 309l276 2l8 402h-6q-5 -8 -73 -102.5t-132 -187t-73 -114.5z" />
<glyph unicode="&#xbd;" horiz-adv-x="1654" d="M61 1294q16 19 137 88.5t146 75.5q20 -2 53.5 -12.5t38.5 -20.5q0 -815 -4 -866q-6 -4 -74.5 -7t-74.5 5q-3 21 4 731l-132 -82q-46 -27 -53 -26q-8 1 -26.5 55.5t-14.5 58.5zM303 49q1 1 203 348t405.5 692t210.5 345q18 0 60.5 -19t38.5 -35q-6 -24 -397 -695.5 t-423 -700.5q-4 -1 -16 5.5t-26 15.5t-27 18.5t-21.5 17t-7.5 8.5zM989 109q52 56 126 131.5t115 119t84 95.5t62 94t19 82q0 59 -35 96t-109 37q-96 0 -168 -90q-19 8 -52.5 49.5t-29.5 54.5q3 10 21.5 29t50.5 42.5t86 40.5t115 17q129 0 204.5 -67t75.5 -187 q0 -28 -5 -55t-18.5 -57t-24.5 -52t-37.5 -56.5t-41 -53.5t-51.5 -59t-53 -57t-62.5 -64t-62.5 -64l4 -2l338 4q8 -5 9.5 -40t-2.5 -67.5t-11 -31.5q-20 -2 -270 -2.5t-256 0.5q-5 3 -15 52t-6 61z" />
<glyph unicode="&#xbe;" horiz-adv-x="1812" d="M88 631q-2 13 26.5 54t47.5 50q76 -63 196 -63q81 0 127.5 37.5t46.5 99.5t-44 98.5t-130 36.5h-139q-9 12 -9.5 65t9.5 62q14 0 69.5 -1t84.5 -1q49 0 93 30t44 95q0 63 -45 99t-109 36q-99 0 -168 -69q-15 1 -43.5 35t-42.5 57q37 44 106.5 77t164.5 33 q127 0 206.5 -67t79.5 -181q0 -76 -39 -129.5t-79 -72.5v-6q15 -4 31.5 -11.5t38 -24.5t38 -39t28 -57t11.5 -77q0 -121 -90.5 -189.5t-224.5 -68.5q-98 0 -176 29.5t-109 62.5zM483 49q1 1 203 348t406 692t211 345q18 0 60 -19t38 -35q-6 -24 -396.5 -695.5t-422.5 -700.5 q-6 -1 -31.5 14.5t-47.5 32t-20 18.5zM1032 301q19 45 193 294t229 314q31 2 82.5 -4t71.5 -18l-2 -576q110 0 135 -2q2 -4 2 -33t-1 -56l-1 -27q0 -3 -139 -3q2 -184 2 -186q-77 -18 -142 8v176q-23 -2 -200 -2.5t-213 0.5q-20 77 -17 115zM1188 309l276 2l9 402h-7 q-5 -8 -73 -102.5t-132 -187t-73 -114.5z" />
<glyph unicode="&#xbf;" horiz-adv-x="905" d="M74 -70q0 175 113.5 285t279.5 133l14 160q20 6 65.5 6.5t67.5 -2.5q7 -9 10 -80.5t2 -139.5l-1 -67q-105 0 -186.5 -29t-133 -95t-51.5 -162q0 -40 14 -80.5t42.5 -77.5t80.5 -60.5t119 -23.5q68 0 132.5 21t95.5 42l30 21q9 -10 21.5 -26t32.5 -52.5t16 -58.5 q-38 -45 -129 -77t-220 -32q-117 0 -209.5 44t-149 135t-56.5 216zM391 850q0 167 172 164q62 -2 106 -47.5t44 -116.5q0 -72 -46.5 -114.5t-127.5 -41.5q-64 3 -106 42t-42 114z" />
<glyph unicode="&#xc0;" d="M74 18q37 134 259 770t238 644q14 9 110 15t138 -1q3 -1 124.5 -325.5t249 -682t142.5 -426.5q-12 -21 -101 -27.5t-91 3.5q-66 170 -142 381q-345 -13 -606 -13q-123 -345 -131 -364q-4 -8 -93.5 0t-96.5 26zM385 1759q-3 1 13 33.5t37 65.5t30 34q4 2 119 -57.5 t228 -119.5l112 -60q-3 -10 -9.5 -26t-23.5 -45t-33 -34q-4 -1 -120.5 50.5t-234 105t-118.5 53.5zM438 516q332 10 527 10q-85 228 -162.5 454t-91.5 294q-2 0 -7.5 -1t-7.5 -1q-94 -304 -258 -756z" />
<glyph unicode="&#xc1;" d="M74 18q37 134 259 770t238 644q14 9 110 15t138 -1q3 -1 124.5 -325.5t249 -682t142.5 -426.5q-12 -21 -101 -27.5t-91 3.5q-66 170 -142 381q-345 -13 -606 -13q-123 -345 -131 -364q-4 -8 -93.5 0t-96.5 26zM438 516q332 10 527 10q-85 228 -162.5 454t-91.5 294 q-2 0 -7.5 -1t-7.5 -1q-94 -304 -258 -756zM485 1655l459 237q9 -1 29.5 -34t36 -65.5t12.5 -33.5q-1 0 -118.5 -53.5t-234 -105t-120.5 -50.5q-16 5 -32 31.5t-24 50.5z" />
<glyph unicode="&#xc2;" d="M74 18q37 134 259 770t238 644q14 9 110 15t138 -1q3 -1 124.5 -325.5t249 -682t142.5 -426.5q-12 -21 -101 -27.5t-91 3.5q-66 170 -142 381q-345 -13 -606 -13q-123 -345 -131 -364q-4 -8 -93.5 0t-96.5 26zM381 1665q280 203 319 219q7 -3 86.5 -56.5t155.5 -105.5 l76 -53q-28 -80 -57 -92q-5 -2 -96 48.5t-165 96.5q-43 -24 -112 -63.5t-106.5 -61t-39.5 -20.5q-13 5 -28 27t-24 42zM438 516q332 10 527 10q-85 228 -162.5 454t-91.5 294q-2 0 -7.5 -1t-7.5 -1q-94 -304 -258 -756z" />
<glyph unicode="&#xc3;" d="M74 18q37 134 259 770t238 644q14 9 110 15t138 -1q3 -1 124.5 -325.5t249 -682t142.5 -426.5q-12 -21 -101 -27.5t-91 3.5q-66 170 -142 381q-345 -13 -606 -13q-123 -345 -131 -364q-4 -8 -93.5 0t-96.5 26zM371 1743q31 43 81 72.5t111 29.5q46 0 98 -28.5t103 -57 t92 -28.5q13 0 25 2t23 7.5t19 10t18.5 13.5t15 13t15.5 15.5t13 13.5q12 -3 35 -38t29 -64q-2 -4 -7 -11.5t-22.5 -26.5t-38.5 -33t-55 -26t-72 -12q-46 0 -103.5 28.5t-111 57.5t-88.5 29q-10 0 -20.5 -2.5t-18.5 -5.5t-19 -9.5t-16.5 -10t-16.5 -12.5t-14 -11.5 t-14 -12.5l-10 -10q-5 -5 -17 18q-27 48 -33 84zM438 516q332 10 527 10q-85 228 -162.5 454t-91.5 294q-2 0 -7.5 -1t-7.5 -1q-94 -304 -258 -756z" />
<glyph unicode="&#xc4;" d="M74 18q37 134 259 770t238 644q14 9 110 15t138 -1q3 -1 124.5 -325.5t249 -682t142.5 -426.5q-12 -21 -101 -27.5t-91 3.5q-66 170 -142 381q-345 -13 -606 -13q-123 -345 -131 -364q-4 -8 -93.5 0t-96.5 26zM385 1739q0 53 31 84.5t78 31.5q44 0 79 -33.5t35 -76.5 q0 -52 -24 -86.5t-78 -34.5q-57 0 -88 30.5t-33 84.5zM438 516q332 10 527 10q-85 228 -162.5 454t-91.5 294q-2 0 -7.5 -1t-7.5 -1q-94 -304 -258 -756zM799 1739q0 53 30.5 84.5t77.5 31.5q44 0 79.5 -33.5t35.5 -76.5q0 -52 -24 -86.5t-78 -34.5q-57 0 -88 30.5t-33 84.5 z" />
<glyph unicode="&#xc5;" d="M74 18q37 134 259 770t238 644q14 9 110 15t138 -1q3 -1 124.5 -325.5t249 -682t142.5 -426.5q-12 -21 -101 -27.5t-91 3.5q-66 170 -142 381q-345 -13 -606 -13q-123 -345 -131 -364q-4 -8 -93.5 0t-96.5 26zM438 516q332 10 527 10q-85 228 -162.5 454t-91.5 294 q-2 0 -7.5 -1t-7.5 -1q-94 -304 -258 -756zM504 1700q0 86 59 135t148 49q83 0 137.5 -51.5t54.5 -134.5q0 -80 -49 -136.5t-143 -56.5q-93 0 -150 53t-57 142zM604 1692q0 -40 34 -65t73 -25q40 0 66 23.5t26 66.5q0 39 -24 67.5t-68 28.5q-56 0 -81.5 -27.5t-25.5 -68.5z " />
<glyph unicode="&#xc6;" horiz-adv-x="1849" d="M12 18q65 148 388 780.5t341 633.5q61 9 531.5 10.5t476.5 -4.5q21 -9 8 -164q-15 -4 -306 -7.5t-402 -0.5l4 -473q94 2 320.5 -1t236.5 -6q5 -2 7.5 -15t3.5 -30t0.5 -37t-1 -36t-1.5 -28l-1 -13q0 -9 -565 -2q0 -352 -2 -475q605 13 661 6q10 -33 9.5 -86.5t-3.5 -77.5 q2 -2 -199.5 -6t-415 -3.5t-237.5 7.5l-6 375q-240 -9 -465 -9q-32 -59 -78 -148t-74.5 -144t-39.5 -72q-4 -8 -95.5 0t-95.5 26zM463 516l397 6q0 394 4 742l-10 2z" />
<glyph unicode="&#xc7;" horiz-adv-x="1304" d="M113 725q0 150 47.5 282.5t133.5 231.5t215.5 157t283.5 58q142 0 255 -39.5t175 -89.5q3 -17 -27.5 -79t-50.5 -81q-161 111 -354 111q-135 0 -245 -74t-171.5 -201t-61.5 -280q0 -260 122 -415.5t333 -155.5q81 0 166 28.5t131.5 56.5t81.5 56q20 -19 48.5 -65 t43.5 -81q-58 -60 -182.5 -113.5t-263.5 -60.5q-24 -78 -56.5 -175.5t-36.5 -100.5q-7 -3 -45 3.5t-72.5 15.5t-33.5 12q0 5 100 251q-132 17 -235 81t-168.5 163.5t-99 227t-33.5 276.5z" />
<glyph unicode="&#xc8;" horiz-adv-x="1173" d="M185 694q2 557 8 736q80 8 457.5 11.5t422.5 -3.5q11 -8 11 -73t-5 -91q-13 -4 -304 -7.5t-404 -0.5l4 -473q94 2 320.5 -1t238.5 -6q4 -2 6.5 -15t3 -30t0 -37t-1 -36t-1.5 -28l-1 -13q0 -9 -565 -2q0 -354 -2 -475q609 13 661 6q12 -27 11.5 -87t-5.5 -77q3 -2 -198 -6 t-415 -3.5t-239 7.5q-5 147 -3 704zM326 1759q-3 1 13 33.5t37 65.5t30 34q4 2 118.5 -57.5t227.5 -119.5l112 -60q-3 -10 -9 -26t-23 -45t-33 -34q-4 -1 -120.5 50.5t-234 105t-118.5 53.5z" />
<glyph unicode="&#xc9;" horiz-adv-x="1173" d="M185 694q2 557 8 736q80 8 457.5 11.5t422.5 -3.5q11 -8 11 -73t-5 -91q-13 -4 -304 -7.5t-404 -0.5l4 -473q94 2 320.5 -1t238.5 -6q4 -2 6.5 -15t3 -30t0 -37t-1 -36t-1.5 -28l-1 -13q0 -9 -565 -2q0 -354 -2 -475q609 13 661 6q12 -27 11.5 -87t-5.5 -77q3 -2 -198 -6 t-415 -3.5t-239 7.5q-5 147 -3 704zM381 1655l459 237q9 -1 29.5 -34t36 -65.5t12.5 -33.5q-1 0 -119 -53.5t-234.5 -105t-120.5 -50.5q-16 5 -31.5 31.5t-23.5 50.5z" />
<glyph unicode="&#xca;" horiz-adv-x="1173" d="M185 694q2 557 8 736q80 8 457.5 11.5t422.5 -3.5q11 -8 11 -73t-5 -91q-13 -4 -304 -7.5t-404 -0.5l4 -473q94 2 320.5 -1t238.5 -6q4 -2 6.5 -15t3 -30t0 -37t-1 -36t-1.5 -28l-1 -13q0 -9 -565 -2q0 -354 -2 -475q609 13 661 6q12 -27 11.5 -87t-5.5 -77q3 -2 -198 -6 t-415 -3.5t-239 7.5q-5 147 -3 704zM307 1665q281 203 320 219q7 -3 86.5 -56.5t154.5 -105.5l76 -53q-28 -80 -57 -92q-5 -2 -95 48.5t-165 96.5q-43 -24 -112 -63.5t-106.5 -61t-39.5 -20.5q-13 5 -28.5 27t-24.5 42z" />
<glyph unicode="&#xcb;" horiz-adv-x="1173" d="M185 694q2 557 8 736q80 8 457.5 11.5t422.5 -3.5q11 -8 11 -73t-5 -91q-13 -4 -304 -7.5t-404 -0.5l4 -473q94 2 320.5 -1t238.5 -6q4 -2 6.5 -15t3 -30t0 -37t-1 -36t-1.5 -28l-1 -13q0 -9 -565 -2q0 -354 -2 -475q609 13 661 6q12 -27 11.5 -87t-5.5 -77q3 -2 -198 -6 t-415 -3.5t-239 7.5q-5 147 -3 704zM307 1739q0 53 31 84.5t78 31.5q44 0 79 -33.5t35 -76.5q0 -52 -24 -86.5t-78 -34.5q-57 0 -88 30.5t-33 84.5zM721 1739q0 53 30.5 84.5t77.5 31.5q44 0 79.5 -33.5t35.5 -76.5q0 -52 -24 -86.5t-78 -34.5q-57 0 -88 30.5t-33 84.5z" />
<glyph unicode="&#xcc;" horiz-adv-x="569" d="M0 1759q-3 1 13 33.5t37 65.5t30 34q4 2 119 -57.5t227 -119.5l113 -60q-3 -10 -9.5 -26t-23.5 -45t-33 -34q-4 -1 -120.5 50.5t-234 105t-118.5 53.5zM187 696q-2 522 3 723q20 25 101.5 22.5t85.5 -14.5q6 -178 7 -713t-5 -720q-8 -9 -54.5 -12t-89 0t-42.5 8 q-4 184 -6 706z" />
<glyph unicode="&#xcd;" horiz-adv-x="569" d="M27 1655l458 237q9 -1 29.5 -34t36 -65.5t12.5 -33.5q-1 0 -118.5 -53.5t-234 -105t-120.5 -50.5q-16 5 -31.5 31.5t-23.5 50.5zM187 696q-2 522 3 723q20 25 101.5 22.5t85.5 -14.5q6 -178 7 -713t-5 -720q-8 -9 -54.5 -12t-89 0t-42.5 8q-4 184 -6 706z" />
<glyph unicode="&#xce;" horiz-adv-x="569" d="M-35 1665q281 203 320 219q7 -3 86.5 -56.5t154.5 -105.5l76 -53q-28 -80 -57 -92q-5 -2 -95 48.5t-165 96.5q-43 -24 -112 -63.5t-106.5 -61t-39.5 -20.5q-13 5 -28.5 27t-24.5 42zM187 696q-2 522 3 723q20 25 101.5 22.5t85.5 -14.5q6 -178 7 -713t-5 -720 q-8 -9 -54.5 -12t-89 0t-42.5 8q-4 184 -6 706z" />
<glyph unicode="&#xcf;" horiz-adv-x="569" d="M-35 1739q0 53 31 84.5t78 31.5q44 0 79 -33.5t35 -76.5q0 -52 -24 -86.5t-78 -34.5q-57 0 -88 30.5t-33 84.5zM187 696q-2 522 3 723q20 25 101.5 22.5t85.5 -14.5q6 -178 7 -713t-5 -720q-8 -9 -54.5 -12t-89 0t-42.5 8q-4 184 -6 706zM379 1739q0 53 30.5 84.5 t77.5 31.5q44 0 79.5 -33.5t35.5 -76.5q0 -52 -24 -86.5t-78 -34.5q-57 0 -88 30.5t-33 84.5z" />
<glyph unicode="&#xd0;" horiz-adv-x="1443" d="M68 696.5q1 65.5 6 67.5q1 0 16.5 0.5t47 1.5t63.5 2q8 594 14 657q64 17 367 17q171 0 313.5 -56t237.5 -153.5t147.5 -231t52.5 -286.5q0 -164 -44 -296.5t-135 -232.5t-241 -154.5t-350 -54.5q-120 0 -223 9t-139 20q-7 99 0 627q-70 -2 -127 -2q-7 0 -6 65.5z M381 172q96 -14 192 -14q557 0 557 540q0 250 -159 408t-398 158q-41 0 -74.5 -1.5t-61.5 -4t-40 -3.5q3 -202 -4 -483q227 4 230 -2t-2 -67.5t-9 -61.5q-1 0 -30.5 -0.5t-86 -1.5t-104.5 -2q-6 -152 -10 -465z" />
<glyph unicode="&#xd1;" horiz-adv-x="1490" d="M182.5 704.5q-1.5 565.5 5.5 722.5q8 14 85 17.5t87 -6.5q15 -20 152.5 -225.5t326 -494t275.5 -433.5q4 209 1.5 650t0.5 468q27 13 101 12.5t79 -10.5q3 -7 6 -300t-0.5 -642t-15.5 -467q-3 -20 -81.5 -24t-90.5 8q-13 18 -149 225t-321 489.5t-273 415.5 q5 -951 4 -1112q-29 -14 -106.5 -16.5t-78.5 12.5q-6 145 -7.5 710.5zM406 1743q31 43 81 72.5t111 29.5q46 0 98 -28.5t103 -57t92 -28.5q13 0 25 2t23 7.5t19 10t18.5 13.5t15 13t15.5 15.5t13 13.5q12 -3 34.5 -38t28.5 -64q-2 -4 -7 -11.5t-22.5 -26.5t-38 -33 t-54.5 -26t-72 -12q-46 0 -103.5 28.5t-111 57.5t-88.5 29q-10 0 -20.5 -2.5t-18.5 -5.5t-19 -9.5t-16.5 -10t-16.5 -12.5t-14 -11.5t-13 -12.5l-11 -10q-5 -5 -17 18q-27 48 -33 84z" />
<glyph unicode="&#xd2;" horiz-adv-x="1538" d="M111 715q0 81 12.5 159.5t39.5 152.5t65.5 139.5t92.5 119.5t119 93.5t148 61t176 21.5q307 0 484 -200t177 -553q0 -112 -22 -216.5t-72 -202.5t-124 -171t-186.5 -116.5t-250.5 -43.5q-153 0 -279 60t-208.5 163t-127 240t-44.5 293zM309 705q0 -153 52.5 -280 t157 -206.5t243.5 -79.5q119 0 208.5 44t143 124t79.5 184t26 232q0 256 -120.5 406.5t-324.5 150.5q-224 0 -344.5 -159t-120.5 -416zM471 1759q-3 1 13 33.5t37 65.5t30 34q4 2 119 -57.5t228 -119.5l112 -60q-3 -10 -9.5 -26t-23.5 -45t-33 -34q-4 -1 -120.5 50.5 t-234 105t-118.5 53.5z" />
<glyph unicode="&#xd3;" horiz-adv-x="1538" d="M111 715q0 81 12.5 159.5t39.5 152.5t65.5 139.5t92.5 119.5t119 93.5t148 61t176 21.5q307 0 484 -200t177 -553q0 -112 -22 -216.5t-72 -202.5t-124 -171t-186.5 -116.5t-250.5 -43.5q-153 0 -279 60t-208.5 163t-127 240t-44.5 293zM309 705q0 -153 52.5 -280 t157 -206.5t243.5 -79.5q119 0 208.5 44t143 124t79.5 184t26 232q0 256 -120.5 406.5t-324.5 150.5q-224 0 -344.5 -159t-120.5 -416zM569 1655l459 237q9 -1 29.5 -34t36 -65.5t12.5 -33.5q-1 0 -118.5 -53.5t-234 -105t-120.5 -50.5q-16 5 -32 31.5t-24 50.5z" />
<glyph unicode="&#xd4;" horiz-adv-x="1538" d="M111 715q0 81 12.5 159.5t39.5 152.5t65.5 139.5t92.5 119.5t119 93.5t148 61t176 21.5q307 0 484 -200t177 -553q0 -112 -22 -216.5t-72 -202.5t-124 -171t-186.5 -116.5t-250.5 -43.5q-153 0 -279 60t-208.5 163t-127 240t-44.5 293zM309 705q0 -153 52.5 -280 t157 -206.5t243.5 -79.5q119 0 208.5 44t143 124t79.5 184t26 232q0 256 -120.5 406.5t-324.5 150.5q-224 0 -344.5 -159t-120.5 -416zM461 1665q280 203 319 219q7 -3 86.5 -56.5t155.5 -105.5l76 -53q-29 -80 -58 -92q-5 -2 -95 48.5t-165 96.5q-43 -24 -112 -63.5 t-106.5 -61t-39.5 -20.5q-13 5 -28 27t-24 42z" />
<glyph unicode="&#xd5;" horiz-adv-x="1538" d="M111 715q0 81 12.5 159.5t39.5 152.5t65.5 139.5t92.5 119.5t119 93.5t148 61t176 21.5q307 0 484 -200t177 -553q0 -112 -22 -216.5t-72 -202.5t-124 -171t-186.5 -116.5t-250.5 -43.5q-153 0 -279 60t-208.5 163t-127 240t-44.5 293zM309 705q0 -153 52.5 -280 t157 -206.5t243.5 -79.5q119 0 208.5 44t143 124t79.5 184t26 232q0 256 -120.5 406.5t-324.5 150.5q-224 0 -344.5 -159t-120.5 -416zM440 1743q31 43 81.5 72.5t111.5 29.5q46 0 98 -28.5t103 -57t92 -28.5q13 0 25 2t23 7.5t19 10t18.5 13.5t15 13t15.5 15.5t13 13.5 q12 -3 34.5 -38t28.5 -64q-2 -4 -7 -11.5t-22.5 -26.5t-38 -33t-54.5 -26t-72 -12q-46 0 -103.5 28.5t-111 57.5t-88.5 29q-10 0 -20.5 -2.5t-18.5 -5.5t-19 -9.5t-16.5 -10t-16.5 -12.5t-14 -11.5t-14 -12.5l-10 -10q-5 -5 -17 18q-28 48 -34 84z" />
<glyph unicode="&#xd6;" horiz-adv-x="1538" d="M111 715q0 81 12.5 159.5t39.5 152.5t65.5 139.5t92.5 119.5t119 93.5t148 61t176 21.5q307 0 484 -200t177 -553q0 -112 -22 -216.5t-72 -202.5t-124 -171t-186.5 -116.5t-250.5 -43.5q-153 0 -279 60t-208.5 163t-127 240t-44.5 293zM309 705q0 -153 52.5 -280 t157 -206.5t243.5 -79.5q119 0 208.5 44t143 124t79.5 184t26 232q0 256 -120.5 406.5t-324.5 150.5q-224 0 -344.5 -159t-120.5 -416zM461 1739q0 53 30.5 84.5t77.5 31.5q44 0 79.5 -33.5t35.5 -76.5q0 -52 -24 -86.5t-78 -34.5q-57 0 -88 30.5t-33 84.5zM874 1739 q0 53 31 84.5t78 31.5q44 0 79.5 -33.5t35.5 -76.5q0 -52 -24.5 -86.5t-78.5 -34.5q-57 0 -88 30.5t-33 84.5z" />
<glyph unicode="&#xd7;" horiz-adv-x="978" d="M109 885q19 28 37.5 45t50.5 39l284 -283l289 289l58 -60q18 -21 18 -26q-2 -6 -129 -145t-129 -144q-2 -6 143 -155t146 -152q3 -5 -34 -47.5t-50 -34.5q-6 5 -84 79t-152 144t-76 70q-1 0 -135 -142t-141 -143q-5 -1 -27 17t-41.5 37.5t-17.5 21.5l284 297z" />
<glyph unicode="&#xd8;" horiz-adv-x="1533" d="M111 715q0 81 12.5 159.5t39.5 152.5t65.5 139.5t92.5 119.5t119 93.5t148 61t176 21.5q227 0 391 -123q103 140 107 140l88 -49q26 -16 26 -21t-116 -164q165 -198 165 -536q0 -112 -22 -216.5t-72 -202.5t-124 -171t-186.5 -116.5t-250.5 -43.5q-216 0 -375 121 q-96 -130 -102 -127q-19 4 -63 38t-35 50q37 51 94 131q-88 101 -133 241.5t-45 301.5zM309 705q0 -218 105 -365l626 844q-110 96 -266 96q-224 0 -344.5 -159t-120.5 -416zM510 231q107 -92 252 -92q119 0 208.5 44t143 124t79.5 184t26 232q0 205 -89 346 q-212 -289 -620 -838z" />
<glyph unicode="&#xd9;" horiz-adv-x="1470" d="M166 551q0 209 9.5 500t21.5 368q2 16 93 16t93 -12q1 -29 -8.5 -398t-9.5 -464q0 -411 366 -411q95 0 168 31.5t116.5 87.5t65 126.5t21.5 153.5q0 138 -3 353.5t-5 364.5t0 179q22 11 104.5 13.5t87.5 -11.5q6 -27 11.5 -341t5.5 -556q0 -89 -15.5 -169t-55.5 -159 t-102.5 -135.5t-164 -91.5t-232.5 -35q-271 0 -419 148.5t-148 441.5zM395 1759q-3 1 13 33.5t37 65.5t30 34q4 2 119 -57.5t228 -119.5l112 -60q-3 -10 -9.5 -26t-23.5 -45t-33 -34q-4 -1 -120.5 50.5t-234 105t-118.5 53.5z" />
<glyph unicode="&#xda;" horiz-adv-x="1470" d="M166 551q0 209 9.5 500t21.5 368q2 16 93 16t93 -12q1 -29 -8.5 -398t-9.5 -464q0 -411 366 -411q95 0 168 31.5t116.5 87.5t65 126.5t21.5 153.5q0 138 -3 353.5t-5 364.5t0 179q22 11 104.5 13.5t87.5 -11.5q6 -27 11.5 -341t5.5 -556q0 -89 -15.5 -169t-55.5 -159 t-102.5 -135.5t-164 -91.5t-232.5 -35q-271 0 -419 148.5t-148 441.5zM571 1655l459 237q9 -1 29.5 -34t36 -65.5t12.5 -33.5q-1 0 -118.5 -53.5t-234 -105t-120.5 -50.5q-16 5 -32 31.5t-24 50.5z" />
<glyph unicode="&#xdb;" horiz-adv-x="1470" d="M166 551q0 209 9.5 500t21.5 368q2 16 93 16t93 -12q1 -29 -8.5 -398t-9.5 -464q0 -411 366 -411q95 0 168 31.5t116.5 87.5t65 126.5t21.5 153.5q0 138 -3 353.5t-5 364.5t0 179q22 11 104.5 13.5t87.5 -11.5q6 -27 11.5 -341t5.5 -556q0 -89 -15.5 -169t-55.5 -159 t-102.5 -135.5t-164 -91.5t-232.5 -35q-271 0 -419 148.5t-148 441.5zM414 1665q280 203 319 219q7 -3 86.5 -56.5t155.5 -105.5l76 -53q-29 -80 -58 -92q-5 -2 -95 48.5t-165 96.5q-43 -24 -112 -63.5t-106.5 -61t-39.5 -20.5q-13 5 -28 27t-24 42z" />
<glyph unicode="&#xdc;" horiz-adv-x="1470" d="M166 551q0 209 9.5 500t21.5 368q2 16 93 16t93 -12q1 -29 -8.5 -398t-9.5 -464q0 -411 366 -411q95 0 168 31.5t116.5 87.5t65 126.5t21.5 153.5q0 138 -3 353.5t-5 364.5t0 179q22 11 104.5 13.5t87.5 -11.5q6 -27 11.5 -341t5.5 -556q0 -89 -15.5 -169t-55.5 -159 t-102.5 -135.5t-164 -91.5t-232.5 -35q-271 0 -419 148.5t-148 441.5zM414 1739q0 53 30.5 84.5t77.5 31.5q44 0 79.5 -33.5t35.5 -76.5q0 -52 -24 -86.5t-78 -34.5q-57 0 -88 30.5t-33 84.5zM827 1739q0 53 31 84.5t78 31.5q44 0 79.5 -33.5t35.5 -76.5q0 -52 -24.5 -86.5 t-78.5 -34.5q-57 0 -88 30.5t-33 84.5z" />
<glyph unicode="&#xdd;" horiz-adv-x="1273" d="M61 1384q0 12 71 36.5t93 21.5q7 -1 178 -290t226 -392q2 0 6 -1t6 -1q74 125 245.5 402.5t180.5 281.5q20 7 91 -16t71 -35q0 -29 -498 -830q3 -409 -2 -567q-7 -12 -54.5 -16t-91.5 0t-44 14q-5 133 -2 581q-478 790 -476 811zM461 1655l459 237q9 -1 29.5 -34 t35.5 -65.5t12 -33.5q-1 0 -118.5 -53.5t-234 -105t-120.5 -50.5q-16 5 -31.5 31.5t-23.5 50.5z" />
<glyph unicode="&#xde;" horiz-adv-x="1257" d="M184 703.5q2 676.5 11 715.5q12 3 84.5 4.5t107.5 -0.5q3 0 1 -114.5t1 -114.5q126 8 250 8q264 0 403.5 -120t139.5 -361q0 -121 -43.5 -213.5t-120.5 -148t-176 -83.5t-217 -28q-68 0 -232 8q0 -188 -6 -258q-7 -8 -100.5 -8t-96.5 6q-8 31 -6 707.5zM385 1014 q1 -7 1 -137t0.5 -272t2.5 -173q189 -6 246 -6q158 0 254 72.5t96 216.5t-85 226t-253 83q-52 3 -98 0q-111 -4 -164 -10z" />
<glyph unicode="&#xdf;" horiz-adv-x="1214" d="M143 989q0 224 120.5 362t344.5 138q221 0 345 -108t124 -265q0 -63 -21.5 -118t-51.5 -92.5t-60.5 -68t-52 -58.5t-21.5 -52q0 -23 28 -51t68 -59.5t80.5 -69t68.5 -92.5t28 -117q0 -84 -31.5 -148.5t-81.5 -104.5t-121.5 -66.5t-142.5 -37.5t-154 -14q-45 99 -45 158 q197 5 285 53t88 162q0 44 -27 85.5t-65 75.5t-76 67t-65 71.5t-27 77.5q0 42 21 83t51 74.5t60.5 67.5t51.5 76.5t21 87.5q0 88 -73.5 152.5t-201.5 64.5t-204.5 -88t-77.5 -250q-2 -151 3 -548t3 -435q-152 -18 -172 2q-7 28 -13 427t-6 558z" />
<glyph unicode="&#xe0;" horiz-adv-x="1026" d="M82 293q0 145 106.5 233t270.5 88q86 0 151 -25t101 -65q0 162 -50 231.5t-192 69.5q-62 0 -111 -18.5t-72 -40t-40 -41t-21 -20.5q-12 -1 -62 37t-48 46q4 18 28.5 49t68 67.5t117.5 62.5t160 26q199 0 300.5 -114t101.5 -336q0 -144 -6 -334.5t-11 -198.5q-3 -5 -40 -5 t-73 3l-36 2l-10 90q-42 -44 -111.5 -76t-163.5 -32q-91 0 -161.5 25t-112.5 68t-63 95.5t-21 112.5zM233 1300q-3 1 13 34t37 66t30 34q4 2 119 -57.5t228 -120.5l112 -60q-3 -10 -9 -26t-23 -44.5t-33 -33.5q-4 -1 -120.5 50.5t-234.5 104.5t-119 53zM246 299 q0 -79 64.5 -127.5t166.5 -48.5q109 0 171.5 53t62.5 127q0 86 -66 134t-172 48q-99 0 -163 -54t-64 -132z" />
<glyph unicode="&#xe1;" horiz-adv-x="1026" d="M82 293q0 145 106.5 233t270.5 88q86 0 151 -25t101 -65q0 162 -50 231.5t-192 69.5q-62 0 -111 -18.5t-72 -40t-40 -41t-21 -20.5q-12 -1 -62 37t-48 46q4 18 28.5 49t68 67.5t117.5 62.5t160 26q199 0 300.5 -114t101.5 -336q0 -144 -6 -334.5t-11 -198.5q-3 -5 -40 -5 t-73 3l-36 2l-10 90q-42 -44 -111.5 -76t-163.5 -32q-91 0 -161.5 25t-112.5 68t-63 95.5t-21 112.5zM246 299q0 -79 64.5 -127.5t166.5 -48.5q109 0 171.5 53t62.5 127q0 86 -66 134t-172 48q-99 0 -163 -54t-64 -132zM270 1196l459 238q9 -1 29.5 -34t36 -66t12.5 -34 q-1 0 -118.5 -53t-234 -104.5t-120.5 -50.5q-16 5 -32 31t-24 49z" />
<glyph unicode="&#xe2;" horiz-adv-x="1026" d="M82 293q0 145 106.5 233t270.5 88q86 0 151 -25t101 -65q0 162 -50 231.5t-192 69.5q-62 0 -111 -18.5t-72 -40t-40 -41t-21 -20.5q-12 -1 -62 37t-48 46q4 18 28.5 49t68 67.5t117.5 62.5t160 26q199 0 300.5 -114t101.5 -336q0 -144 -6 -334.5t-11 -198.5q-3 -5 -40 -5 t-73 3l-36 2l-10 90q-42 -44 -111.5 -76t-163.5 -32q-91 0 -161.5 25t-112.5 68t-63 95.5t-21 112.5zM203 1206q280 203 319 219q7 -3 86.5 -56.5t155.5 -106.5l76 -52q-29 -80 -58 -92q-5 -2 -94.5 48.5t-165.5 97.5q-44 -25 -112 -64t-106 -61t-40 -21q-13 5 -28 27 t-24 41zM246 299q0 -79 64.5 -127.5t166.5 -48.5q109 0 171.5 53t62.5 127q0 86 -66 134t-172 48q-99 0 -163 -54t-64 -132z" />
<glyph unicode="&#xe3;" horiz-adv-x="1026" d="M82 293q0 145 106.5 233t270.5 88q86 0 151 -25t101 -65q0 162 -50 231.5t-192 69.5q-62 0 -111 -18.5t-72 -40t-40 -41t-21 -20.5q-12 -1 -62 37t-48 46q4 18 28.5 49t68 67.5t117.5 62.5t160 26q199 0 300.5 -114t101.5 -336q0 -144 -6 -334.5t-11 -198.5q-3 -5 -40 -5 t-73 3l-36 2l-10 90q-42 -44 -111.5 -76t-163.5 -32q-91 0 -161.5 25t-112.5 68t-63 95.5t-21 112.5zM182 1284q31 43 81.5 72.5t111.5 29.5q46 0 98 -28.5t103 -57t92 -28.5q15 0 30 4t24 8t23 15t18.5 15t18 18t15.5 16q12 -3 34.5 -38.5t28.5 -64.5q-2 -4 -7 -11.5 t-22.5 -26t-38 -33t-54.5 -26t-72 -11.5q-46 0 -104 28.5t-111.5 57t-88.5 28.5q-8 0 -16.5 -1.5t-15.5 -3.5t-15.5 -6t-14 -7t-13.5 -9t-12.5 -9t-12.5 -10t-10.5 -9.5t-10 -9.5t-8.5 -8q-5 -5 -17 18q-28 53 -34 88zM246 299q0 -79 64.5 -127.5t166.5 -48.5 q109 0 171.5 53t62.5 127q0 86 -66 134t-172 48q-99 0 -163 -54t-64 -132z" />
<glyph unicode="&#xe4;" horiz-adv-x="1026" d="M82 293q0 145 106.5 233t270.5 88q86 0 151 -25t101 -65q0 162 -50 231.5t-192 69.5q-62 0 -111 -18.5t-72 -40t-40 -41t-21 -20.5q-12 -1 -62 37t-48 46q4 18 28.5 49t68 67.5t117.5 62.5t160 26q199 0 300.5 -114t101.5 -336q0 -144 -6 -334.5t-11 -198.5q-3 -5 -40 -5 t-73 3l-36 2l-10 90q-42 -44 -111.5 -76t-163.5 -32q-91 0 -161.5 25t-112.5 68t-63 95.5t-21 112.5zM205 1280q0 53 30.5 85t77.5 32q44 0 79.5 -34t35.5 -77q0 -52 -24 -86.5t-78 -34.5q-57 0 -88 30.5t-33 84.5zM246 299q0 -79 64.5 -127.5t166.5 -48.5q109 0 171.5 53 t62.5 127q0 86 -66 134t-172 48q-99 0 -163 -54t-64 -132zM618 1280q0 53 31 85t78 32q44 0 79.5 -34t35.5 -77q0 -52 -24.5 -86.5t-78.5 -34.5q-57 0 -88 30.5t-33 84.5z" />
<glyph unicode="&#xe5;" horiz-adv-x="1026" d="M82 293q0 145 106.5 233t270.5 88q86 0 151 -25t101 -65q0 162 -50 231.5t-192 69.5q-62 0 -111 -18.5t-72 -40t-40 -41t-21 -20.5q-12 -1 -62 37t-48 46q4 18 28.5 49t68 67.5t117.5 62.5t160 26q199 0 300.5 -114t101.5 -336q0 -144 -6 -334.5t-11 -198.5q-3 -5 -40 -5 t-73 3l-36 2l-10 90q-42 -44 -111.5 -76t-163.5 -32q-91 0 -161.5 25t-112.5 68t-63 95.5t-21 112.5zM246 299q0 -79 64.5 -127.5t166.5 -48.5q109 0 171.5 53t62.5 127q0 86 -66 134t-172 48q-99 0 -163 -54t-64 -132zM324 1313q0 86 59 135t147 49q83 0 138 -51.5 t55 -134.5q0 -80 -49.5 -136.5t-143.5 -56.5q-93 0 -149.5 53t-56.5 142zM424 1305q0 -40 33.5 -65.5t72.5 -25.5q40 0 66.5 24t26.5 67q0 39 -24.5 67.5t-68.5 28.5q-56 0 -81 -27.5t-25 -68.5z" />
<glyph unicode="&#xe6;" horiz-adv-x="1716" d="M82 293q0 145 106.5 233t270.5 88q86 0 151 -25t101 -65q0 162 -50 231.5t-192 69.5q-62 0 -111 -18.5t-72 -40t-40 -41t-21 -20.5q-12 -1 -62 37t-48 46q4 18 28.5 49t68 67.5t117.5 62.5t160 26q271 0 361 -215q58 96 154 151.5t221 55.5q178 0 292.5 -115.5 t114.5 -281.5q0 -82 -16 -144q-67 -8 -319 -10t-355 2q0 -129 88.5 -207.5t212.5 -78.5q94 0 156.5 26.5t120.5 73.5q10 -5 40.5 -60t30.5 -73q-49 -47 -144.5 -87t-211.5 -40q-226 0 -352 149q-7 -124 -9 -129q-3 -5 -40 -5t-73 3l-36 2l-10 90q-42 -44 -111.5 -76 t-163.5 -32q-91 0 -161.5 25t-112.5 68t-63 95.5t-21 112.5zM246 299q0 -79 64.5 -127.5t166.5 -48.5q109 0 171.5 53t62.5 127q0 86 -66 134t-172 48q-99 0 -163 -54t-64 -132zM948 563l506 6q9 125 -55 198t-182 73q-120 0 -194.5 -82t-74.5 -195z" />
<glyph unicode="&#xe7;" horiz-adv-x="968" d="M92 483q0 95 31 183.5t88.5 160t149.5 115t204 43.5q58 0 112.5 -10.5t92 -25t67 -31.5t44 -30t16.5 -20q5 -19 -20 -81.5t-43 -63.5q-4 0 -40.5 23t-96.5 46t-122 23q-133 0 -217 -89.5t-84 -250.5q0 -79 21.5 -140t54 -96.5t75 -58t79 -30t71.5 -7.5q20 0 39 2.5 t36.5 7t33 9.5t31 12.5t26.5 13t24.5 13.5t19.5 12t16.5 11.5t11.5 8.5q9 6 35 -30.5t47 -81.5q-42 -54 -113 -91t-161 -46q-85 -284 -97 -293q-7 -3 -45 3t-72.5 14t-33.5 11q0 2 18 48.5t44.5 112t45.5 108.5q-82 11 -148.5 44.5t-111 81t-74 108.5t-42.5 126t-13 135z " />
<glyph unicode="&#xe8;" horiz-adv-x="1042" d="M92 475q0 137 52 251t158.5 186.5t248.5 72.5q178 0 292.5 -115.5t114.5 -281.5q0 -82 -16 -144q-67 -8 -319 -10t-355 2q0 -129 88.5 -207.5t212.5 -78.5q94 0 156.5 26.5t120.5 73.5q10 -5 41 -60t31 -73q-48 -47 -144.5 -87t-212.5 -40q-112 0 -202.5 39t-148 105.5 t-88 154t-30.5 186.5zM252 1300q-3 1 13 34t37 66t30 34q4 2 119 -57.5t227 -120.5l113 -60q-3 -10 -9.5 -26t-23.5 -44.5t-33 -33.5q-4 -1 -120.5 50.5t-234 104.5t-118.5 53zM274 563l506 6q9 125 -55 198t-182 73q-120 0 -194.5 -82t-74.5 -195z" />
<glyph unicode="&#xe9;" horiz-adv-x="1042" d="M92 475q0 137 52 251t158.5 186.5t248.5 72.5q178 0 292.5 -115.5t114.5 -281.5q0 -82 -16 -144q-67 -8 -319 -10t-355 2q0 -129 88.5 -207.5t212.5 -78.5q94 0 156.5 26.5t120.5 73.5q10 -5 41 -60t31 -73q-48 -47 -144.5 -87t-212.5 -40q-112 0 -202.5 39t-148 105.5 t-88 154t-30.5 186.5zM274 563l506 6q9 125 -55 198t-182 73q-120 0 -194.5 -82t-74.5 -195zM293 1196l459 238q9 -1 29.5 -34t35.5 -66t12 -34q-1 0 -118.5 -53t-234 -104.5t-120.5 -50.5q-16 5 -31.5 31t-23.5 49z" />
<glyph unicode="&#xea;" horiz-adv-x="1042" d="M92 475q0 137 52 251t158.5 186.5t248.5 72.5q178 0 292.5 -115.5t114.5 -281.5q0 -82 -16 -144q-67 -8 -319 -10t-355 2q0 -129 88.5 -207.5t212.5 -78.5q94 0 156.5 26.5t120.5 73.5q10 -5 41 -60t31 -73q-48 -47 -144.5 -87t-212.5 -40q-112 0 -202.5 39t-148 105.5 t-88 154t-30.5 186.5zM240 1206q280 203 319 219q7 -3 86.5 -56.5t155.5 -106.5l76 -52q-29 -80 -58 -92q-5 -2 -94.5 48.5t-165.5 97.5q-44 -25 -112 -64t-106 -61t-40 -21q-13 5 -28 27t-24 41zM274 563l506 6q9 125 -55 198t-182 73q-120 0 -194.5 -82t-74.5 -195z" />
<glyph unicode="&#xeb;" horiz-adv-x="1042" d="M92 475q0 137 52 251t158.5 186.5t248.5 72.5q178 0 292.5 -115.5t114.5 -281.5q0 -82 -16 -144q-67 -8 -319 -10t-355 2q0 -129 88.5 -207.5t212.5 -78.5q94 0 156.5 26.5t120.5 73.5q10 -5 41 -60t31 -73q-48 -47 -144.5 -87t-212.5 -40q-112 0 -202.5 39t-148 105.5 t-88 154t-30.5 186.5zM238 1280q0 53 30.5 85t77.5 32q44 0 79.5 -34t35.5 -77q0 -52 -24.5 -86.5t-78.5 -34.5q-57 0 -87.5 30.5t-32.5 84.5zM274 563l506 6q9 125 -55 198t-182 73q-120 0 -194.5 -82t-74.5 -195zM651 1280q0 53 31 85t78 32q44 0 79 -34t35 -77 q0 -52 -24 -86.5t-78 -34.5q-57 0 -88 30.5t-33 84.5z" />
<glyph unicode="&#xec;" horiz-adv-x="477" d="M-55 1300q-3 1 13 34t37 66t30 34q4 2 118.5 -57.5t226.5 -120.5l113 -60q-3 -10 -9 -26t-23 -44.5t-33 -33.5q-4 -1 -120.5 50.5t-234 104.5t-118.5 53zM147 975q7 8 88.5 7.5t88.5 -7.5q4 -6 4 -483t-4 -488q-7 -9 -82.5 -8.5t-79.5 6.5q-3 9 -13 483.5t-2 489.5z" />
<glyph unicode="&#xed;" horiz-adv-x="477" d="M-4 1196l459 238q9 -1 29.5 -34t35.5 -66t12 -34q-1 0 -118.5 -53t-234 -104.5t-120.5 -50.5q-16 5 -31.5 31t-23.5 49zM147 975q7 8 88.5 7.5t88.5 -7.5q4 -6 4 -483t-4 -488q-7 -9 -82.5 -8.5t-79.5 6.5q-3 9 -13 483.5t-2 489.5z" />
<glyph unicode="&#xee;" horiz-adv-x="477" d="M-84 1206q281 203 320 219q7 -3 86.5 -56.5t155.5 -106.5l75 -52q-28 -80 -57 -92q-5 -2 -94.5 48.5t-165.5 97.5q-44 -24 -112.5 -64t-106.5 -61.5t-40 -20.5q-13 5 -28 27t-24 41zM147 975q7 8 88.5 7.5t88.5 -7.5q4 -6 4 -483t-4 -488q-7 -9 -82.5 -8.5t-79.5 6.5 q-3 9 -13 483.5t-2 489.5z" />
<glyph unicode="&#xef;" horiz-adv-x="477" d="M-80 1280q0 53 31 85t78 32q44 0 79 -34t35 -77q0 -52 -24 -86.5t-78 -34.5q-57 0 -88 30.5t-33 84.5zM147 975q7 8 88.5 7.5t88.5 -7.5q4 -6 4 -483t-4 -488q-7 -9 -82.5 -8.5t-79.5 6.5q-3 9 -13 483.5t-2 489.5zM334 1280q0 53 30.5 85t77.5 32q44 0 79.5 -34 t35.5 -77q0 -52 -24 -86.5t-78 -34.5q-57 0 -88 30.5t-33 84.5z" />
<glyph unicode="&#xf0;" horiz-adv-x="1165" d="M92 453q0 95 25 173t66.5 129t96 86t111 50.5t115.5 15.5q219 0 338 -174l6 8q-3 135 -72.5 251.5t-189.5 197.5l-160 -119q-11 1 -30 21.5t-32 42t-10 24.5q51 44 121 101q-82 43 -184 65q1 30 50.5 79.5t74.5 49.5q119 -32 217 -88l110 82q11 -1 28 -24t28.5 -44.5 t11.5 -23.5q0 -7 -78 -68q143 -109 230.5 -281.5t87.5 -416.5q0 -125 -27.5 -228.5t-73 -173.5t-106.5 -118.5t-127.5 -70.5t-136.5 -22q-104 0 -192 29.5t-155 87t-105 149.5t-38 210zM264 436q0 -132 77.5 -216.5t221.5 -84.5q136 0 206.5 90.5t70.5 231.5q0 57 -17 109.5 t-51.5 96t-93 69.5t-133.5 26q-71 0 -126 -26.5t-88 -72t-50 -102t-17 -121.5z" />
<glyph unicode="&#xf1;" horiz-adv-x="1144" d="M147 18q0 409 5 932q8 14 89 20t89 -7q0 -108 -4 -132q31 59 123.5 108.5t189.5 49.5q162 0 266.5 -112t104.5 -304q0 -100 -5.5 -301t-11.5 -280q-5 -15 -83 -14t-85 8q-5 41 -4.5 132.5t3.5 259t3 189.5q0 109 -61.5 181.5t-171.5 72.5q-117 0 -191.5 -70.5 t-74.5 -164.5q0 -564 -9 -576q-3 -6 -86 -3.5t-86 11.5zM250 1284q31 43 81 72.5t111 29.5q46 0 98 -28.5t103 -57t92 -28.5q15 0 30 4t24 8t23 15t18.5 15t18 18t15.5 16q12 -3 35 -38.5t29 -64.5q-2 -4 -7 -11.5t-22.5 -26t-38.5 -33t-55 -26t-72 -11.5q-46 0 -103.5 28.5 t-111 57t-88.5 28.5q-8 0 -16.5 -1.5t-15.5 -3.5t-15.5 -6t-14 -7t-13.5 -9t-12.5 -9t-12.5 -10t-10.5 -9.5t-10 -9.5t-8.5 -8q-5 -5 -17 18q-28 53 -34 88z" />
<glyph unicode="&#xf2;" horiz-adv-x="1130" d="M90 492q0 75 19.5 146.5t59.5 133.5t95 109.5t132 74.5t165 27q103 0 189 -32.5t150 -94.5t100 -159.5t36 -219.5q0 -140 -53 -249.5t-161 -176t-257 -69.5q-210 0 -342.5 136.5t-132.5 373.5zM268 483q0 -163 83 -249.5t208 -86.5q147 -1 223 85.5t76 248.5 q0 320 -293 324q-146 1 -221.5 -88.5t-75.5 -233.5zM276 1300q-3 1 13 34t37 66t30 34q4 2 119 -57.5t227 -120.5l113 -60q-3 -10 -9 -26t-23 -44.5t-33 -33.5q-4 -1 -120.5 50.5t-234.5 104.5t-119 53z" />
<glyph unicode="&#xf3;" horiz-adv-x="1130" d="M92 492q0 75 19.5 146.5t59.5 133.5t95 109.5t132 74.5t165 27q103 0 189 -32.5t150 -94.5t100 -159.5t36 -219.5q0 -140 -53 -249.5t-161 -176t-257 -69.5q-210 0 -342.5 136.5t-132.5 373.5zM270 483q0 -163 83 -249.5t208 -86.5q147 -1 223 85.5t76 248.5 q0 320 -293 324q-146 1 -221.5 -88.5t-75.5 -233.5zM330 1196l458 238q9 -1 29.5 -34t36 -66t12.5 -34q-1 0 -118.5 -53t-234 -104.5t-120.5 -50.5q-16 5 -31.5 31t-23.5 49z" />
<glyph unicode="&#xf4;" horiz-adv-x="1130" d="M92 492q0 75 19.5 146.5t59.5 133.5t95 109.5t132 74.5t165 27q103 0 189 -32.5t150 -94.5t100 -159.5t36 -219.5q0 -140 -53 -249.5t-161 -176t-257 -69.5q-210 0 -342.5 136.5t-132.5 373.5zM262 1206q281 203 320 219q7 -3 86.5 -56.5t155.5 -106.5l75 -52 q-28 -80 -57 -92q-5 -2 -94.5 48.5t-165.5 97.5q-44 -25 -112 -64t-106 -61t-40 -21q-13 5 -28.5 27t-24.5 41zM270 483q0 -163 83 -249.5t208 -86.5q147 -1 223 85.5t76 248.5q0 320 -293 324q-146 1 -221.5 -88.5t-75.5 -233.5z" />
<glyph unicode="&#xf5;" horiz-adv-x="1130" d="M90 492q0 75 19.5 146.5t59.5 133.5t95 109.5t132 74.5t165 27q103 0 189 -32.5t150 -94.5t100 -159.5t36 -219.5q0 -140 -53 -249.5t-161 -176t-257 -69.5q-210 0 -342.5 136.5t-132.5 373.5zM238 1284q31 43 81 72.5t111 29.5q46 0 98 -28.5t103 -57t92 -28.5 q15 0 30 4t24 8t23 15t18.5 15t18 18t15.5 16q12 -3 34.5 -38.5t28.5 -64.5q-2 -4 -7 -11.5t-22.5 -26t-38 -33t-54.5 -26t-72 -11.5q-46 0 -103.5 28.5t-111 57t-88.5 28.5q-8 0 -16.5 -1.5t-15.5 -3.5t-15.5 -6t-14 -7t-13.5 -9t-12.5 -9t-12.5 -10t-10.5 -9.5t-10 -9.5 t-8.5 -8q-5 -5 -17 18q-28 53 -34 88zM268 483q0 -163 83 -249.5t208 -86.5q147 -1 223 85.5t76 248.5q0 320 -293 324q-146 1 -221.5 -88.5t-75.5 -233.5z" />
<glyph unicode="&#xf6;" horiz-adv-x="1130" d="M92 492q0 75 19.5 146.5t59.5 133.5t95 109.5t132 74.5t165 27q103 0 189 -32.5t150 -94.5t100 -159.5t36 -219.5q0 -140 -53 -249.5t-161 -176t-257 -69.5q-210 0 -342.5 136.5t-132.5 373.5zM260 1280q0 53 31 85t78 32q44 0 79 -34t35 -77q0 -52 -24 -86.5t-78 -34.5 q-57 0 -88 30.5t-33 84.5zM270 483q0 -163 83 -249.5t208 -86.5q147 -1 223 85.5t76 248.5q0 320 -293 324q-146 1 -221.5 -88.5t-75.5 -233.5zM674 1280q0 53 30.5 85t77.5 32q44 0 79.5 -34t35.5 -77q0 -52 -24 -86.5t-78 -34.5q-57 0 -88 30.5t-33 84.5z" />
<glyph unicode="&#xf7;" horiz-adv-x="989" d="M113 623q0 24 2 28l762 13q1 -109 -9 -113l-745 -14q-5 3 -7.5 32.5t-2.5 53.5zM375 934q0 65 26 98t99 33q59 0 94 -37t35 -104q0 -45 -36.5 -77t-92.5 -32q-57 0 -91 31.5t-34 87.5zM379 201q0 65 25.5 98t97.5 33q59 0 94 -37.5t35 -104.5q0 -46 -36 -78t-93 -32 q-56 0 -89.5 32.5t-33.5 88.5z" />
<glyph unicode="&#xf8;" horiz-adv-x="1130" d="M92 492q0 94 31.5 181.5t89 157t148 111t200.5 41.5q163 0 279 -78q90 107 100 117l63 -45q23 -18 21 -23l-100 -125q112 -134 112 -352q0 -140 -53 -249.5t-161 -176t-257 -69.5q-159 0 -278 81q-28 -33 -50.5 -59t-35 -39t-13.5 -12q-16 4 -48 35.5t-23 46.5 q35 45 86 104q-111 136 -111 353zM264 483q0 -128 51 -207l410 494q-61 39 -158 39q-149 1 -226 -89t-77 -237zM395 188q67 -47 164 -47q150 0 227.5 88.5t77.5 251.5q0 132 -53 211q-134 -166 -416 -504z" />
<glyph unicode="&#xf9;" horiz-adv-x="1138" d="M129 365q0 104 11.5 310.5t19.5 301.5q10 17 84.5 14t89.5 -10q0 -23 -12.5 -284.5t-12.5 -323.5q0 -117 58.5 -181t171.5 -65q120 0 193.5 74t76.5 186q17 580 20 584q5 7 85.5 5.5t86.5 -9.5q0 -71 -26 -981q-10 -16 -82.5 -13t-83.5 17q1 16 1.5 46t1 52t1.5 27 q-43 -61 -131.5 -105.5t-181.5 -44.5q-189 0 -280 104.5t-91 295.5zM264 1300q-3 1 13 34t37 66t30 34q4 2 119 -57.5t227 -120.5l113 -60q-3 -10 -9.5 -26t-23.5 -44.5t-33 -33.5q-4 -1 -120.5 50.5t-234 104.5t-118.5 53z" />
<glyph unicode="&#xfa;" horiz-adv-x="1138" d="M129 365q0 104 11.5 310.5t19.5 301.5q10 17 84.5 14t89.5 -10q0 -23 -12.5 -284.5t-12.5 -323.5q0 -117 58.5 -181t171.5 -65q120 0 193.5 74t76.5 186q17 580 20 584q5 7 85.5 5.5t86.5 -9.5q0 -71 -26 -981q-10 -16 -82.5 -13t-83.5 17q1 16 1.5 46t1 52t1.5 27 q-43 -61 -131.5 -105.5t-181.5 -44.5q-189 0 -280 104.5t-91 295.5zM362 1196l459 238q9 -1 29.5 -34t36 -66t12.5 -34q-1 0 -118.5 -53t-234 -104.5t-120.5 -50.5q-16 5 -32 31t-24 49z" />
<glyph unicode="&#xfb;" horiz-adv-x="1138" d="M129 365q0 104 11.5 310.5t19.5 301.5q10 17 84.5 14t89.5 -10q0 -23 -12.5 -284.5t-12.5 -323.5q0 -117 58.5 -181t171.5 -65q120 0 193.5 74t76.5 186q17 580 20 584q5 7 85.5 5.5t86.5 -9.5q0 -71 -26 -981q-10 -16 -82.5 -13t-83.5 17q1 16 1.5 46t1 52t1.5 27 q-43 -61 -131.5 -105.5t-181.5 -44.5q-189 0 -280 104.5t-91 295.5zM266 1206q281 203 320 219q7 -3 86.5 -56.5t155.5 -106.5l75 -52q-28 -80 -57 -92q-5 -2 -94.5 48.5t-165.5 97.5q-44 -25 -112 -64t-106 -61t-40 -21q-13 5 -28.5 27t-24.5 41z" />
<glyph unicode="&#xfc;" horiz-adv-x="1138" d="M129 365q0 104 11.5 310.5t19.5 301.5q10 17 84.5 14t89.5 -10q0 -23 -12.5 -284.5t-12.5 -323.5q0 -117 58.5 -181t171.5 -65q120 0 193.5 74t76.5 186q17 580 20 584q5 7 85.5 5.5t86.5 -9.5q0 -71 -26 -981q-10 -16 -82.5 -13t-83.5 17q1 16 1.5 46t1 52t1.5 27 q-43 -61 -131.5 -105.5t-181.5 -44.5q-189 0 -280 104.5t-91 295.5zM272 1280q0 53 31 85t78 32q44 0 79.5 -34t35.5 -77q0 -52 -24.5 -86.5t-78.5 -34.5q-57 0 -88 30.5t-33 84.5zM686 1280q0 53 31 85t78 32q44 0 79 -34t35 -77q0 -52 -24 -86.5t-78 -34.5q-57 0 -88 30.5 t-33 84.5z" />
<glyph unicode="&#xfd;" horiz-adv-x="1036" d="M57 956q0 10 60.5 23.5t87.5 13.5q15 0 93.5 -171t149.5 -342l72 -171q297 676 311 678q12 2 82 -14.5t76 -24.5q-34 -110 -308.5 -715t-322.5 -688q-27 -3 -94.5 28.5t-70.5 43.5q3 15 48 112t103 220.5t80 177.5q-43 81 -205.5 436.5t-161.5 392.5zM346 1196l459 238 q9 -1 29.5 -34t36 -66t12.5 -34q-1 0 -118.5 -53t-234 -104.5t-120.5 -50.5q-16 5 -32 31t-24 49z" />
<glyph unicode="&#xfe;" horiz-adv-x="1189" d="M147.5 549.5q-12.5 940.5 4.5 980.5q14 14 93.5 11t84.5 -13q4 -5 5 -299t-1 -395q38 66 126.5 108.5t196.5 42.5q199 -3 319 -141.5t120 -349.5q0 -126 -35.5 -224t-98 -159.5t-144 -93t-177.5 -31.5q-102 0 -179.5 39.5t-119.5 99.5q4 -74 4 -574q-11 -2 -93 -2t-83 5 q-10 55 -22.5 995.5zM319 492q0 -151 75 -244.5t218 -93.5q136 0 221 79.5t85 251.5q0 153 -84.5 243.5t-219.5 90.5q-131 0 -213 -82.5t-82 -244.5z" />
<glyph unicode="&#xff;" horiz-adv-x="1036" d="M57 956q0 10 60.5 23.5t87.5 13.5q15 0 93.5 -171t149.5 -342l72 -171q297 676 311 678q12 2 82 -14.5t76 -24.5q-34 -110 -308.5 -715t-322.5 -688q-27 -3 -94.5 28.5t-70.5 43.5q3 15 48 112t103 220.5t80 177.5q-43 81 -205.5 436.5t-161.5 392.5zM211 1280 q0 53 30.5 85t77.5 32q44 0 79.5 -34t35.5 -77q0 -52 -24 -86.5t-78 -34.5q-57 0 -88 30.5t-33 84.5zM625 1280q0 53 30.5 85t77.5 32q44 0 79.5 -34t35.5 -77q0 -52 -24.5 -86.5t-78.5 -34.5q-57 0 -87.5 30.5t-32.5 84.5z" />
<glyph unicode="&#x152;" horiz-adv-x="2248" d="M111 715q0 81 12.5 159.5t39.5 152.5t65.5 139.5t92.5 119.5t119 93.5t148 61t176 21.5q167 0 295.5 -66.5t206.5 -191.5q1 38 2 119t2 107q82 8 459 11.5t421 -3.5q12 -8 12 -78t-3 -86q-15 -4 -306.5 -7.5t-402.5 -0.5l4 -473q94 2 320.5 -1t236.5 -6q5 -2 7.5 -15 t3.5 -30t0.5 -37t-1 -36t-1.5 -28l-1 -13q0 -9 -565 -2q0 -352 -2 -475q605 13 662 6q10 -33 9.5 -86.5t-3.5 -77.5q2 -2 -199.5 -6t-415 -3.5t-237.5 7.5q-4 86 -4 231q-162 -262 -494 -262q-153 0 -279 60t-208.5 163t-127 240t-44.5 293zM309 705q0 -153 52.5 -280 t157 -206.5t243.5 -79.5q119 0 208.5 44t143 124t79.5 184t26 232q0 256 -120.5 406.5t-324.5 150.5q-224 0 -344.5 -159t-120.5 -416z" />
<glyph unicode="&#x153;" horiz-adv-x="1843" d="M92 492q0 75 19.5 146.5t59.5 133.5t95 109.5t132 74.5t165 27q136 0 241 -57t163 -168q58 106 156.5 166.5t230.5 60.5q178 0 292.5 -115.5t114.5 -281.5q0 -86 -18 -144q-65 -8 -316.5 -10t-355.5 2q0 -129 88 -207.5t213 -78.5q94 0 156.5 26.5t118.5 73.5 q10 -5 41 -60t32 -73q-49 -47 -144.5 -87t-211.5 -40q-137 0 -238.5 57.5t-160.5 157.5q-116 -217 -398 -223q-210 0 -342.5 136.5t-132.5 373.5zM270 483q0 -163 83 -249.5t208 -86.5q147 -1 223 85.5t76 248.5q0 320 -293 324q-146 1 -221.5 -88.5t-75.5 -233.5zM1077 563 l506 6q9 125 -55 198t-182 73q-120 0 -194.5 -82t-74.5 -195z" />
<glyph unicode="&#x178;" horiz-adv-x="1273" d="M61 1384q0 12 71 36.5t93 21.5q7 -1 178 -290t226 -392q2 0 6 -1t6 -1q74 125 245.5 402.5t180.5 281.5q20 7 91 -16t71 -35q0 -29 -498 -830q3 -409 -2 -567q-7 -12 -54.5 -16t-91.5 0t-44 14q-5 133 -2 581q-478 790 -476 811zM322 1739q0 53 30.5 84.5t77.5 31.5 q44 0 79.5 -33.5t35.5 -76.5q0 -52 -24.5 -86.5t-78.5 -34.5q-57 0 -87.5 30.5t-32.5 84.5zM735 1739q0 53 31 84.5t78 31.5q44 0 79 -33.5t35 -76.5q0 -52 -24 -86.5t-78 -34.5q-57 0 -88 30.5t-33 84.5z" />
<glyph unicode="&#x2c6;" horiz-adv-x="1024" d="M193 1206q280 203 319 219q7 -3 86.5 -56.5t155.5 -106.5l75 -52q-28 -80 -57 -92q-5 -2 -94.5 48.5t-165.5 97.5q-44 -25 -112 -64t-106 -61t-40 -21q-13 5 -28 27t-24 41z" />
<glyph unicode="&#x2dc;" horiz-adv-x="1024" d="M172 1284q31 43 81.5 72.5t111.5 29.5q36 0 77.5 -18t72 -39t70 -39t72.5 -18q15 0 30 4t24 8t23 15t18.5 15t18 18t15.5 16q12 -3 35 -38.5t29 -64.5q-2 -4 -7 -11.5t-22.5 -26t-38.5 -33t-55 -26t-72 -11.5q-46 0 -103.5 28.5t-111 57t-88.5 28.5q-8 0 -16.5 -1.5 t-15.5 -3.5t-15.5 -6t-14 -7t-13.5 -9t-12.5 -9t-12.5 -10t-10.5 -9.5t-10 -9.5t-8.5 -8q-5 -5 -17 18q-28 53 -34 88z" />
<glyph unicode="&#x2000;" horiz-adv-x="946" />
<glyph unicode="&#x2001;" horiz-adv-x="1892" />
<glyph unicode="&#x2002;" horiz-adv-x="946" />
<glyph unicode="&#x2003;" horiz-adv-x="1892" />
<glyph unicode="&#x2004;" horiz-adv-x="630" />
<glyph unicode="&#x2005;" horiz-adv-x="473" />
<glyph unicode="&#x2006;" horiz-adv-x="315" />
<glyph unicode="&#x2007;" horiz-adv-x="315" />
<glyph unicode="&#x2008;" horiz-adv-x="236" />
<glyph unicode="&#x2009;" horiz-adv-x="378" />
<glyph unicode="&#x200a;" horiz-adv-x="105" />
<glyph unicode="&#x2010;" horiz-adv-x="780" d="M142.5 589q-3.5 62 2.5 64q9 2 242 8.5t242 2.5q9 -8 10 -42.5t-1.5 -65t-4.5 -32.5q0 -1 -102.5 -4t-208.5 -4.5t-164 0.5q-12 11 -15.5 73z" />
<glyph unicode="&#x2011;" horiz-adv-x="780" d="M142.5 589q-3.5 62 2.5 64q9 2 242 8.5t242 2.5q9 -8 10 -42.5t-1.5 -65t-4.5 -32.5q0 -1 -102.5 -4t-208.5 -4.5t-164 0.5q-12 11 -15.5 73z" />
<glyph unicode="&#x2012;" horiz-adv-x="780" d="M142.5 589q-3.5 62 2.5 64q9 2 242 8.5t242 2.5q9 -8 10 -42.5t-1.5 -65t-4.5 -32.5q0 -1 -102.5 -4t-208.5 -4.5t-164 0.5q-12 11 -15.5 73z" />
<glyph unicode="&#x2013;" horiz-adv-x="1064" d="M144.5 582.5q0.5 68.5 7.5 70.5t385 8t381 1q3 -6 -3 -72t-10 -66q-1 0 -373.5 -5t-379.5 -5q-8 0 -7.5 68.5z" />
<glyph unicode="&#x2014;" horiz-adv-x="1411" d="M145.5 589.5q1.5 65.5 6.5 67.5q7 2 557.5 7t554.5 0q3 -5 -2 -66t-9 -61q-1 0 -547.5 -6.5t-553.5 -6.5q-8 0 -6.5 65.5z" />
<glyph unicode="&#x2018;" horiz-adv-x="514" d="M100 950q0 84 61 249.5t111 250.5q2 3 24.5 -2t49.5 -18t37 -29q1 -2 -23.5 -60.5t-56.5 -138t-45 -119.5q62 0 106 -35.5t44 -95.5q0 -76 -44 -116.5t-126 -34.5q-58 2 -98 37.5t-40 111.5z" />
<glyph unicode="&#x2019;" horiz-adv-x="507" d="M109 1294q0 76 44 117t126 37q58 -4 97.5 -39t39.5 -111q0 -85 -60.5 -249t-111.5 -252q-2 -2 -24.5 3t-49.5 18t-37 30q-1 2 23.5 59.5t56.5 136.5t45 119q-62 2 -105.5 37t-43.5 94z" />
<glyph unicode="&#x201a;" horiz-adv-x="532" d="M111 125q0 76 44 117t126 37q58 -4 97.5 -39t39.5 -111q0 -85 -60.5 -249.5t-111.5 -252.5q-2 -2 -24.5 3t-49.5 18t-37 30q-1 2 23.5 59.5t56.5 137t45 119.5q-62 2 -105.5 37t-43.5 94z" />
<glyph unicode="&#x201c;" horiz-adv-x="925" d="M98 963q0 82 59 242t109 245q2 3 24 -1.5t48.5 -17t36.5 -28.5q1 -2 -22.5 -59t-55.5 -134t-45 -116q60 0 102.5 -35t42.5 -94q0 -75 -43 -114.5t-123 -33.5q-55 2 -94 36.5t-39 109.5zM522 963q0 82 59 242t109 245q2 3 24 -1.5t48.5 -17t36.5 -28.5q1 -2 -22.5 -59 t-55.5 -134t-45 -116q60 0 102.5 -35t42.5 -94q0 -75 -43 -114.5t-123 -33.5q-55 2 -94 36.5t-39 109.5z" />
<glyph unicode="&#x201d;" horiz-adv-x="919" d="M109 1303q0 75 42.5 115t122.5 36q56 -4 95 -38t39 -109q0 -82 -59 -242.5t-109 -247.5q-3 -1 -24.5 4t-48 17.5t-36.5 29.5q-1 2 23 58t55.5 133.5t44.5 116.5q-60 2 -102.5 36t-42.5 91zM530 1303q0 75 43 115t123 36q56 -4 94.5 -38t38.5 -109q0 -82 -58.5 -242.5 t-108.5 -247.5q-3 -1 -24.5 4t-48 17.5t-36.5 29.5q-1 2 23 58t55.5 133.5t44.5 116.5q-60 2 -103 36t-43 91z" />
<glyph unicode="&#x201e;" horiz-adv-x="942" d="M109 125q0 75 42.5 115t122.5 36q56 -4 95 -38t39 -109q0 -82 -59 -242t-109 -247q-3 -1 -24.5 4t-48 17.5t-36.5 29.5q-1 2 23 58t55.5 133t44.5 116q-60 2 -102.5 36t-42.5 91zM530 123q0 75 43 115t123 36q56 -4 94.5 -38t38.5 -109q0 -82 -58.5 -242t-108.5 -247 q-3 -1 -24.5 4t-48 17.5t-36.5 29.5q-1 2 23 58t55.5 133t44.5 116q-60 2 -103 36t-43 91z" />
<glyph unicode="&#x2022;" horiz-adv-x="724" d="M160 604q0 100 58 147.5t153 47.5q85 0 139.5 -52.5t54.5 -142.5q0 -86 -49 -144.5t-145 -58.5q-211 0 -211 203z" />
<glyph unicode="&#x2026;" horiz-adv-x="1603" d="M111 121q0 71 41.5 110t117.5 35q55 -3 92 -36t37 -103q0 -69 -43 -107.5t-120 -37.5q-49 3 -87 42t-38 97zM657 121q0 71 42 110t118 35q55 -3 92 -36t37 -103q0 -69 -43 -107.5t-121 -37.5q-49 3 -87 42t-38 97zM1202 121q0 71 42 110t118 35q55 -3 92 -36t37 -103 q0 -69 -43 -107.5t-121 -37.5q-49 3 -87 42t-38 97z" />
<glyph unicode="&#x202f;" horiz-adv-x="378" />
<glyph unicode="&#x2039;" horiz-adv-x="593" d="M84 616q0 9 163 238.5t171 235.5q5 4 41.5 -23.5t36.5 -32.5q0 -2 -125.5 -205.5t-124.5 -207.5t124.5 -221t123.5 -222q0 -8 -39 -39.5t-43 -29.5t-166 250t-162 257z" />
<glyph unicode="&#x203a;" horiz-adv-x="591" d="M100 172q0 2 123.5 210t122.5 212t-123.5 208.5t-122.5 209.5q0 8 38 39.5t42 29.5t166 -239t162 -246t-161 -241t-169 -238q-6 -4 -42 23t-36 32z" />
<glyph unicode="&#x205f;" horiz-adv-x="473" />
<glyph unicode="&#x20ac;" horiz-adv-x="1339" d="M79 844.5q6 56.5 11 58.5q25 0 74 -1t74 -1q44 244 204.5 398.5t397.5 154.5q129 0 232 -39.5t161 -89.5q3 -17 -25 -79t-47 -79q-141 109 -321 109q-148 0 -259.5 -105t-152.5 -272l526 -6q0 -7 -2.5 -52t-3.5 -48l-308 -5q-112 -1 -234 0q-3 -35 -3 -65q0 -73 9 -137 q93 0 278.5 1t278.5 1q3 -1 3.5 -45.5t-1.5 -48.5q-2 -2 -535 -13q44 -155 142 -242t241 -87q74 0 151.5 29t117.5 55t75 55q19 -18 45 -64.5t37 -79.5q-52 -63 -177 -119.5t-259 -56.5q-227 0 -370.5 135.5t-192.5 368.5q-21 0 -66.5 -1t-70.5 -1q-7 1 -10.5 55.5t1.5 55.5 h129q-8 63 -8 133q0 49 2 67q-92 0 -143 2q-7 2 -1 58.5z" />
<glyph unicode="&#x2122;" horiz-adv-x="1587" d="M115.5 1388.5q0.5 43.5 5.5 45.5q25 5 245 10t279 2q4 -4 6 -28t1 -47t-5 -23q-47 -7 -196 -7q5 -421 0 -546q-4 -5 -34 -7.5t-58.5 -1.5t-28.5 5q-9 183 -4 550q-18 0 -101 -2.5t-102 -1.5q-8 8 -7.5 51.5zM700 801q15 85 63 352t52 277q6 6 63.5 7.5t67.5 -1.5 q9 -8 65 -203.5t74 -286.5h5q32 119 86.5 298.5t60.5 185.5q6 4 62 6.5t71 -0.5q1 -1 26.5 -150.5t51 -307.5t27.5 -179q-2 -7 -32 -12t-55.5 -5t-29.5 2q-2 8 -16.5 109t-32 222t-23.5 157h-2q-8 -37 -36.5 -136t-61 -208.5t-39.5 -134.5q-9 -6 -63.5 -6.5t-55.5 4.5 q-13 43 -64.5 234t-64.5 245l-2 -2q-6 -31 -40 -239.5t-42 -240.5q-11 -4 -62.5 0.5t-52.5 12.5z" />
<glyph unicode="&#x25fc;" horiz-adv-x="993" d="M0 0v993h993v-993h-993z" />
</font>
</defs>
</svg>
